<?xml version="1.0" encoding="UTF-8"?>
<svg width="37px" height="19px" viewBox="0 0 37 19" version="1.1" xmlns="http://www.w3.org/2000/svg" xmlns:xlink="http://www.w3.org/1999/xlink">
    <!-- Generator: Sketch 59.1 (86144) - https://sketch.com -->
    <title>Icon / Overrid</title>
    <desc>Created with Sketch.</desc>
    <g id="Icon-/-Overrid" stroke="none" stroke-width="1" fill="none" fill-rule="evenodd">
        <path d="M33.492918,5.85676871 L33.2184688,7.46277878 C30.2098721,4.08112426 24.5864233,2 18.3189156,2 C10.8350052,2 4.29649618,4.98790968 2.04987496,9.43495087 C1.93471666,9.66319876 2.02573999,9.94040616 2.25329831,10.0548749 C2.31949709,10.0886639 2.39052287,10.104524 2.46085908,10.104524 C2.62911432,10.104524 2.79185299,10.0114319 2.87253276,9.85145155 C4.93365947,5.77195152 11.2852948,2.92264554 18.3189156,2.92264554 C24.134065,2.92264554 29.5347824,4.85964953 32.3868466,7.91099971 L30.9401274,7.6620647 L31.70693,8.74538021 L33.8852837,9.11912751 L34.259031,6.94008422 L33.492918,5.85676871 Z" id="Fill-1" fill="#C01F2A"></path>
        <rect id="Rectangle" stroke="#C01F2A" x="0.5" y="0.5" width="36" height="17" rx="4"></rect>
        <text id="override" font-family="GillSans, Gill Sans" font-size="8" font-weight="normal" line-spacing="16" fill="#C01F2A">
            <tspan x="5.28320312" y="10">override</tspan>
        </text>
    </g>
</svg>