<?xml version="1.0" encoding="UTF-8"?>
<svg width="26px" height="30px" viewBox="0 0 26 30" version="1.1" xmlns="http://www.w3.org/2000/svg" xmlns:xlink="http://www.w3.org/1999/xlink">
    <!-- Generator: Sketch 59.1 (86144) - https://sketch.com -->
    <title>Icon / Pilar B</title>
    <desc>Created with Sketch.</desc>
    <defs>
        <polygon id="path-1" points="0.402042105 1.30636364 1.77046316 1.30636364 1.77046316 4.51159091 0.402042105 4.51159091"></polygon>
    </defs>
    <g id="Icon-/-Pilar-B" stroke="none" stroke-width="1" fill="none" fill-rule="evenodd">
        <g id="Group-26">
            <polygon id="Fill-1" fill="#231F20" points="13.1094737 11.8381364 13.7731579 11.8381364 13.7731579 5.69359091 13.1094737 5.69359091"></polygon>
            <g id="Group-25" transform="translate(0.000000, 0.057682)">
                <path d="M8.01662105,11.7546818 C3.36262105,15.5551364 2.35409474,19.9365 9.79830526,23.8146818 C6.48398947,21.2987727 8.49693684,20.8365 18.0553579,23.8146818 C9.33577895,21.4869545 8.18083158,11.8596818 20.1463053,11.7546818 L8.01662105,11.7546818 Z" id="Fill-2" fill="#FEFEFE"></path>
                <path d="M8.01662105,11.7546818 C3.36262105,15.5551364 2.35409474,19.9365 9.79830526,23.8146818 C6.48398947,21.2987727 8.49693684,20.8365 18.0553579,23.8146818 C9.33577895,21.4869545 8.18083158,11.8596818 20.1463053,11.7546818 L8.01662105,11.7546818 Z" id="Stroke-4" stroke="#010202" stroke-width="0.545454545"></path>
                <path d="M19.0949474,16.4209091 C18.9923158,16.0759091 18.6283158,15.8781818 18.2821053,15.9804545 C17.8483158,16.1086364 17.602,16.5627273 17.7306316,16.9936364 C17.8907368,17.5336364 18.46,17.8418182 19.0018947,17.6809091 C19.6778947,17.4818182 20.0637895,16.7727273 19.864,16.0977273 C19.6122105,15.255 18.7241053,14.7736364 17.8770526,15.0245455 C16.8192632,15.3368182 16.2157895,16.4454545 16.5305263,17.4981818 C16.9218947,18.8154545 18.3122105,19.5668182 19.6341053,19.1754545 C19.9597895,19.0745455 20.2594737,18.9545455 20.5276842,18.8086364 C21.3391579,18.3081818 22.1082105,17.3795455 22.5816842,16.2409091" id="Stroke-6" stroke="#231F20" stroke-width="0.5" stroke-linecap="round"></path>
                <path d="M13.5891053,5.83213636 L13.5891053,7.13304545 C14.131,7.19031818 16.4833158,7.55986364 18.0227895,8.39031818 C19.8756316,9.38986364 21.0086842,10.6935 21.5300526,11.5648636 C22.7274211,13.5680455 22.8834211,15.1403182 22.5673158,16.2407727 C23.1858421,14.7557727 23.1666842,12.7907727 22.3415263,11.0112273 C21.7011053,9.62577273 19.8838421,7.83668182 18.0871053,7.06895455 C16.1028947,6.22213636 13.9818421,5.89759091 13.5891053,5.83213636" id="Fill-8" fill="#FEFEFE"></path>
                <path d="M13.5891053,5.83213636 L13.5891053,7.13304545 C14.131,7.19031818 16.4833158,7.55986364 18.0227895,8.39031818 C19.8756316,9.38986364 21.0086842,10.6935 21.5300526,11.5648636 C22.7274211,13.5680455 22.8834211,15.1403182 22.5673158,16.2407727 C23.1858421,14.7557727 23.1666842,12.7907727 22.3415263,11.0112273 C21.7011053,9.62577273 19.8838421,7.83668182 18.0871053,7.06895455 C16.1028947,6.22213636 13.9818421,5.89759091 13.5891053,5.83213636 Z" id="Stroke-10" stroke="#010202" stroke-width="0.5"></path>
                <path d="M14.3856632,5.08104545 L12.3385053,5.08104545 C12.1784,5.08104545 12.0484,4.9515 12.0484,4.79059091 C12.0484,4.63104545 12.1784,4.5015 12.3385053,4.5015 L14.3856632,4.5015 C14.5457684,4.5015 14.6757684,4.63104545 14.6757684,4.79059091 C14.6757684,4.9515 14.5457684,5.08104545 14.3856632,5.08104545" id="Fill-12" fill="#231F20"></path>
                <path d="M13.8792105,5.66031818 L12.8446842,5.66031818 C12.7256316,5.66031818 12.6284737,5.5635 12.6284737,5.4435 L12.6284737,5.29759091 C12.6284737,5.17759091 12.7256316,5.08077273 12.8446842,5.08077273 L13.8792105,5.08077273 C13.9982632,5.08077273 14.0954211,5.17759091 14.0954211,5.29759091 L14.0954211,5.4435 C14.0954211,5.5635 13.9982632,5.66031818 13.8792105,5.66031818" id="Fill-14" fill="#231F20"></path>
                <g id="Group-18" transform="translate(12.315789, 0.000000)">
                    <mask id="mask-2" fill="white">
                        <use xlink:href="#path-1"></use>
                    </mask>
                    <g id="Clip-17"></g>
                    <polygon id="Fill-16" fill="#231F20" mask="url(#mask-2)" points="1.08625263 1.30568182 0.760568421 4.51159091 1.41193684 4.51159091"></polygon>
                </g>
                <path d="M7.61964211,23.8617273 C4.71585263,22.8526364 2.35806316,21.8408182 0.0262736842,20.874 C4.00564211,22.9494545 4.2588,23.9380909 4.72816842,25.8962727 C6.08564211,28.299 7.65248421,28.5785455 9.07974737,28.5785455 L20.1283789,28.5785455 C21.4146947,28.5785455 22.1399579,27.3662727 22.4451158,26.5726364 C22.7502737,25.7803636 22.9596421,24.7071818 23.4988,24.3567273 C24.0365895,24.0076364 24.5648,23.6953636 24.5511158,23.0285455 C24.5388,22.4449091 25.1299579,22.3003636 25.1299579,22.3003636 C25.1518526,22.2826364 25.1491158,22.2376364 25.0765895,22.2376364 C24.8111158,22.2376364 24.7495368,22.2349091 24.3417474,22.2349091 C24.3417474,22.2349091 19.4961684,22.2117273 19.1910105,22.3044545 C19.1910105,22.3044545 18.6819579,24.0144545 17.5064842,24.0144545 C16.8154316,24.0144545 9.47795789,23.9517273 8.07258947,23.9394545 C7.91932632,23.9380909 7.76469474,23.9121818 7.61964211,23.8617273" id="Fill-19" fill="#231F20"></path>
                <path d="M7.61964211,23.8617273 C4.71585263,22.8526364 2.35806316,21.8408182 0.0262736842,20.874 C4.00564211,22.9494545 4.2588,23.9380909 4.72816842,25.8962727 C6.08564211,28.299 7.65248421,28.5785455 9.07974737,28.5785455 L20.1283789,28.5785455 C21.4146947,28.5785455 22.1399579,27.3662727 22.4451158,26.5726364 C22.7502737,25.7803636 22.9596421,24.7071818 23.4988,24.3567273 C24.0365895,24.0076364 24.5648,23.6953636 24.5511158,23.0285455 C24.5388,22.4449091 25.1299579,22.3003636 25.1299579,22.3003636 C25.1518526,22.2826364 25.1491158,22.2376364 25.0765895,22.2376364 C24.8111158,22.2376364 24.7495368,22.2349091 24.3417474,22.2349091 C24.3417474,22.2349091 19.4961684,22.2117273 19.1910105,22.3044545 C19.1910105,22.3044545 18.6819579,24.0144545 17.5064842,24.0144545 C16.8154316,24.0144545 9.47795789,23.9517273 8.07258947,23.9394545 C7.91932632,23.9380909 7.76469474,23.9121818 7.61964211,23.8617273 Z" id="Stroke-21" stroke="#231F20" stroke-width="0.5"></path>
                <line x1="5.29975789" y1="26.0102727" x2="22.0889158" y2="26.0102727" id="Stroke-23" stroke="#FEFEFE" stroke-width="0.5" stroke-linecap="round"></line>
            </g>
        </g>
    </g>
</svg>