<?xml version="1.0" encoding="UTF-8"?>
<svg width="38px" height="20px" viewBox="0 0 38 20" version="1.1" xmlns="http://www.w3.org/2000/svg" xmlns:xlink="http://www.w3.org/1999/xlink">
    <!-- Generator: Sketch 59.1 (86144) - https://sketch.com -->
    <title>Icon / Arrow Tail</title>
    <desc>Created with Sketch.</desc>
    <g id="Icon-/-Arrow-Tail" stroke="none" stroke-width="1" fill="none" fill-rule="evenodd">
        <path d="M14.0591119,17.542621 C15.0443624,17.542621 15.9808825,17.5449737 16.9172364,17.5379157 C16.9835961,17.5372435 17.0620968,17.480443 17.1138208,17.4281798 C19.0435745,15.4826781 20.9708336,13.5346557 22.8979263,11.5866333 C22.9408356,11.5431086 22.9784228,11.4943745 23.0462794,11.4160637 L22.8041246,11.4160637 C21.9728819,11.4160637 21.1416392,11.4199288 20.3107291,11.4123458 C20.1637066,11.4111903 20.0654143,11.4597564 19.9642948,11.5620982 C18.0533346,13.4981891 16.1390482,15.430751 14.2257596,17.3643212 C14.1798566,17.4107027 14.1364484,17.459773 14.0591119,17.542621 L14.0591119,17.542621 Z M23.037132,8.57318111 C22.9794207,8.50612961 22.9448272,8.46075642 22.9050779,8.42059274 C20.9733283,6.46769692 19.0415788,4.51463305 17.106004,2.5654343 C17.0482926,2.5072894 16.948171,2.46242035 16.8675082,2.46174816 C15.9832109,2.45452206 15.0989137,2.45687474 14.2146165,2.45805108 C14.1745345,2.45805108 14.1347852,2.4701506 14.0860549,2.4780489 C14.1055138,2.50577696 14.1118338,2.51821257 14.1211474,2.52745526 C16.0904842,4.51866622 18.0594883,6.50987719 20.0321513,8.49755912 C20.0812143,8.54713353 20.1701928,8.57973501 20.2407104,8.58023916 C21.1316603,8.58561672 22.0226101,8.58376819 22.9137262,8.58343209 C22.9439956,8.58343209 22.9744312,8.57839062 23.037132,8.57318111 L23.037132,8.57318111 Z M7.09865985,17.542621 C8.08707032,17.542621 9.02475469,17.5453098 9.96243905,17.5375796 C10.0344535,17.5369074 10.1197731,17.4765778 10.175655,17.4202815 C12.1019161,15.478813 14.0255162,13.5344877 15.9491163,11.5899943 C15.9928572,11.5457974 16.0314423,11.4967272 16.1019599,11.4160637 L15.8634641,11.4160637 C15.0252361,11.4160637 14.1870082,11.4199288 13.3487802,11.4125139 C13.2017577,11.4113583 13.1036318,11.4600925 13.0025122,11.5624343 C11.0953773,13.4948281 9.1849161,15.4240291 7.27528646,17.3539022 C7.22539193,17.4043168 7.17815845,17.4575883 7.09865985,17.542621 L7.09865985,17.542621 Z M16.104122,8.58360014 C16.0329391,8.50310473 15.9968488,8.45806764 15.9564342,8.41706372 C14.028011,6.46803302 12.100253,4.51833013 10.1673392,2.57383675 C10.1021437,2.50829769 9.98572316,2.46309255 9.89258672,2.4622523 C9.02791467,2.45368181 8.1630763,2.45687474 7.29823794,2.45771498 C7.24352028,2.45788303 7.18880262,2.46594938 7.124605,2.47099084 C7.14256703,2.50191184 7.14705754,2.5151877 7.15603855,2.52409428 C9.12637319,4.51614549 11.0970405,6.5081967 13.0698698,8.49772717 C13.1122802,8.54057963 13.1819662,8.57973501 13.2390123,8.58007111 C14.1761977,8.58511258 15.1133831,8.58360014 16.104122,8.58360014 L16.104122,8.58360014 Z M38,11.4155596 L27.2680211,11.4128708 C27.2680211,11.4128708 27.0100664,11.4604286 26.9037911,11.5678118 C24.1732303,14.3318795 21.4393431,17.0924181 18.7084497,19.8561497 C18.6128185,19.9529459 18.5193494,20 18.3799774,20 C12.5988656,19.9966386 6.81792001,19.9969747 1.03680815,19.9969747 L0.794819723,19.9969747 C3.6008876,17.126196 6.37069879,14.2927241 9.17526982,11.4237939 L1.4015371,11.4237939 C0.627506762,11.4237939 0,10.7897456 0,10.0076462 C0,9.22571484 0.627506762,8.59149843 1.4015371,8.59149843 L9.18890766,8.59149843 C6.3763535,5.71433387 3.60604336,2.88018982 0.793655518,0.00285721378 L1.07007117,0.00285721378 C6.83122522,0.00285721378 12.5923793,0.00336136037 18.353367,-5.32907052e-15 C18.4902443,-5.32907052e-15 18.6214669,0.0549523609 18.718096,0.152756798 C21.4436673,2.9124552 24.1732303,5.66812044 26.8988017,8.42798689 C27.0112306,8.54192402 27.2813263,8.58712916 27.2813263,8.58712916 L38,8.58427233 L38,11.4155596 Z" id="Fill-4" fill="#422063"></path>
    </g>
</svg>