<?xml version="1.0" encoding="UTF-8"?>
<svg width="35px" height="20px" viewBox="0 0 35 20" version="1.1" xmlns="http://www.w3.org/2000/svg" xmlns:xlink="http://www.w3.org/1999/xlink">
    <!-- Generator: Sketch 59.1 (86144) - https://sketch.com -->
    <title>Icon / Arrow Front</title>
    <desc>Created with Sketch.</desc>
    <g id="Icon-/-Arrow-Front" stroke="none" stroke-width="1" fill="none" fill-rule="evenodd">
        <path d="M23.1418,9.854 C22.8308,9.804 22.4398,9.579 22.2898,9.318 C21.4278,7.813 20.6258,6.273 19.8068,4.743 C19.7608,4.658 18.9798,3.481 18.9218,3.31897608 C20.0598,3.312 21.7488,4.843 22.5748,5.43 C24.7238,6.958 26.8258,7.876 28.9448,9.447 C29.0888,9.555 29.2208,9.679 29.5348,9.943 C29.0548,9.943 28.7928,9.973 28.5388,9.938 C26.7378,9.698 24.9358,10.142 23.1418,9.854 L23.1418,9.854 Z M27.1298,11.539 C27.4568,11.588 27.7958,11.546 28.1298,11.546 C28.1318,11.598 29.4958,11.718 29.4968,11.77 C26.8268,13.051 21.4398,15.892 18.7698,17.173 C18.7088,17.15 18.6488,17.126 18.5888,17.103 C19.4288,15.681 21.5828,13.282 22.5048,11.915 C22.6688,11.672 26.0178,11.374 27.1298,11.539 L27.1298,11.539 Z M-0.0002,11.666 L20.3398,11.666 C20.3398,11.666 18.4868,13.396 18.1808,13.873 C17.1368,15.501 15.8168,16.969 15.2658,18.877 C15.1808,19.169 15.1978,19.584 15.3528,19.82 C15.4598,19.983 15.9238,20.046 16.1638,19.964 C17.0728,19.655 17.9478,19.249 18.8478,18.916 C20.5508,18.285 22.2908,17.204 23.9638,16.503 C26.2468,15.547 28.4868,14.348 30.7348,13.31 C31.4248,12.991 33.4528,11.674 34.1038,11.281 C34.2908,11.168 34.4638,10.897 34.4828,10.685 C34.4948,10.545 34.2388,10.346 34.0648,10.234 C33.7768,10.049 29.9588,7.742 28.2178,6.546 C26.7578,5.544 25.0338,4.799 23.5358,3.856 C22.1728,2.999 20.7558,2.229 19.3608,1.426 C18.5448,0.957 17.7608,0.398 16.8898,0.079 C16.4998,-0.064 15.6788,-0.042 15.4448,0.403 C15.2858,0.704 15.6368,1.067 15.8068,1.356 C16.2718,2.151 16.8098,2.904 17.2578,3.708 C18.0568,5.138 18.8268,6.584 19.5728,8.042 C19.8518,8.586 20.3028,8.908 20.3028,8.908 L-0.0002,8.908 L-0.0002,11.666 Z" id="Fill-1" fill="#410166"></path>
    </g>
</svg>