<?xml version="1.0" encoding="UTF-8"?>
<svg width="91px" height="155px" viewBox="0 0 91 155" version="1.1" xmlns="http://www.w3.org/2000/svg" xmlns:xlink="http://www.w3.org/1999/xlink">
    <!-- Generator: Sketch 59.1 (86144) - https://sketch.com -->
    <title>Icon / Top Sign In Quill</title>
    <desc>Created with Sketch.</desc>
    <defs>
        <polygon id="path-1" points="0.0012 0.124 67.0202404 0.124 67.0202404 113.0002 0.0012 113.0002"></polygon>
        <polygon id="path-3" points="0.4689 0.271972602 83.4249 0.271972602 83.4249 13 0.4689 13"></polygon>
    </defs>
    <g id="Icon-/-Top-Sign-In-Quill" stroke="none" stroke-width="1" fill="none" fill-rule="evenodd">
        <text id="Log-In" font-family="GillSans-SemiBold, Gill Sans" font-size="24" font-weight="500" fill="#410166">
            <tspan x="3.37695312" y="149">LOG IN</tspan>
        </text>
        <g id="Group-7-Copy-2" transform="translate(4.000000, 0.000000)">
            <g id="Group-3">
                <mask id="mask-2" fill="white">
                    <use xlink:href="#path-1"></use>
                </mask>
                <g id="Clip-2"></g>
                <path d="M3.9522,86.6482 C0.3762,96.2092 -2.3448,57.4252 5.4852,49.8172 C5.6382,53.8222 6.9882,54.5692 7.9992,58.0972 C10.0362,51.3652 10.2132,43.8412 12.9372,37.2682 C15.5232,31.0132 18.7392,26.2522 23.8902,22.1482 C24.8352,23.7322 25.4172,25.4392 26.3382,26.9782 C32.0052,7.2922 52.9062,9.0112 66.9492,0.1222 C67.4142,3.6442 65.4582,7.5772 65.0892,11.0782 C64.6722,14.9602 64.5852,18.6892 63.1602,22.2502 C59.5962,31.1842 52.9002,33.3262 46.0332,38.6602 C49.2252,38.3422 52.0542,37.8772 55.3062,37.7752 C49.9602,39.0502 49.6482,44.4352 47.6682,48.0592 C44.7312,53.4382 41.0352,54.1012 36.1602,56.7442 C39.1302,56.1352 43.2612,57.6172 45.3312,59.4742 C38.2572,64.2532 37.0512,72.9022 30.8622,78.1672 C25.8102,82.4662 13.1502,85.9612 11.5752,92.7022 L0.0012,113.0002 C0.0012,113.0002 21.2652,41.9602 45.7122,24.4312 C45.7122,24.4312 27.4872,23.7322 3.9522,86.6482" id="Fill-1" fill="#000000" mask="url(#mask-2)"></path>
            </g>
            <g id="Group-6" transform="translate(0.000000, 102.000000)">
                <mask id="mask-4" fill="white">
                    <use xlink:href="#path-3"></use>
                </mask>
                <g id="Clip-5"></g>
                <path d="M0.4689,11.0944 C3.9399,9.5734 7.4709,8.2294 11.0049,6.8464 C14.5629,5.5594 18.1599,4.3534 21.8049,3.2584 C25.4469,2.1454 29.1729,1.2844 32.9979,0.6844 C34.9119,0.3964 36.8649,0.2434 38.8719,0.2764 C40.8609,0.3364 42.9879,0.5464 45.0759,1.7464 C46.0989,2.3914 47.0109,3.4264 47.4519,4.6414 L47.6919,5.5504 C47.7699,5.8714 47.8179,5.9314 47.8779,6.1354 C48.0069,6.4594 48.0369,6.8404 48.2169,7.1404 C48.8319,8.4004 50.2599,9.1564 51.7929,9.6964 C55.0389,10.6564 58.7949,10.3894 62.4099,9.9064 C66.0519,9.3724 69.6639,8.3944 73.1709,7.1314 C76.7199,5.9464 80.1339,4.3714 83.4249,2.4994 C77.5089,7.2724 70.3509,10.4614 62.8269,12.1744 C59.0499,13.0084 55.0779,13.4074 50.9889,12.4204 C49.0119,11.8114 46.8069,10.7254 45.6369,8.5324 C45.1719,7.5814 44.7729,6.0154 44.6619,5.6584 C44.4339,5.0974 44.0499,4.6594 43.4829,4.2844 C42.2889,3.5644 40.5399,3.2494 38.7819,3.2044 C37.0149,3.1414 35.1909,3.2854 33.3669,3.4954 C29.7009,3.8974 26.0469,4.7074 22.3839,5.4814 C15.0669,7.1374 7.8249,9.2794 0.4689,11.0944" id="Fill-4" fill="#410166" mask="url(#mask-4)"></path>
            </g>
        </g>
    </g>
</svg>