<?xml version="1.0" encoding="UTF-8"?>
<svg width="174px" height="140px" viewBox="0 0 174 140" version="1.1" xmlns="http://www.w3.org/2000/svg" xmlns:xlink="http://www.w3.org/1999/xlink">
    <!-- Generator: Sketch 59.1 (86144) - https://sketch.com -->
    <title>Logos / TradeWorks</title>
    <desc>Created with Sketch.</desc>
    <g id="L-Individual-Profile" stroke="none" stroke-width="1" fill="none" fill-rule="evenodd">
        <g id="L00H---TW-Home-Page" transform="translate(-677.000000, -11.000000)">
            <g id="Logos-/-TradeWorks" transform="translate(763.000000, 81.000000) rotate(-360.000000) translate(-763.000000, -81.000000) translate(677.000000, 11.000000)">
                <g id="Group-5" stroke-width="1" fill-rule="evenodd" transform="translate(55.796176, 33.164402)" fill="#BABBBE">
                    <path d="M47.6253426,0.100027433 L47.6253426,32.0576578 C60.2283361,32.0576578 61.9115531,28.6418831 63.7812416,26.2118105 C65.649687,23.7804948 68.0812766,12.9377718 63.9664701,6.76750038 C59.8541498,0.597228995 52.5991616,-0.209480539 47.6253426,0.100027433" id="Fill-1"></path>
                    <path d="M40.7439192,63.9814785 L35.3909413,60.1157364 C35.9565718,58.8304703 36.2723303,57.4146889 36.2723303,55.9292992 C36.2723303,54.7782776 36.0833725,53.6732471 35.7365353,52.6390679 L41.1728039,48.7111756 C42.2245037,50.9013484 42.8174833,53.3475801 42.8174833,55.9292992 C42.8174833,58.8441434 42.0653812,61.584967 40.7439192,63.9814785 L40.7439192,63.9814785 Z M27.4298473,66.3158399 C29.8005229,65.8932185 31.9014362,64.7136078 33.4603387,63.0405246 L39.5393127,65.8534424 C36.6278695,69.7974938 32.0307231,72.4637372 26.779683,72.8440964 L27.4298473,66.3158399 Z M26.5832663,62.2425161 C26.5161365,62.2537031 26.4502499,62.2611611 26.3831201,62.2711052 C26.3483121,62.2760772 26.3122609,62.2798062 26.278696,62.2847782 C26.2177819,62.2909932 26.1568679,62.2984512 26.097197,62.3034233 C26.0524438,62.3071523 26.0052043,62.3108813 25.959208,62.3146103 C25.9057528,62.3183393 25.8510545,62.3233113 25.7975993,62.3245543 L25.7491167,63.0032345 L25.2816945,64.0423857 L24.9224259,64.0162826 L24.8913473,64.0150396 L24.5333219,63.9901796 L24.2188064,62.8988221 L24.2672891,62.221385 L24.2672891,62.221385 C24.0920058,62.1878239 23.9179656,62.1480478 23.7501412,62.1032996 C23.7377097,62.0995706 23.7252783,62.0970846 23.7128468,62.0933556 C23.5450224,62.0473645 23.3796843,61.9951583 23.2193187,61.9367371 L22.9035601,62.543323 L22.0594654,63.3189574 L21.7399774,63.1598529 L21.7113851,63.1449369 L21.3906539,62.9858324 L21.5373449,61.8596709 L21.8518603,61.255571 C21.7051693,61.1586167 21.5646941,61.0566903 21.4267051,60.949792 C21.4192462,60.94482 21.4117874,60.938605 21.4055716,60.9323899 C21.2650964,60.8230056 21.13208,60.7111353 21.002793,60.5918069 L20.4694842,61.0281012 L19.3817333,61.4221335 L19.1505085,61.1511586 L19.129375,61.1275416 L18.8993934,60.8578097 L19.4836711,59.8783226 L20.0157367,59.4407853 L20.0157367,59.4407853 C19.8168337,59.1449503 19.6440366,58.8329564 19.4973457,58.5060463 L18.8335068,58.704927 L17.6748966,58.6502348 L17.5704725,58.3133807 L17.5605274,58.2835486 L17.4561033,57.9479376 L18.3847318,57.2692574 L19.0485707,57.0691338 C18.9864135,56.7248217 18.9503623,56.3718086 18.9453897,56.0100945 L18.2542017,55.9392433 L17.2099608,55.4457707 L17.2472551,55.0964866 L17.2497414,55.0654115 L17.2882788,54.7148844 L18.4145673,54.4451526 L19.1045122,54.5172468 C19.1840734,54.1667197 19.2947132,53.8261366 19.4302159,53.5017126 L19.431459,53.5017126 L18.8235616,53.1710736 L18.0602712,52.3196159 L18.2343114,52.0125939 L18.2504723,51.9840048 L18.4232693,51.6769829 L19.5669617,51.8584614 L20.1748591,52.1878575 L20.1761023,52.1878575 C20.3451698,51.9579018 20.5303983,51.7378901 20.7305445,51.5327944 L20.7305445,51.5303084 L20.6223909,51.6148327 L20.1748591,51.0542379 L19.8118611,49.9765535 L20.0952979,49.7602708 L20.1214039,49.7391398 L20.4023545,49.5228571 L21.3831951,50.129443 L21.7934326,50.6415606 C21.9165038,50.5595224 22.0445476,50.4799701 22.1738346,50.4041469 C22.1875092,50.3954458 22.2036701,50.3892308 22.2173447,50.3805298 C22.3453885,50.3084356 22.4746755,50.2400704 22.6064487,50.1766772 L22.608935,50.1766772 L22.3901417,49.5539322 L22.4050594,48.4203126 L22.7456808,48.3059563 L22.7767594,48.2947692 L23.1148946,48.1804129 L23.8408907,49.0666747 L24.0559546,49.6794756 C24.1653513,49.6546155 24.2735048,49.6334845 24.3841446,49.6160824 L24.3841446,49.6160824 C24.4947844,49.5986803 24.6054242,49.5825213 24.7185503,49.5688482 L24.7185503,48.8889251 L25.1101407,47.8211848 L25.4681661,47.8211848 L25.5004879,47.8211848 L25.8597565,47.8211848 L26.25259,48.8889251 L26.25259,49.5688482 C26.6168312,49.6111104 26.9736135,49.6832046 27.3179644,49.7789159 L27.5889697,49.1536849 L28.3758799,48.3208723 L28.7065562,48.4588458 L28.7363916,48.4700328 L29.0670679,48.6080062 L29.0011813,49.7403828 L28.7289328,50.3680998 L28.731419,50.3680998 C29.0446913,50.5458493 29.3455322,50.7459729 29.6252396,50.9709567 L30.1262266,50.4973722 L31.1816558,50.0324887 L31.4315277,50.2835755 L31.4539043,50.3084356 L31.7037763,50.5607654 L31.1903578,51.5775426 L30.6918571,52.051127 C30.7975243,52.1878575 30.898219,52.3283169 30.9939411,52.4737484 C30.9989136,52.4824494 31.0038862,52.4899074 31.0088588,52.4986085 C31.1020946,52.6440399 31.1916009,52.7932004 31.2761347,52.9485759 L31.9225696,52.7037041 L33.0824229,52.680087 L33.2104668,53.0082401 L33.2228982,53.0380721 L33.350942,53.3662252 L32.4732824,54.1058125 L31.8268475,54.3494413 C31.8691144,54.5147608 31.9051656,54.6838093 31.9337579,54.8565869 C31.935001,54.8615589 31.9374873,54.8665309 31.9374873,54.8739889 C31.9673228,55.0480095 31.9884562,55.220787 32.003374,55.4010226 L32.6982914,55.4233966 L33.7748541,55.843532 L33.7624227,56.1965451 L33.7624227,56.2263772 L33.7499912,56.5793903 L32.6448362,56.9237024 L31.9524051,56.9000853 C31.9499188,56.9125153 31.9474325,56.9249454 31.9461893,56.9373754 C31.9312716,57.0206567 31.917597,57.1039379 31.900193,57.1847332 C31.8902479,57.2394253 31.8753301,57.2916315 31.8628987,57.3463237 C31.856683,57.3823708 31.8492241,57.4171749 31.839279,57.451979 C31.8206318,57.5228302 31.8032278,57.5911955 31.7845806,57.6595607 C31.779608,57.6732337 31.7733923,57.6893928 31.7696629,57.7030658 C31.7472863,57.780132 31.7224234,57.8584413 31.6988037,57.9355075 L32.3265914,58.2238844 L33.1495527,59.023136 L32.9978891,59.3401019 L32.9842145,59.368691 L32.832551,59.6869 L31.6789134,59.5849737 L31.0486394,59.2965968 C30.8571952,59.5986468 30.6408882,59.8845377 30.4022045,60.1517835 L30.8671404,60.6576861 L31.3047271,61.7080244 L31.0386942,61.9441951 L31.0150745,61.9653262 L30.7477986,62.2002539 L29.7271774,61.6632762 L29.2609984,61.1573737 C29.1155505,61.256814 28.9676164,61.3525253 28.8134665,61.4420216 C28.8060077,61.4469936 28.799792,61.4507226 28.79109,61.4532086 C28.6394264,61.5414619 28.4852765,61.6235001 28.324911,61.6993234 L28.5511632,62.3407134 L28.5362454,63.4743329 L28.1968671,63.5899323 L28.1657885,63.5986333 L27.8264102,63.7142327 L27.1016573,62.8292139 L26.8754051,62.1865809 C26.8020596,62.2014969 26.7287141,62.216413 26.6528823,62.228843 C26.6292626,62.233815 26.606886,62.237544 26.5832663,62.2425161 L26.5832663,62.2425161 Z M11.6021383,66.0871271 L17.7208929,63.2555642 C19.3220624,64.8826564 21.4490817,66.0088179 23.8359181,66.366803 L24.482353,72.8664704 C19.2139088,72.5706355 14.5769818,69.9764864 11.6021383,66.0871271 L11.6021383,66.0871271 Z M8.15365696,55.9292992 C8.15365696,53.2145787 8.80755069,50.6527477 9.96243143,48.3792935 L15.3589194,52.2785968 C14.9312779,53.4159453 14.6975668,54.6452762 14.6975668,55.9292992 C14.6975668,57.4929981 15.0468903,58.9746588 15.6721917,60.312131 L10.3341315,64.1691721 C8.94678281,61.7279124 8.15365696,58.9187236 8.15365696,55.9292992 L8.15365696,55.9292992 Z M24.5121884,38.988399 L23.8657536,45.4868234 C21.1681311,45.8833417 18.7986987,47.258104 17.1440741,49.2295082 L11.1148259,46.4402074 C14.0585908,42.172975 18.9342014,39.290449 24.5121884,38.988399 L24.5121884,38.988399 Z M40.0813235,46.7845195 L34.0893695,49.5576612 C32.4857138,47.4855737 30.1200109,46.0126141 27.4000119,45.5377866 L26.7498476,39.0095301 C32.3539406,39.4072913 37.2158766,42.4066597 40.0813235,46.7845195 L40.0813235,46.7845195 Z M49.161247,55.1772819 L48.686366,55.1772819 C48.6702051,54.6838093 48.6366402,54.1940658 48.5894008,53.7068082 L49.0593092,53.6471441 L50.0886324,53.1275684 L50.0401498,52.7795273 L50.0376635,52.7484522 L49.990424,52.4004111 L48.8579199,52.1580254 L48.3917409,52.2189326 C48.3084502,51.732918 48.2139713,51.2493895 48.099602,50.773319 L48.5508633,50.6564767 L49.5055979,50.0076286 L49.4098758,49.6682886 L49.4036601,49.6384565 L49.3104243,49.2978734 L48.1543004,49.2034051 L47.7030391,49.3227335 C47.5563481,48.851635 47.3947394,48.3867515 47.2194561,47.9280831 L47.6520702,47.7515765 L48.5085964,46.9896151 L48.3718506,46.6651911 L48.3594191,46.635359 L48.2226733,46.309692 L47.0653063,46.3643842 L46.6326922,46.5396477 C46.423844,46.0921663 46.2025643,45.6508999 45.9651238,45.2195776 L46.3728751,44.9896219 L47.1187614,44.1232481 L46.942235,43.8187122 L46.924831,43.7926091 L46.7445751,43.4868301 L45.6046121,43.6894398 L45.1968609,43.9193955 C44.9308281,43.5029892 44.6523638,43.0940409 44.3589818,42.6950367 L44.7356545,42.4141178 L45.362199,41.4607338 L45.1434057,41.1810579 L45.1235154,41.1561978 L44.9059652,40.8765219 L43.8008102,41.22332 L43.4266239,41.5054819 C43.1071359,41.1251227 42.7752164,40.7559506 42.4321087,40.3992084 L42.7677576,40.0710554 L43.263772,39.0443342 L43.0089275,38.7957334 L42.9853078,38.7721163 L42.7304632,38.5247586 L41.683736,39.0082871 L41.3480872,39.3364401 C40.9826028,39.000829 40.6046871,38.676405 40.2180693,38.363168 L40.5064787,37.9977249 L40.8595316,36.9175545 L40.5748516,36.7037578 L40.5487456,36.6838698 L40.2640656,36.4700731 L39.2894407,37.082874 L39.0010313,37.4495602 C38.5957664,37.1636693 38.1768269,36.8914514 37.7516717,36.6316636 L37.987869,36.2326594 L38.1929878,35.1151988 L37.8822018,34.9399353 L37.8536095,34.9237762 L37.5428235,34.7472697 L36.657705,35.479399 L36.4239939,35.8796462 C35.9826778,35.6472045 35.5326597,35.4284358 35.0751827,35.2245832 L35.2541954,34.8019619 L35.3101369,33.6695853 L34.9782175,33.5340979 L34.9458957,33.5229108 L34.6164626,33.3874234 L33.8357682,34.2276941 L33.6592417,34.6515584 C33.1893333,34.4787808 32.7156955,34.3209193 32.2321124,34.1779739 L32.3539406,33.7342215 L32.2582185,32.604331 L31.9101382,32.5123487 L31.8790596,32.5048906 L31.5334655,32.4141514 L30.872113,33.3451613 L30.751528,33.7889137 C30.2642156,33.6782863 29.7731737,33.583818 29.2734298,33.5042658 L29.335587,33.0480833 L29.0894445,31.9380809 L28.7339053,31.8933327 L28.7015836,31.8871177 L28.3460444,31.8423696 L27.8152219,32.8516887 L27.7530647,33.3091142 C27.2582934,33.26188 26.7560633,33.2308049 26.25259,33.2158889 L26.25259,32.7510054 L25.8597565,31.6832651 L25.5004879,31.6832651 L25.4681661,31.6832651 L25.1101407,31.6832651 L24.7185503,32.7510054 L24.7185503,33.2158889 C24.2138339,33.2308049 23.71409,33.26188 23.2168324,33.3091142 L23.1546752,32.8516887 L22.6238527,31.8423696 L22.2695567,31.8871177 L22.2359918,31.8933327 L21.8804526,31.9380809 L21.6355533,33.0480833 L21.6964673,33.5042658 C21.1992097,33.583818 20.7056816,33.6782863 20.2196123,33.7889137 L20.0977842,33.3451613 L19.4389179,32.4141514 L19.0908376,32.5048906 L19.059759,32.5123487 L18.7129218,32.604331 L18.6171997,33.7342215 L18.7377847,34.1779739 C18.2554448,34.3209193 17.7805638,34.4787808 17.3131417,34.6515584 L17.134129,34.2276941 L16.3546777,33.3874234 L16.0227583,33.5229108 L15.9929228,33.5340979 L15.6610034,33.6695853 L15.7169449,34.8019619 L15.8947144,35.2245832 C15.4372375,35.4284358 14.9872193,35.6472045 14.5471464,35.8796462 L14.310949,35.479399 L13.4270737,34.7472697 L13.1162877,34.9237762 L13.0889385,34.9399353 L12.7769094,35.1151988 L12.9832713,36.2326594 L13.2194686,36.6316636 C12.7930702,36.8914514 12.3753739,37.1636693 11.9688658,37.4495602 L11.6816995,37.082874 L10.7070747,36.4700731 L10.4211516,36.6826268 L10.3962887,36.7037578 L10.1116087,36.9175545 L10.4646616,37.9977249 L10.7518279,38.363168 C10.3639669,38.676405 9.98853746,39.000829 9.62180999,39.3364401 L9.28616112,39.0082871 L8.23819075,38.5247586 L7.98458938,38.7721163 L7.96096965,38.7957334 L7.70736828,39.0443342 L8.20213958,40.0710554 L8.53778845,40.3992084 C8.19468071,40.7559506 7.86276127,41.1251227 7.54451642,41.5054819 L7.17033008,41.22332 L6.0651751,40.8765219 L5.84638176,41.1561978 L5.8277346,41.1810579 L5.60894126,41.4607338 L6.23548582,42.4141178 L6.60967216,42.6950367 C6.31753332,43.0940409 6.04031222,43.5029892 5.77427941,43.9193955 L5.36528505,43.6894398 L4.22532203,43.4868301 L4.04506615,43.7926091 L4.02890528,43.8187122 L3.84989255,44.1232481 L4.59826522,44.9896219 L5.00601644,45.2195776 C4.76857594,45.6508999 4.54481003,46.0921663 4.33720498,46.5396477 L3.90583403,46.3643842 L2.748467,46.309692 L2.61047802,46.635359 L2.59804658,46.6651911 L2.4600576,46.9896151 L3.31907008,47.7515765 L3.75044103,47.9280831 C3.57515773,48.3867515 3.41354902,48.851635 3.26810117,49.3227335 L2.81559677,49.2034051 L1.66071602,49.2978734 L1.56872337,49.6384565 L1.55877822,49.6682886 L1.46678557,50.0076286 L2.41903384,50.6564767 L2.8702951,50.773319 C2.757169,51.2493895 2.66144692,51.732918 2.58064256,52.2189326 L2.11322043,52.1580254 L0.980716275,52.4004111 L0.933476804,52.7484522 L0.929747373,52.7795273 L0.882507902,53.1275684 L1.91307425,53.6471441 L2.38049638,53.7068082 C2.33201377,54.1940658 2.30093517,54.6838093 2.2847743,55.1772819 L1.8098933,55.1772819 L0.718412898,55.5601271 L0.718412898,55.9118972 L0.718412898,55.9454583 L0.718412898,56.2959854 L1.8098933,56.6788306 L2.2847743,56.6788306 C2.30093517,57.1723031 2.33201377,57.6632897 2.38049638,58.1493042 L1.91307425,58.2089684 L0.882507902,58.729787 L0.929747373,59.0765851 L0.933476804,59.1089032 L0.980716275,59.4569443 L2.11322043,59.6968441 L2.58064256,59.6371799 C2.66144692,60.1244374 2.757169,60.6067229 2.8702951,61.0827934 L2.41903384,61.2021218 L1.46678557,61.8484838 L1.55877822,62.1878239 L1.56872337,62.217656 L1.66071602,62.5582391 L2.81559677,62.6539504 L3.26810117,62.532136 C3.41354902,63.0044775 3.57515773,63.4706039 3.75044103,63.9292724 L3.31907008,64.1045359 L2.4600576,64.8664973 L2.59804658,65.1921643 L2.61047802,65.2219964 L2.748467,65.5451774 L3.90583403,65.4917283 L4.33720498,65.3164647 C4.54481003,65.7639461 4.76857594,66.2052125 5.00601644,66.6377779 L4.59826522,66.8677336 L3.84989255,67.7341073 L4.02890528,68.0374003 L4.04506615,68.0659894 L4.22532203,68.3692823 L5.36528505,68.1679157 L5.77427941,67.935474 C6.04031222,68.3531233 6.31753332,68.7608285 6.60967216,69.1623188 L6.23548582,69.4432377 L5.60894126,70.3966217 L5.8277346,70.6762976 L5.84638176,70.6999146 L6.0651751,70.9795905 L7.17033008,70.6340354 L7.54451642,70.3506305 C7.86276127,70.7322327 8.19468071,71.0989189 8.53778845,71.456904 L8.20213958,71.7863 L7.70736828,72.8117783 L7.96096965,73.0616221 L7.98458938,73.0839961 L8.23819075,73.3313539 L9.28616112,72.8465824 L9.62180999,72.5209154 C9.98853746,72.8552834 10.3639669,73.1809504 10.7518279,73.4917014 L10.4646616,73.8583876 L10.1116087,74.938558 L10.3962887,75.1535976 L10.4211516,75.1722427 L10.7070747,75.3872824 L11.6816995,74.7719954 L11.9688658,74.4065523 C12.3753739,74.6936862 12.7930702,74.965904 13.2194686,75.2256919 L12.9832713,75.6246961 L12.7769094,76.7409136 L13.0889385,76.9174202 L13.1162877,76.9323362 L13.4270737,77.1088428 L14.310949,76.3754705 L14.5471464,75.9777092 C14.9872193,76.2089079 15.4372375,76.4289196 15.8947144,76.6327723 L15.7169449,77.0541506 L15.6610034,78.1865272 L15.9929228,78.3220146 L16.0227583,78.3344446 L16.3546777,78.468689 L17.134129,77.6284184 L17.3131417,77.2057971 C17.7805638,77.3773316 18.2554448,77.5351931 18.7377847,77.6793816 L18.6171997,78.121891 L18.7129218,79.2517815 L19.059759,79.3425208 L19.0908376,79.3512218 L19.4376747,79.4432041 L20.0977842,78.5097082 L20.2196123,78.0671988 C20.7056816,78.1778261 21.1992097,78.2735374 21.6964673,78.3518467 L21.6355533,78.8092721 L21.8804526,79.9192746 L22.2359918,79.9627797 L22.2695567,79.9677518 L22.6238527,80.0137429 L23.1546752,79.0056667 L23.2168324,78.5469983 C23.71409,78.5942324 24.2138339,78.6265505 24.7185503,78.6414666 L24.7185503,79.10635 L25.1101407,80.1740904 L25.4681661,80.1740904 L25.5004879,80.1740904 L25.8597565,80.1740904 L26.25259,79.10635 L26.25259,78.6414666 C26.7560633,78.6265505 27.2582934,78.5942324 27.7530647,78.5469983 L27.8152219,79.0056667 L28.3460444,80.0137429 L28.7015836,79.9677518 L28.7339053,79.9627797 L29.0894445,79.9192746 L29.335587,78.8092721 L29.2734298,78.3518467 C29.7731737,78.2735374 30.2642156,78.1778261 30.751528,78.0671988 L30.872113,78.5097082 L31.5334655,79.4432041 L31.8790596,79.3512218 L31.9101382,79.3425208 L32.2582185,79.2517815 L32.3539406,78.121891 L32.2321124,77.6793816 C32.7156955,77.5351931 33.1893333,77.3773316 33.6592417,77.2057971 L33.8357682,77.6284184 L34.6164626,78.468689 L34.9458957,78.3344446 L34.9782175,78.3220146 L35.3101369,78.1865272 L35.2541954,77.0541506 L35.0751827,76.6327723 C35.5326597,76.4289196 35.9826778,76.2089079 36.4239939,75.9777092 L36.657705,76.3754705 L37.5428235,77.1088428 L37.8536095,76.9323362 L37.8822018,76.9174202 L38.1929878,76.7409136 L37.987869,75.6246961 L37.7516717,75.2256919 C38.1768269,74.965904 38.5957664,74.6936862 39.0010313,74.4065523 L39.2894407,74.7719954 L40.2640656,75.3872824 L40.5487456,75.1722427 L40.5748516,75.1535976 L40.8595316,74.938558 L40.5064787,73.8583876 L40.2180693,73.4917014 C40.6046871,73.1809504 40.9826028,72.8552834 41.3480872,72.5209154 L41.683736,72.8465824 L42.7304632,73.3313539 L42.9853078,73.0839961 L43.0089275,73.0616221 L43.263772,72.8117783 L42.7677576,71.7863 L42.4321087,71.456904 C42.7752164,71.0989189 43.1071359,70.7322327 43.4266239,70.3506305 L43.8008102,70.6340354 L44.9034789,70.9795905 L45.1235154,70.6999146 L45.1434057,70.6762976 L45.362199,70.3966217 L44.7356545,69.4432377 L44.3589818,69.1623188 C44.6523638,68.7608285 44.9308281,68.3531233 45.1968609,67.935474 L45.6046121,68.1679157 L46.7445751,68.3692823 L46.924831,68.0659894 L46.942235,68.0374003 L47.1187614,67.7341073 L46.3728751,66.8677336 L45.9651238,66.6377779 C46.2025643,66.2052125 46.423844,65.7639461 46.6326922,65.3164647 L47.0653063,65.4917283 L48.2226733,65.5451774 L48.3594191,65.2219964 L48.3718506,65.1921643 L48.5085964,64.8664973 L47.6520702,64.1045359 L47.2194561,63.9292724 C47.3947394,63.4706039 47.5563481,63.0044775 47.7030391,62.532136 L48.1543004,62.6539504 L49.3104243,62.5582391 L49.4036601,62.217656 L49.4098758,62.1878239 L49.5055979,61.8484838 L48.5508633,61.2021218 L48.099602,61.0827934 C48.2139713,60.6067229 48.3084502,60.1244374 48.3917409,59.6371799 L48.8579199,59.6968441 L49.990424,59.4569443 L50.0376635,59.1089032 L50.0401498,59.0765851 L50.0886324,58.729787 L49.0593092,58.2089684 L48.5894008,58.1493042 C48.6366402,57.6632897 48.6702051,57.1723031 48.686366,56.6788306 L49.161247,56.6788306 L50.2502411,56.2959854 L50.2502411,55.9454583 L50.2502411,55.9118972 L50.2502411,55.5601271 L49.161247,55.1772819 Z" id="Fill-3"></path>
                </g>
                <polygon id="Fill-6" fill="#C3DAE9" fill-rule="evenodd" points="14.7255375 69.6304193 66.0524656 69.6304193 51.4703869 101.279987 39.3161683 76.3685297 28.096794 102.029635"></polygon>
                <path d="M35.7544366,16.8067973 C35.7544366,17.3210903 35.3379833,17.7394982 34.8233217,17.7394982 C34.3099033,17.7394982 33.89345,17.3210903 33.89345,16.8067973 C33.89345,16.2925042 34.3099033,15.8740963 34.8233217,15.8740963 C35.3379833,15.8740963 35.7544366,16.2925042 35.7544366,16.8067973 L35.7544366,16.8067973 Z M29.9501974,16.8067973 C29.9501974,17.3210903 29.5337442,17.7394982 29.0203257,17.7394982 C28.5056641,17.7394982 28.0892109,17.3210903 28.0892109,16.8067973 C28.0892109,16.2925042 28.5056641,15.8740963 29.0203257,15.8740963 C29.5337442,15.8740963 29.9501974,16.2925042 29.9501974,16.8067973 L29.9501974,16.8067973 Z M35.7544366,6.01287 C35.7544366,6.52840829 35.3379833,6.94557091 34.8233217,6.94557091 C34.3099033,6.94557091 33.89345,6.52840829 33.89345,6.01287 C33.89345,5.49857697 34.3099033,5.08141435 34.8233217,5.08141435 C35.3379833,5.08141435 35.7544366,5.49857697 35.7544366,6.01287 L35.7544366,6.01287 Z M29.9501974,6.01287 C29.9501974,6.52840829 29.5337442,6.94557091 29.0203257,6.94557091 C28.5056641,6.94557091 28.0892109,6.52840829 28.0892109,6.01287 C28.0892109,5.49857697 28.5056641,5.08141435 29.0203257,5.08141435 C29.5337442,5.08141435 29.9501974,5.49857697 29.9501974,6.01287 L29.9501974,6.01287 Z M26.7540742,67.1477414 L37.2561545,67.1477414 L37.2561545,2.60209857 L26.7540742,2.60209857 L26.7540742,67.1477414 Z M64.3131829,17.0172465 C63.3509895,12.097218 60.1014111,9.00274302 54.8304807,8.1709083 C50.8984164,7.55076804 47.7395875,5.67291359 44.8405758,3.24340828 C42.9485107,1.6581903 40.8165188,0.561114862 38.1002492,0.745413574 C38.0965198,0.761601974 26.7540742,0.745413574 26.7540742,0.745413574 C26.7540742,0.745413574 25.2747329,0.683150495 24.7712596,0.745413574 L24.4157204,0.810167175 C22.5795968,1.12148257 21.0244237,2.05293822 19.6035102,3.24340828 C16.7044984,5.67291359 13.5469127,7.55076804 9.61360524,8.1709083 C4.34267482,9.00274302 1.09309649,12.097218 0.13090306,17.0172465 C0.0351809743,17.505389 0.04636927,18.0109652 0.00037294319,18.5987287 C0.603297767,18.6398223 1.07569247,18.7008401 1.54933033,18.7020854 C9.17228913,18.7083117 16.7940048,18.7083117 24.4157204,18.7033306 L24.4157204,68.9907285 L39.5945083,68.9907285 L39.5945083,18.7033306 L39.600724,18.7033306 C47.3654012,18.7083117 55.1300784,18.7083117 62.8947556,18.7020854 C63.3683935,18.7008401 63.8407882,18.6398223 64.4449562,18.5987287 C64.3989598,18.0109652 64.4101481,17.505389 64.3131829,17.0172465 L64.3131829,17.0172465 Z" id="Fill-8" fill="#412463" fill-rule="evenodd"></path>
                <path d="M127.252671,88.0624592 L127.252671,70.1773709 L145.158616,70.1561756 L127.252671,88.0624592 Z M112.649752,93.1792526 C115.68709,92.8114519 118.144402,91.5347471 120.021688,89.350385 C120.858671,88.3741547 121.49857,87.3106496 121.96259,86.1685973 L121.96259,105.273038 L112.649752,93.1792526 Z M106.62622,89.3765674 L104.937286,89.3765674 L104.937286,74.3403761 L106.344315,74.3403761 C114.035577,74.3403761 117.881207,76.8202256 117.881207,81.7761842 C117.881207,83.355857 117.564376,84.6774459 116.924477,85.7421978 C116.287073,86.8081964 115.387722,87.5861884 114.226424,88.0836545 C113.060136,88.5786269 111.888859,88.9189984 110.707603,89.1022754 C109.5251,89.2867991 108.164223,89.3765674 106.62622,89.3765674 L106.62622,89.3765674 Z M103.529009,33.3923138 L105.084475,33.3923138 C107.473182,33.3923138 109.63362,33.6666059 111.568286,34.2189303 C113.501704,34.7687612 115.267975,35.6415086 116.869593,36.834679 C118.473706,38.0278494 119.72232,39.6885631 120.619177,41.8180668 C121.514786,43.9475705 121.96259,46.4797848 121.96259,49.4147097 L121.96259,49.424684 C121.96259,52.3234522 121.514786,54.8382116 120.619177,56.9639749 C119.72232,59.0947254 118.481191,60.7654133 116.89454,61.9772855 C115.30789,63.1891576 113.537877,64.0706325 111.590738,64.6217102 C109.642352,65.1727878 107.473182,65.4470799 105.084475,65.4470799 L103.529009,65.4470799 L103.529009,33.3923138 Z M121.96259,77.1244404 C121.78297,76.6855731 121.578401,76.2541865 121.343897,75.8290339 C120.349745,74.0299274 118.988869,72.6335315 117.263761,71.6435866 C116.212231,71.0538587 114.98607,70.6137446 113.577793,70.3195041 C112.431463,70.0813687 111.428581,69.9255209 110.555424,69.8444801 C114.573192,69.1674775 117.982244,67.4818282 120.783829,64.7862854 C121.201697,64.3848216 121.590875,63.9596689 121.96259,63.5183081 L121.96259,70.1836048 L121.96259,77.1244404 Z M76.8540779,55.0376967 L84.567792,38.2385556 L92.1081221,55.0376967 L76.8540779,55.0376967 Z M50.4398463,48.3175415 L48.7521596,48.3175415 L48.7521596,33.2813502 L50.1591889,33.2813502 C57.849203,33.2813502 61.696081,35.7599529 61.696081,40.7171583 C61.696081,42.2955843 61.3780026,43.6184201 60.739351,44.6831719 C60.1006994,45.7479238 59.2001008,46.5271625 58.0375553,47.0233818 C56.8750098,47.519601 55.7024853,47.8599725 54.5212293,48.0432495 C53.3387259,48.2265264 51.9778492,48.3175415 50.4398463,48.3175415 L50.4398463,48.3175415 Z M150.810434,70.1486949 L150.844113,70.1474481 L155.435669,65.5730049 L127.325019,65.4470799 L127.325019,49.7500941 L141.407786,49.7500941 L141.407786,45.0123224 L127.325019,45.0123224 L127.325019,33.391067 L148.959342,33.391067 L148.959342,28.6557889 L121.96259,28.6557889 L121.96259,35.2587465 C121.578401,34.809905 121.17176,34.3785184 120.736429,33.9695739 C116.96564,30.4262194 112.201948,28.6557889 106.451589,28.6557889 L99.0983635,28.6557889 L99.0983635,58.0025444 L84.567792,26.8928391 L66.6780626,65.9507798 L56.4633788,52.1189799 C59.5007161,51.7511792 61.958028,50.4757212 63.8340671,48.2901123 C65.7101062,46.1057502 66.6493731,43.5087032 66.6493731,40.4977246 C66.6493731,38.4779377 66.1516739,36.5678677 65.1575229,34.7687612 C64.1621245,32.9696547 62.8024951,31.5732588 61.0773873,30.5833139 C60.0271047,29.9948328 58.7996962,29.5547187 57.3914195,29.2604782 C55.9856375,28.9674844 54.7844236,28.7929349 53.7890252,28.7368297 C52.7948742,28.6832181 51.4913762,28.6545421 49.8785314,28.6545421 L43.4620785,28.6545421 L43.4620785,69.7160616 L48.7521596,69.7160616 L48.7521596,52.6139524 L50.9475245,52.6139524 L64.3928873,70.8855431 L51.2244398,99.4568002 L39.2384958,68.8333399 L27.250057,99.4568002 L14.3872143,69.7160616 L9.6347482,69.7160616 L28.216766,111.949556 L39.2384958,82.4382254 L48.1247342,106.236801 L32.7833745,139.639338 L38.1445554,139.639338 L74.6300236,59.7742216 L94.303487,59.7742216 L99.5586418,69.7634393 L99.5586418,70.1836048 L99.6484521,70.1836048 L99.6484521,111.243877 L104.937286,111.243877 L104.937286,93.6742251 L107.132651,93.6742251 L121.468633,111.501961 L121.96259,111.501961 L121.96259,111.580509 L127.252671,111.580509 L127.252671,94.2315367 L129.390657,92.2491532 L145.375658,111.580509 L152.523068,111.580509 L133.106562,88.7232536 L150.810434,70.1486949 Z" id="Fill-11" fill="#000000" fill-rule="evenodd"></path>
                <polygon id="Fill-13" fill="#C3DAE9" fill-rule="evenodd" points="127.252671 70.1769969 127.252671 88.0620851 145.158616 70.1558016"></polygon>
                <path d="M170.840519,98.2833289 C170.840519,101.958842 169.535774,104.994757 166.928778,107.391072 C164.320535,109.788634 161.104824,110.986791 157.277904,110.986791 C153.861367,110.986791 150.466036,109.668942 148.213292,107.336213 C145.99298,105.038394 146.911042,105.962259 144.559756,103.2343 C144.559756,103.2343 146.579242,101.635926 148.106019,100.492627 C149.176259,101.669589 150.310115,102.902656 151.024856,103.554723 C152.857237,105.224164 155.400618,106.229071 157.726956,106.229071 C159.978452,106.229071 161.843265,105.446092 163.327631,103.87764 C164.81075,102.309188 165.550438,100.444002 165.550438,98.2833289 C165.550438,96.3009455 164.903055,94.7424679 163.608289,93.6066495 C162.313522,92.4708311 160.521057,91.4547037 158.234634,90.5520335 L155.307065,89.3626035 C152.418164,88.1731734 150.157936,86.8042067 148.525134,85.2557035 C146.893578,83.7047066 146.077801,81.6325549 146.077801,79.0380015 C146.077801,75.866188 147.315188,73.3165187 149.791211,71.3877469 C152.26848,69.4602219 155.194802,68.4952126 158.571423,68.4952126 C163.447378,68.4952126 166.671821,70.4938042 169.073001,74.6031978 L165.495554,76.918472 C163.950067,74.5408587 162.479422,73.4262355 158.45916,73.2529328 C156.660458,73.1756323 155.026408,73.7940362 153.561999,74.8737495 C152.098839,75.9559563 151.367882,77.3423779 151.367882,79.0380015 C151.367882,81.4891749 153.337473,83.4354017 157.277904,84.8754349 L160.315241,86.0100066 C163.691862,87.2729968 166.291374,88.8414486 168.111281,90.7141152 C169.928694,92.5867818 170.840519,95.1115154 170.840519,98.2833289" id="Fill-15" fill="#000000" fill-rule="evenodd"></path>
                <text id="JOBS-TO-THE-TRADE" font-family="Avenir-Medium, Avenir" font-size="13.0164044" font-weight="400" letter-spacing="-0.325410123" fill="#410166">
                    <tspan x="50.5652845" y="128.20266">JOBS TO THE TRAD</tspan>
                    <tspan x="166.359218" y="128.20266">E</tspan>
                </text>
            </g>
        </g>
    </g>
</svg>