<?xml version="1.0" encoding="UTF-8"?>
<svg width="44px" height="44px" viewBox="0 0 44 44" version="1.1" xmlns="http://www.w3.org/2000/svg" xmlns:xlink="http://www.w3.org/1999/xlink">
    <!-- Generator: Sketch 61.2 (89653) - https://sketch.com -->
    <title>Icon / Business Skills</title>
    <desc>Created with Sketch.</desc>
    <defs>
        <circle id="path-1" cx="19" cy="19" r="19"></circle>
        <filter x="-10.5%" y="-10.5%" width="121.1%" height="121.1%" filterUnits="objectBoundingBox" id="filter-2">
            <feMorphology radius="2" operator="dilate" in="SourceAlpha" result="shadowSpreadOuter1"></feMorphology>
            <feOffset dx="0" dy="0" in="shadowSpreadOuter1" result="shadowOffsetOuter1"></feOffset>
            <feComposite in="shadowOffsetOuter1" in2="SourceAlpha" operator="out" result="shadowOffsetOuter1"></feComposite>
            <feColorMatrix values="0 0 0 0 0.72819643   0 0 0 0 0.785183723   0 0 0 0 0.888077446  0 0 0 1 0" type="matrix" in="shadowOffsetOuter1"></feColorMatrix>
        </filter>
    </defs>
    <g id="L-Pack" stroke="none" stroke-width="1" fill="none" fill-rule="evenodd">
        <g id="77---Skills-Dashboard-Copy-2" transform="translate(-74.000000, -432.000000)">
            <g id="Icon-/-Business-Skills" transform="translate(77.000000, 435.000000)">
                <g id="Oval-Copy-8">
                    <use fill="black" fill-opacity="1" filter="url(#filter-2)" xlink:href="#path-1"></use>
                    <use stroke="#99B6EB" stroke-width="2" fill="#000000" fill-rule="evenodd" xlink:href="#path-1"></use>
                </g>
                <polygon id="Path" fill="#FFFFFF" fill-rule="evenodd" points="19.152 23.6103 19.152 29.1173 15.389 29.1173 15.389 21.0413"></polygon>
                <polygon id="Path" fill="#FFFFFF" fill-rule="evenodd" points="24.292 19.2063 24.292 29.1173 20.529 29.1173 20.529 23.1523"></polygon>
                <path d="M29.522,17.0033 L29.522,29.1173 L25.759,29.1173 L25.759,17.7373 L27.687,15.7183 C28.145,16.3603 28.788,16.8193 29.522,17.0033 L29.522,17.0033 Z" id="Path" fill="#FFFFFF" fill-rule="evenodd"></path>
                <path d="M8.782,23.7023 L8.782,29.1173 L5.019,29.1173 L5.019,25.1713 C5.753,25.3543 6.579,25.2623 7.405,24.7123 L8.782,23.7023 Z" id="Path" fill="#FFFFFF" fill-rule="evenodd"></path>
                <path d="M24.658,10.3033 C22.456,10.3033 22.456,7.0003 24.658,7.0003 L32,7.0003 L32,14.1583 C32,16.3603 28.696,16.3603 28.696,14.1583 L28.696,12.7813 L19.519,22.3263 L14.013,18.4713 L6.579,23.6103 C4.836,24.8033 2.908,22.1423 4.744,20.8573 L14.013,14.4333 L19.152,17.9213 L26.402,10.3033 L24.658,10.3033 Z" id="Path" fill="#FFFFFF" fill-rule="evenodd"></path>
                <polygon id="Path" fill="#FFFFFF" fill-rule="evenodd" points="13.921 20.0313 13.921 29.1173 10.158 29.1173 10.158 22.6933"></polygon>
            </g>
        </g>
    </g>
</svg>