<?xml version="1.0" encoding="UTF-8"?>
<svg width="44px" height="44px" viewBox="0 0 44 44" version="1.1" xmlns="http://www.w3.org/2000/svg" xmlns:xlink="http://www.w3.org/1999/xlink">
    <!-- Generator: Sketch 61.2 (89653) - https://sketch.com -->
    <title>Icon / Clientele Experience</title>
    <desc>Created with Sketch.</desc>
    <defs>
        <circle id="path-1" cx="19" cy="19" r="19"></circle>
        <filter x="-10.5%" y="-10.5%" width="121.1%" height="121.1%" filterUnits="objectBoundingBox" id="filter-2">
            <feMorphology radius="2" operator="dilate" in="SourceAlpha" result="shadowSpreadOuter1"></feMorphology>
            <feOffset dx="0" dy="0" in="shadowSpreadOuter1" result="shadowOffsetOuter1"></feOffset>
            <feComposite in="shadowOffsetOuter1" in2="SourceAlpha" operator="out" result="shadowOffsetOuter1"></feComposite>
            <feColorMatrix values="0 0 0 0 0.72819643   0 0 0 0 0.785183723   0 0 0 0 0.888077446  0 0 0 1 0" type="matrix" in="shadowOffsetOuter1"></feColorMatrix>
        </filter>
    </defs>
    <g id="L-Pack" stroke="none" stroke-width="1" fill="none" fill-rule="evenodd">
        <g id="77---Skills-Dashboard-Copy-2" transform="translate(-442.000000, -1287.000000)">
            <g id="Icon-/-Clientele-Experience" transform="translate(445.000000, 1290.000000)">
                <g id="Group-17">
                    <g id="Oval-Copy-8">
                        <use fill="black" fill-opacity="1" filter="url(#filter-2)" xlink:href="#path-1"></use>
                        <use stroke="#99B6EB" stroke-width="2" fill="#000000" fill-rule="evenodd" xlink:href="#path-1"></use>
                    </g>
                    <path d="M31.80592,21.368176 L37,16.172656 L27.8272,6.999856 L22.63168,12.195376 L23.09248,12.656176 L18.39376,14.469136 L14.65408,12.961456 L15.36832,12.247216 L10.17424,7.051696 L1,16.225936 L6.19552,21.421456 L6.87808,20.738896 L9.4096,24.750736 C9.25552,25.067536 9.172,25.416016 9.172,25.776016 C9.172,26.398096 9.41392,26.982736 9.85312,27.421936 C10.26928,27.838096 10.81792,28.077136 11.404,28.098736 C11.4256,28.663216 11.65168,29.220496 12.0808,29.646736 C12.49696,30.064336 13.04416,30.303376 13.63024,30.326416 C13.65328,30.912496 13.89232,31.459696 14.30848,31.875856 C14.72464,32.292016 15.27184,32.529616 15.85648,32.555536 C15.87952,33.138736 16.11856,33.685936 16.53616,34.103536 C16.97536,34.544176 17.55856,34.784656 18.18064,34.784656 C18.24112,34.784656 18.30304,34.780336 18.36352,34.776016 C18.68608,34.940176 19.04608,35.029456 19.41904,35.029456 C20.03968,35.029456 20.62432,34.787536 21.06352,34.348336 C21.4912,33.919216 21.71872,33.363376 21.73888,32.800336 C22.32784,32.775856 22.8736,32.536816 23.28976,32.120656 C23.70736,31.705936 23.9464,31.158736 23.96944,30.572656 C24.55264,30.549616 25.0984,30.310576 25.516,29.894416 C25.93216,29.478256 26.1712,28.931056 26.19424,28.346416 C26.78032,28.323376 27.32464,28.084336 27.74224,27.666736 C28.48528,26.926576 28.6192,25.803376 28.14544,24.923536 L31.26736,20.829616 L31.80592,21.368176 Z" id="Path" fill="#FFFFFF"></path>
                    <path d="M5.94784,16.411696 C5.65408,16.704016 5.65408,17.179216 5.94784,17.471536 C6.24016,17.763856 6.71536,17.763856 7.00768,17.471536 C7.30144,17.179216 7.30144,16.704016 7.00768,16.411696 C6.71536,16.117936 6.24016,16.117936 5.94784,16.411696 L5.94784,16.411696 Z" id="Path" fill="#000000"></path>
                    <polygon id="Path" fill="#000000" points="27.8272 9.120976 34.87888 16.172656 31.80592 19.248496 24.7528 12.195376"></polygon>
                    <path d="M27.13312,23.775856 L22.69072,19.352176 L20.4328,17.978416 L18.29872,18.524176 L16.8688,19.853296 L16.84864,19.872016 C16.69168,20.028976 16.48288,20.115376 16.26112,20.115376 C16.03792,20.115376 15.82912,20.028976 15.67072,19.872016 C15.34672,19.548016 15.34672,19.019536 15.67072,18.694096 L18.22384,16.142416 L24.25024,13.816816 L30.196,19.759696 L27.13312,23.775856 Z" id="Path" fill="#000000"></path>
                    <path d="M26.68096,26.608336 C26.52688,26.763856 26.31952,26.848816 26.0992,26.848816 C25.88752,26.848816 25.68736,26.768176 25.53184,26.624176 L23.4856,24.579376 C23.19184,24.285616 22.71808,24.285616 22.42576,24.579376 C22.13344,24.870256 22.13344,25.345456 22.42576,25.637776 L24.47344,27.685456 C24.77728,28.006576 24.76864,28.522096 24.45616,28.834576 C24.30064,28.990096 24.09328,29.076496 23.8744,29.076496 C23.66128,29.076496 23.46112,28.994416 23.30704,28.850416 L21.25936,26.804176 C20.96704,26.511856 20.49184,26.511856 20.19952,26.804176 C19.9072,27.096496 19.9072,27.571696 20.19952,27.864016 L22.2472,29.911696 C22.55104,30.232816 22.54384,30.746896 22.22992,31.060816 C22.0744,31.216336 21.86704,31.302736 21.64672,31.302736 C21.49552,31.302736 21.3544,31.262416 21.22768,31.188976 C21.13552,30.755536 20.92096,30.359536 20.59984,30.038416 C20.18512,29.622256 19.63648,29.383216 19.0504,29.360176 C19.02736,28.798576 18.80272,28.241296 18.37216,27.810736 C17.956,27.394576 17.4088,27.155536 16.82416,27.131056 C16.80112,26.547856 16.56208,26.000656 16.14592,25.583056 C15.72832,25.166896 15.18112,24.927856 14.59504,24.904816 C14.572,24.341776 14.34736,23.785936 13.91824,23.355376 C13.47904,22.917616 12.8944,22.677136 12.2752,22.677136 C11.65312,22.677136 11.06992,22.917616 10.62928,23.355376 L10.42912,23.556976 L7.96528,19.651696 L8.75872,18.858256 L13.50208,14.114896 L16.80112,15.444016 L14.61232,17.634256 C13.70224,18.542896 13.70224,20.023216 14.61232,20.931856 C15.05152,21.372496 15.6376,21.615856 16.26112,21.615856 C16.87888,21.615856 17.4592,21.376816 17.8984,20.941936 L19.04032,19.883536 L20.19376,19.588336 L21.30544,20.263696 L21.76048,20.540176 L26.52688,25.284976 L26.6824,25.441936 C27.00496,25.763056 27.00496,26.285776 26.68096,26.608336 L26.68096,26.608336 Z" id="Path" fill="#000000"></path>
                    <path d="M18.9568,30.856336 C19.17712,30.856336 19.38448,30.942736 19.54,31.098256 C19.69552,31.255216 19.78192,31.462576 19.78192,31.681456 C19.78192,31.903216 19.69552,32.110576 19.54,32.267536 L18.76384,33.042256 C18.60832,33.197776 18.40096,33.284176 18.18064,33.284176 C17.95888,33.284176 17.75152,33.197776 17.596,33.042256 C17.44048,32.885296 17.35408,32.680816 17.35408,32.460496 C17.35408,32.237296 17.44048,32.032816 17.596,31.875856 L18.3736,31.098256 C18.52912,30.942736 18.73648,30.856336 18.9568,30.856336 L18.9568,30.856336 Z" id="Path" fill="#000000"></path>
                    <path d="M16.72912,28.630096 C16.94944,28.630096 17.1568,28.716496 17.31232,28.872016 C17.63488,29.193136 17.63488,29.717296 17.31376,30.038416 L16.53616,30.816016 C16.38064,30.971536 16.17328,31.057936 15.95296,31.057936 C15.7312,31.057936 15.52384,30.970096 15.36832,30.816016 C15.2128,30.660496 15.1264,30.451696 15.1264,30.232816 C15.1264,30.011056 15.2128,29.803696 15.36832,29.646736 L16.14592,28.872016 C16.30144,28.716496 16.5088,28.630096 16.72912,28.630096 L16.72912,28.630096 Z" id="Path" fill="#000000"></path>
                    <path d="M14.50144,26.402416 C14.72176,26.402416 14.92912,26.487376 15.08464,26.642896 C15.2416,26.799856 15.32656,27.005776 15.32656,27.227536 C15.32656,27.447856 15.2416,27.655216 15.08464,27.810736 L14.30848,28.588336 C14.15296,28.742416 13.9456,28.830256 13.72528,28.830256 C13.50352,28.830256 13.2976,28.742416 13.14064,28.588336 C12.81952,28.265776 12.81952,27.743056 13.14208,27.421936 L13.91824,26.642896 C14.07376,26.487376 14.28112,26.402416 14.50144,26.402416 L14.50144,26.402416 Z" id="Path" fill="#000000"></path>
                    <path d="M10.67104,25.776016 C10.67104,25.557136 10.75744,25.348336 10.9144,25.194256 L11.69056,24.416656 C11.84608,24.259696 12.05344,24.174736 12.27376,24.174736 C12.49408,24.174736 12.70144,24.259696 12.85696,24.416656 C13.17952,24.737776 13.17952,25.261936 12.85696,25.583056 L12.0808,26.360656 C11.92528,26.517616 11.71792,26.602576 11.4976,26.602576 C11.27728,26.602576 11.06992,26.517616 10.91296,26.360656 C10.75744,26.205136 10.67104,25.996336 10.67104,25.776016 L10.67104,25.776016 Z" id="Path" fill="#000000"></path>
                    <polygon id="Path" fill="#000000" points="3.12112 16.225936 10.17424 9.172816 13.24864 12.247216 6.19552 19.300336"></polygon>
                </g>
            </g>
        </g>
    </g>
</svg>