<?xml version="1.0" encoding="UTF-8"?>
<svg width="44px" height="44px" viewBox="0 0 44 44" version="1.1" xmlns="http://www.w3.org/2000/svg" xmlns:xlink="http://www.w3.org/1999/xlink">
    <!-- Generator: Sketch 61.2 (89653) - https://sketch.com -->
    <title>Icon / Languages</title>
    <desc>Created with Sketch.</desc>
    <defs>
        <circle id="path-1" cx="19" cy="19" r="19"></circle>
        <filter x="-10.5%" y="-10.5%" width="121.1%" height="121.1%" filterUnits="objectBoundingBox" id="filter-2">
            <feMorphology radius="2" operator="dilate" in="SourceAlpha" result="shadowSpreadOuter1"></feMorphology>
            <feOffset dx="0" dy="0" in="shadowSpreadOuter1" result="shadowOffsetOuter1"></feOffset>
            <feComposite in="shadowOffsetOuter1" in2="SourceAlpha" operator="out" result="shadowOffsetOuter1"></feComposite>
            <feColorMatrix values="0 0 0 0 0.72819643   0 0 0 0 0.785183723   0 0 0 0 0.888077446  0 0 0 1 0" type="matrix" in="shadowOffsetOuter1"></feColorMatrix>
        </filter>
    </defs>
    <g id="L-Pack" stroke="none" stroke-width="1" fill="none" fill-rule="evenodd">
        <g id="77---Skills-Dashboard-Copy-2" transform="translate(-442.000000, -1232.000000)">
            <g id="Icon-/-Languages" transform="translate(445.000000, 1235.000000)">
                <g id="Oval-Copy-8">
                    <use fill="black" fill-opacity="1" filter="url(#filter-2)" xlink:href="#path-1"></use>
                    <use stroke="#99B6EB" stroke-width="2" fill="#000000" fill-rule="evenodd" xlink:href="#path-1"></use>
                </g>
                <path d="M14.9644,19.5832 C15.0064,20.4192 15.1314,21.2082 15.3244,21.9332 C14.9854,22.0632 14.6604,22.2062 14.3614,22.3692 C13.8014,21.5612 13.4324,20.6112 13.3254,19.5832 L14.9644,19.5832 Z M15.3464,15.9082 C15.1404,16.6532 15.0074,17.4682 14.9644,18.3332 L13.3254,18.3332 C13.4364,17.2692 13.8304,16.2892 14.4244,15.4632 C14.7104,15.6282 15.0214,15.7742 15.3464,15.9082 L15.3464,15.9082 Z M15.7584,14.7262 C15.5944,14.6572 15.4374,14.5832 15.2864,14.5042 C15.5764,14.2432 15.8914,14.0102 16.2284,13.8092 C16.0554,14.0902 15.9004,14.3992 15.7584,14.7262 L15.7584,14.7262 Z M22.8884,14.8692 C22.7314,14.4862 22.5524,14.1312 22.3554,13.8092 C22.7514,14.0452 23.1184,14.3232 23.4474,14.6412 C23.2684,14.7232 23.0824,14.7982 22.8884,14.8692 L22.8884,14.8692 Z M23.6194,18.3332 C23.5794,17.5252 23.4634,16.7592 23.2794,16.0542 C23.6314,15.9292 23.9684,15.7902 24.2804,15.6302 C24.8084,16.4192 25.1554,17.3402 25.2584,18.3332 L23.6194,18.3332 Z M23.2594,21.9332 C23.4534,21.2082 23.5774,20.4192 23.6194,19.5832 L25.2584,19.5832 C25.1514,20.6112 24.7824,21.5612 24.2214,22.3692 C23.9224,22.2062 23.5984,22.0632 23.2594,21.9332 L23.2594,21.9332 Z M22.8584,23.1152 C23.0374,23.1852 23.2094,23.2612 23.3754,23.3412 C23.0634,23.6312 22.7224,23.8882 22.3554,24.1072 C22.5414,23.8042 22.7094,23.4712 22.8584,23.1152 L22.8584,23.1152 Z M16.2284,24.1072 C15.8614,23.8882 15.5204,23.6312 15.2094,23.3412 C15.3744,23.2612 15.5464,23.1852 15.7254,23.1152 C15.8754,23.4712 16.0424,23.8042 16.2284,24.1072 L16.2284,24.1072 Z M18.6674,22.5052 L18.6674,24.7802 C17.9804,24.4972 17.3704,23.7602 16.9284,22.7492 C17.4794,22.6242 18.0624,22.5392 18.6674,22.5052 L18.6674,22.5052 Z M18.6674,19.5832 L18.6674,21.2562 C17.9234,21.2932 17.2024,21.3982 16.5244,21.5622 C16.3634,20.9502 16.2554,20.2842 16.2144,19.5832 L18.6674,19.5832 Z M18.6674,16.6502 L18.6674,18.3332 L16.2144,18.3332 C16.2564,17.6142 16.3694,16.9322 16.5364,16.3062 C17.2064,16.4822 17.9224,16.6002 18.6674,16.6502 L18.6674,16.6502 Z M18.6674,15.3942 C18.0704,15.3482 17.4934,15.2542 16.9514,15.1192 C17.3914,14.1332 17.9924,13.4152 18.6674,13.1362 L18.6674,15.3942 Z M19.9174,15.4172 L19.9174,13.1362 C20.6124,13.4232 21.2304,14.1752 21.6744,15.2082 C21.1144,15.3242 20.5244,15.3952 19.9174,15.4172 L19.9174,15.4172 Z M19.9174,18.3332 L19.9174,16.6662 C20.6594,16.6422 21.3844,16.5512 22.0714,16.3992 C22.2244,16.9992 22.3304,17.6492 22.3694,18.3332 L19.9174,18.3332 Z M19.9174,21.2562 L19.9174,19.5832 L22.3694,19.5832 C22.3294,20.2842 22.2194,20.9502 22.0594,21.5622 C21.3814,21.3982 20.6604,21.2932 19.9174,21.2562 L19.9174,21.2562 Z M19.9174,22.5052 C20.5224,22.5392 21.1054,22.6242 21.6554,22.7492 C21.2134,23.7602 20.6034,24.4972 19.9174,24.7802 L19.9174,22.5052 Z M19.2924,26.2082 C23.2904,26.2082 26.5424,22.9562 26.5424,18.9582 C26.5424,14.9602 23.2904,11.7082 19.2924,11.7082 C15.2944,11.7082 12.0424,14.9602 12.0424,18.9582 C12.0424,22.9562 15.2944,26.2082 19.2924,26.2082 L19.2924,26.2082 Z M30.7504,27.1562 L23.9434,27.1562 C23.8274,27.1562 23.7134,27.1892 23.6134,27.2502 L17.2634,31.1882 L17.2604,27.7812 C17.2604,27.4352 16.9804,27.1562 16.6354,27.1562 L8.2504,27.1562 L8.2504,10.2502 L30.7504,10.2502 L30.7504,27.1562 Z M31.3754,9.0002 L7.6254,9.0002 C7.2794,9.0002 7.0004,9.2802 7.0004,9.6252 L7.0004,27.7812 C7.0004,28.1262 7.2794,28.4062 7.6254,28.4062 L16.0114,28.4062 L16.0134,32.3112 C16.0134,32.5382 16.1364,32.7472 16.3354,32.8572 C16.4294,32.9102 16.5344,32.9362 16.6384,32.9362 C16.7534,32.9362 16.8674,32.9042 16.9684,32.8422 L24.1214,28.4062 L31.3754,28.4062 C31.7204,28.4062 32.0004,28.1262 32.0004,27.7812 L32.0004,9.6252 C32.0004,9.2802 31.7204,9.0002 31.3754,9.0002 L31.3754,9.0002 Z" id="Fill-1" fill="#FFFFFF" fill-rule="evenodd"></path>
            </g>
        </g>
    </g>
</svg>