<svg xmlns="http://www.w3.org/2000/svg" xmlns:xlink="http://www.w3.org/1999/xlink" width="13" height="13" viewBox="0 0 13 13">
    <defs>
        <path id="a" d="M0 .107H12.21v12.209H0z"/>
    </defs>
    <g fill="none" fill-rule="evenodd">
        <g transform="translate(.684 .578)">
            <mask id="b" fill="#fff">
                <use xlink:href="#a"/>
            </mask>
            <path fill="#404041" d="M11.564.918c.408.407 1.042 1.43.307 2.164L3.015 11.94 0 12.316.376 9.3 9.233.444c.735-.735 1.756-.1 2.163.306l.168.168z" mask="url(#b)"/>
        </g>
        <path fill="#FCC010" d="M9.94 1.59c-.166-.015-.378.165-.484.27-.106.105-6.83 6.771-7.195 7.13-.363.362-.697.94-.366 1.27.451.45.878.268 1.181.179-.091.3-.27.727.215 1.21.331.33.876-.04 1.24-.4l7.194-7.132c.106-.104.287-.315.273-.48-.196-.105-.892-.381-1.283-.77-.39-.39-.67-1.083-.775-1.278"/>
    </g>
</svg>
