<?xml version="1.0" encoding="UTF-8"?>
<svg width="44px" height="44px" viewBox="0 0 44 44" version="1.1" xmlns="http://www.w3.org/2000/svg" xmlns:xlink="http://www.w3.org/1999/xlink">
    <!-- Generator: Sketch 61.2 (89653) - https://sketch.com -->
    <title>Icon / Personality Traits</title>
    <desc>Created with Sketch.</desc>
    <defs>
        <circle id="path-1" cx="19" cy="19" r="19"></circle>
        <filter x="-10.5%" y="-10.5%" width="121.1%" height="121.1%" filterUnits="objectBoundingBox" id="filter-2">
            <feMorphology radius="2" operator="dilate" in="SourceAlpha" result="shadowSpreadOuter1"></feMorphology>
            <feOffset dx="0" dy="0" in="shadowSpreadOuter1" result="shadowOffsetOuter1"></feOffset>
            <feComposite in="shadowOffsetOuter1" in2="SourceAlpha" operator="out" result="shadowOffsetOuter1"></feComposite>
            <feColorMatrix values="0 0 0 0 0.72819643   0 0 0 0 0.785183723   0 0 0 0 0.888077446  0 0 0 1 0" type="matrix" in="shadowOffsetOuter1"></feColorMatrix>
        </filter>
    </defs>
    <g id="L-Pack" stroke="none" stroke-width="1" fill="none" fill-rule="evenodd">
        <g id="77---Skills-Dashboard-Copy-2" transform="translate(-445.000000, -1344.000000)">
            <g id="Icon-/-Personality-Traits" transform="translate(448.000000, 1347.000000)">
                <g id="Oval-Copy-8">
                    <use fill="black" fill-opacity="1" filter="url(#filter-2)" xlink:href="#path-1"></use>
                    <use stroke="#99B6EB" stroke-width="2" fill="#000000" fill-rule="evenodd" xlink:href="#path-1"></use>
                </g>
                <path d="M19.0001,6.5884 C12.1561,6.5884 6.5881,12.1564 6.5881,18.9994 C6.5881,25.8434 12.1561,31.4114 19.0001,31.4114 C25.8431,31.4114 31.4121,25.8434 31.4121,18.9994 C31.4121,12.1564 25.8431,6.5884 19.0001,6.5884 L19.0001,6.5884 Z" id="Path" fill="#FFFFFF" fill-rule="evenodd"></path>
                <path d="M19.0001,31.9994 C11.8321,31.9994 6.0001,26.1684 6.0001,18.9994 C6.0001,11.8314 11.8321,5.9994 19.0001,5.9994 C26.1691,5.9994 32.0001,11.8314 32.0001,18.9994 C32.0001,26.1684 26.1691,31.9994 19.0001,31.9994 L19.0001,31.9994 Z" id="Path" fill="#FFFFFF" fill-rule="evenodd"></path>
                <path d="M18.9631,13.9394 C19.3201,13.9324 19.4161,13.9474 19.6861,13.9654 C20.0631,13.9914 20.4341,13.9124 20.7791,13.7594 C23.8151,12.4054 28.0791,13.7424 28.7961,13.9844 C28.8591,14.0054 28.9001,14.0634 28.9001,14.1684 L28.9001,14.5374 C28.9001,14.6004 28.8611,14.6524 28.8041,14.6794 C28.5501,14.8024 28.3731,15.0484 28.3401,15.3334 C28.0021,18.3684 26.8811,20.5014 24.1371,20.5164 C21.2381,20.5324 20.4661,18.5784 20.0671,17.8434 C19.6311,17.0404 19.4741,16.0104 19.6001,15.3094 C19.7261,14.6084 18.8121,14.7354 18.8121,14.7354 L18.6231,14.7354 C18.6231,14.7354 17.7101,14.6084 17.8361,15.3094 C17.9621,16.0104 17.8041,17.0404 17.3681,17.8434 C16.9691,18.5784 16.1971,20.5324 13.2981,20.5164 C10.5541,20.5014 9.4331,18.3684 9.0941,15.3334 C9.0631,15.0484 8.8851,14.8024 8.6301,14.6794 C8.5741,14.6524 8.5351,14.6004 8.5351,14.5374 L8.5351,14.1684 C8.5351,14.0634 8.5771,14.0054 8.6391,13.9844 C9.3571,13.7424 13.6201,12.4054 16.6561,13.7594 C17.0021,13.9124 17.3731,13.9914 17.7501,13.9654 C18.0201,13.9474 18.1151,13.9324 18.4731,13.9394 L18.9631,13.9394 Z" id="Path-2" fill="#000000" fill-rule="evenodd"></path>
            </g>
        </g>
    </g>
</svg>