<?xml version="1.0" encoding="UTF-8"?>
<svg width="46px" height="46px" viewBox="0 0 46 46" version="1.1" xmlns="http://www.w3.org/2000/svg" xmlns:xlink="http://www.w3.org/1999/xlink">
    <!-- Generator: Sketch 61.2 (89653) - https://sketch.com -->
    <title>Icon / Trade Expertise</title>
    <desc>Created with Sketch.</desc>
    <defs>
        <circle id="path-1" cx="19.8347107" cy="19.8347107" r="19.8347107"></circle>
        <filter x="-10.1%" y="-10.1%" width="120.2%" height="120.2%" filterUnits="objectBoundingBox" id="filter-2">
            <feMorphology radius="2" operator="dilate" in="SourceAlpha" result="shadowSpreadOuter1"></feMorphology>
            <feOffset dx="0" dy="0" in="shadowSpreadOuter1" result="shadowOffsetOuter1"></feOffset>
            <feComposite in="shadowOffsetOuter1" in2="SourceAlpha" operator="out" result="shadowOffsetOuter1"></feComposite>
            <feColorMatrix values="0 0 0 0 0.72819643   0 0 0 0 0.785183723   0 0 0 0 0.888077446  0 0 0 1 0" type="matrix" in="shadowOffsetOuter1"></feColorMatrix>
        </filter>
    </defs>
    <g id="L-Pack" stroke="none" stroke-width="1" fill="none" fill-rule="evenodd">
        <g id="77---Skills-Dashboard-Copy-2" transform="translate(-929.000000, -431.000000)">
            <g id="Icon-/-Trade-Expertise" transform="translate(932.000000, 434.000000)">
                <g id="Group-7">
                    <g id="Oval">
                        <use fill="black" fill-opacity="1" filter="url(#filter-2)" xlink:href="#path-1"></use>
                        <use stroke="#99B6EB" stroke-width="2" fill="#000000" fill-rule="evenodd" xlink:href="#path-1"></use>
                    </g>
                    <path d="M20,14.7812 L21.503,17.8262 L24.864,18.3152 L22.432,20.6862 L23.006,24.0332 L20,22.4532 L16.994,24.0332 L17.568,20.6862 L15.136,18.3152 L18.497,17.8262 L20,14.7812 Z M19.971,27.9762 C15.567,27.9762 11.994,24.4032 11.994,20.0002 C11.994,15.5962 15.567,12.0232 19.971,12.0232 C24.374,12.0232 27.947,15.5962 27.947,20.0002 C27.947,24.4032 24.374,27.9762 19.971,27.9762 L19.971,27.9762 Z M35,21.8452 L35,18.0952 L30.518,16.2282 C30.394,15.8762 30.262,15.5352 30.101,15.2022 L31.909,10.6982 L29.258,8.0462 L24.793,9.8852 C24.453,9.7192 24.104,9.5812 23.746,9.4532 L21.846,5.0002 L18.096,5.0002 L16.243,9.4382 C15.869,9.5702 15.51,9.7092 15.155,9.8782 L10.698,8.0872 L8.047,10.7392 L9.863,15.1552 C9.687,15.5172 9.545,15.8872 9.409,16.2682 L5,18.1542 L5,21.9042 L9.413,23.7432 C9.548,24.1242 9.695,24.4942 9.871,24.8562 L8.087,29.3022 L10.739,31.9532 L15.166,30.1302 C15.521,30.2982 15.884,30.4332 16.257,30.5612 L18.154,35.0002 L21.904,35.0002 L23.761,30.5402 C24.116,30.4082 24.468,30.2682 24.805,30.1072 L29.302,31.9092 L31.953,29.2582 L30.107,24.7832 C30.265,24.4462 30.394,24.1052 30.518,23.7582 L35,21.8452 Z" id="Fill-1" fill="#FFFFFF"></path>
                </g>
            </g>
        </g>
    </g>
</svg>