<?xml version="1.0" encoding="utf-8"?>
<!-- Generator: Adobe Illustrator 23.1.1, SVG Export Plug-In . SVG Version: 6.00 Build 0)  -->
<svg version="1.1" id="Layer_1" xmlns="http://www.w3.org/2000/svg" xmlns:xlink="http://www.w3.org/1999/xlink" x="0px" y="0px"
	 viewBox="0 0 298.4 192.5" style="enable-background:new 0 0 298.4 192.5;" xml:space="preserve">
<style type="text/css">
	.st0{fill:#C8DBF1;stroke:#A8B9C9;stroke-width:0.4253;stroke-miterlimit:10;}
	.st1{fill:url(#SVGID_1_);stroke:#CEA449;stroke-width:0.4253;stroke-miterlimit:10;}
	.st2{fill:#432063;}
	.st3{fill:url(#SVGID_2_);}
	.st4{fill:url(#SVGID_3_);}
	.st5{fill:url(#SVGID_4_);}
	.st6{fill:url(#SVGID_5_);stroke:#939598;stroke-width:0.2127;stroke-miterlimit:10;}
	.st7{fill:url(#SVGID_6_);}
	.st8{fill:#231F20;}
	.st9{fill:#99C05C;}
	.st10{fill-rule:evenodd;clip-rule:evenodd;fill:#231F20;}
	.st11{fill-rule:evenodd;clip-rule:evenodd;fill:#FFFFFF;}
	.st12{fill:#FFFFFF;}
	.st13{fill:#A8B9C9;}
	.st14{fill:#30459C;}
	.st15{fill:url(#SVGID_7_);}
	.st16{fill:url(#SVGID_8_);stroke:#969696;stroke-width:0.2127;stroke-miterlimit:10;}
	.st17{fill:url(#SVGID_9_);}
	.st18{fill:url(#SVGID_10_);}
</style>
<g>
	<path class="st14" d="M253.1,44.1c-2-2.8-6-6.7-8.6-8.4c0.6,1.1,0.5,2.7,0.8,3.7s1.3,2.6,2.9,3.3S251.4,43.1,253.1,44.1z
		 M172.8,156.7 M147.2,143.1c1,0.3,2.1,0.7,3.2,1.1c5.3,2,12.4,6.5,19.3,10.8c0.8,0.5,1.7,1,2.5,1.5c-10,8.1-15.8,5.7-19.8,8.7
		c-4.1,3-4.2,7.8-0.4,12c3.9,4.2,8.7,6.7,14.6,8.1c3.5,0.8,7.5,0.9,10.2,0.9c1,0,5.7,1.1,8.7,6.2H136c0,0,2.2-2.8,4.8-4.2
		c-1-11.1-4.3-17.9-8-23.2C139.8,159.5,145,151.9,147.2,143.1z M128,91.7c-4.2,0-15.6-5.1-18.1-10.7c0,0-12.7-2.3-25.2-3.1
		c-12.4-0.8-28.3-9.6-30-14.7C33.8,60.6,19.7,42.7,18,40.2c-1.7-2.5,15,5.1,29.4,8.5c14.4,3.4,37.3,4.2,74.1,1.7s44.4,2.5,52.8,8.5
		c6.5,4.7,8.4,10.7,7.5,16.6c-0.9,5.9-9,12.5-5.7,23.8c3.3,11.2,10,15.8,19.7,18.1c9.7,2.3,16.5-0.9,18.8-6.3
		c2.3-5.4-4.9-10.9-14.4-19.3c-9.5-8.4-10.3-17.8-10-28.6c0.3-10.8,5.2-20.9,19.4-29.8c0.3-0.1-3.1-3.5-5.7-6.4
		c2.1,0,10.4,0.5,20.5,3l-3.4-6.5c2.5,0.3,10.4,2.3,16.8,5.9l0.7-5c0,0,13.1,9.9,18.9,16.8c3.5,4.2,7,10.4,9.1,14.6
		c1.3,2.5,0.6,5.6-1.7,7.3l-3.3,2.5c-2,1.5-4.8,1.3-6.6-0.5l-7.7-7.9c-2.2-2.3-5.9-2.5-8.3-0.4c-2.7,2.3-2.9,6.4-0.4,8.9
		c1.1,1.1,2.3,2.3,3.3,3.4c1.7,1.7,1.7,4.4,0,6.1c-1.7,1.7-4.5,1.6-6.2-0.1c-2.6-2.7-6-6.4-6.9-7.3c-1.5-1.5-5.7-6.3-3.1-14.3
		c-11.6,16,6,24.3,19.7,36.2c13.7,11.9,15.9,25,13.7,37.4c-2.2,12.4-12.8,27-27.2,33.4c-5.9,2.6-11.9,3.9-17.6,4.4
		c-1.3,7.2,1.5,12.2,6.2,16.4c0,0,7.3,4.9,15.3,5.1c3.8,0.1,10.2,0.8,13.1,6.1h-48.4c0.5-1.9,2.3-3.7,4.4-4.1
		c0.5-7.1,2-11.7-11.3-36.3c6.5,0.9,15-3.4,19-11.8c-10.1,6.7-14.5,9.1-24.3,7c1.6,4.6,3.2,8.9,4.4,15.5c-10.2-2.7-29-17.8-41-22.3
		c-2.7-1-5.1-1.8-7.5-2.4c-2.5,18.3-18.8,32.4-38.5,32.4c-2.4,0.2-4.8-0.1-6,0c-4,1-5,2.9-3.5,8.9c1.5,6,21.6,6.9,24.8,7.2
		s6.7,3,7.5,6H78.9c0,0,3.1-1.8,4.3-4.6s0.6-5.7-0.9-8.5c-3-6.5-3.7-13.8-3.7-13.8c0-4.2,0.9-8,2.4-11.3c2.8,2.4,6.9,2.7,11.3,2.9
		c12.3,0,22.5-9.4,23.8-21.3c-0.9,0-1.8,0-2.8,0c-20.4,0.2-34.1,11.1-39.4,18.1c-5.3,7.1-16.1,24.6-33.8,29
		c-17.7,4.4-31-3.5-37.4-16.8c-6.4-13.3,0.2-28.3,5.3-34.3c5.1-6,26.8-15.5,31.2-21c4.4-5.5,1.5-15.7-5.8-22.3l-4,10.4L16.4,65.2
		l32.1,16.4c0,0-8.8,3.8-10.8,4.4c4.9,3.5,9.7,10.4,9.7,19.2s-8.2,16.4-20.1,22.6C15.3,134,9.1,141.1,9.9,151.7
		c0.9,10.6,7.3,18.8,19,19.9c11.7,1.1,19.3-7.3,19.3-7.3c5.9-6.3,15.3-22.8,27.7-34.9s26.6-18.1,37.9-21.9s21.2-5.4,27.5-4.2
		s10.8,5.3,17.6,10.4c-6.3-11.3-8.3-12.5-14.2-14.4C138.8,98.8,129.4,96.2,128,91.7z"/>
	
		<linearGradient id="SVGID_1_" gradientUnits="userSpaceOnUse" x1="-1935.9374" y1="98.5697" x2="-1954.0854" y2="76.3268" gradientTransform="matrix(1 0 0 1 2206.8625 0)">
		<stop  offset="0" style="stop-color:#FCEF42"/>
		<stop  offset="5.887460e-02" style="stop-color:#FCDE31"/>
		<stop  offset="0.1299" style="stop-color:#FCD121"/>
		<stop  offset="0.203" style="stop-color:#FDC917"/>
		<stop  offset="0.2809" style="stop-color:#FDC714"/>
		<stop  offset="0.6685" style="stop-color:#F29040"/>
		<stop  offset="0.8876" style="stop-color:#ED693C"/>
		<stop  offset="1" style="stop-color:#E74039"/>
	</linearGradient>
	<path style="fill:url(#SVGID_1_);" d="M243.1,60.8c-1.6,0.9-1.3,2.2-0.5,3.3c0.8,1.2,4.3,4.1,5.5,6.3c1.2,2.2,0.8,8.6,3.3,10.9
		c2.5,2.3,7.4,6.2,8.8,9.6c1.2,2.8,1,5.6-0.8,8.9c3.1-2.2,4.5-7.1,2.8-10.4c4.8,5.6,7.9,10.5,8.3,13.8c0.5,5.2-2.7,7.6-2.7,7.6
		c6.2-1.9,5.6-7.9,4.4-10.7c-1.3-3.2-5.7-9.1-5.7-9.1c1.6,1,4.3,1.1,5.4,0.7c1.5-0.6,2.7-2.1,2.8-3.2c0.1-1.2-0.5-5.1-5.3-2.8
		c1.8-0.7,3.3,0.9,3.3,1.8c-0.1,1.4-1.2,2.6-4.5,2.1c-2.4-0.3-6-2.2-8.8-5.4c1.7,0,6.3-0.7,5.8-5.1c-1.2,2.8-7.5,4.6-10.3,1.3
		c-2.8-3.3-2.2-7.6-2.4-10.3c-0.2-3.1-5-7.1-5.7-7.9C246.1,61.5,244.5,60,243.1,60.8z"/>
	
		<linearGradient id="SVGID_2_" gradientUnits="userSpaceOnUse" x1="-2015.6266" y1="27.5964" x2="-1940.2312" y2="27.5964" gradientTransform="matrix(1 0 0 1 2206.8625 0)">
		<stop  offset="0" style="stop-color:#E5E2DF"/>
		<stop  offset="0" style="stop-color:#DDD9D6"/>
		<stop  offset="5.801176e-02" style="stop-color:#CEC9C8"/>
		<stop  offset="0.1688" style="stop-color:#AAA5A7"/>
		<stop  offset="0.264" style="stop-color:#8B878C"/>
		<stop  offset="0.5225" style="stop-color:#F2F3F3"/>
		<stop  offset="0.584" style="stop-color:#E0E0E0"/>
		<stop  offset="0.7021" style="stop-color:#B8B6B8"/>
		<stop  offset="0.8634" style="stop-color:#848184"/>
		<stop  offset="0.8764" style="stop-color:#807D81"/>
		<stop  offset="1" style="stop-color:#D0D2D3"/>
		<stop  offset="1" style="stop-color:#A7A9AC"/>
	</linearGradient>
	<path style="fill:url(#SVGID_2_);stroke:#969696;stroke-width:0.2127;stroke-miterlimit:10;" d="M253.7,38.1l2.3-3.3
		c-2.5-4-10.3-10.3-16.2-12.4c10.6-0.7,16.9,1.8,17.7,3.1c0,1.7-0.2,5.5-0.2,5.5s9.9-8.8,9.3-9.3c-8.8-11.6-19.7-18.1-38.3-20.9
		S196.7,4.1,191.2,7c3.8,2.7,9.4,6.8,10.9,10.3c4-3.6,14.2-2.5,18.7,2.5c-6.8,0.2-15.7,3-20.2,8.4c0.2,5.1,1.3,10.4,1.3,10.4
		s11.4-7.3,13.4-8.1c0.2,4,0,10.8,3.8,16.6c3.8,5.8,6.6,8.6,9.4,8c2.8-0.7,2-3.1,0-6.6c-2-3.5,1-16.2,8-17.7
		C241.4,31.3,249.4,34.1,253.7,38.1z"/>
	<path d="M279.5,158.6c0,0,0.6,1.7,5,1.7c4.4,0,5.3-1.7,5.3-1.7v-24.5h-10.3V158.6z"/>
	<path class="st14" d="M255.9,140.4c3.6,1.8,7.4,3.1,9.3,3.5c2,0.4,6.7,0.1,7.6-1c0-1.2,0.1-2.5,0.6-4c0.4-1.4,1.6-3.2,2.8-3.6
		c1.2-0.4,3.2,0.2,4.5,0.2s4.8-0.6,5.5-1c-1.9,2-2,2.4-2.5,3.5c-0.4,1-0.7,3.6-4.1,4c-0.2,0.2-0.2,1.2-0.2,1.2v15.4
		c-1.7-0.6-7.5-2.3-12.3-2.8c-4.8-0.5-25.5,0.8-25.5,0.8s5.6-4,9.1-8.4C253.2,145.2,255.9,140.4,255.9,140.4z"/>
	<path class="st14" d="M291.7,136c0.6-0.3,3.4-0.1,4.1,1.2c0.7,1.2,0.8,2.3-0.2,3.2c-1,0.9-2.3,1.5-2.3,1.5c1.2,0,2.9,0.7,2.8,2.3
		c-0.1,1.5-0.3,2.1-1.8,2.9c1.4,0.6,2,1.8,1.6,3c-0.4,1.2-0.9,2-2,2.3c0.6,0.5,1.4,1.5,0.5,2.6s-3,2.3-4.6,2.1
		c-1.7-0.1-3.3-1.2-4.4-2c0.4-0.8,1.6-1.5,1.2-1.5c-1,0.2-4.2,0.2-5.9-1.5c0.7,0,2-1.2,2.6-1.8c0.6-0.6,1.7-1.1,1.7-1.1
		c-2.3-0.6-4.4-1.5-5.2-2.9c1.5,0.3,3.7-1.5,4.4-1.9s3-1.2,4-1.2c-0.4-0.2-3.4-0.6-4.6-0.7c1.7-1.5,2.8-3,4.2-3.8
		C289.1,137.8,291.7,136,291.7,136z"/>
	<linearGradient id="SVGID_3_" gradientUnits="userSpaceOnUse" x1="285.5903" y1="85.4385" x2="278.0703" y2="85.4385">
		<stop  offset="0" style="stop-color:#FFFFFF"/>
		<stop  offset="0.1802" style="stop-color:#EDEAE8"/>
		<stop  offset="0.3328" style="stop-color:#DDD9D6"/>
		<stop  offset="1" style="stop-color:#D0D2D3"/>
		<stop  offset="1" style="stop-color:#A7A9AC"/>
	</linearGradient>
	<polygon class="st4" points="278.1,51.2 279.5,128.6 284.9,128.6 284.9,42.3 	"/>
	<linearGradient id="SVGID_4_" gradientUnits="userSpaceOnUse" x1="284.9346" y1="85.4381" x2="307.8476" y2="85.4381">
		<stop  offset="0" style="stop-color:#E5E2DF"/>
		<stop  offset="0" style="stop-color:#DDD9D6"/>
		<stop  offset="5.801176e-02" style="stop-color:#CEC9C8"/>
		<stop  offset="0.1688" style="stop-color:#AAA5A7"/>
		<stop  offset="0.264" style="stop-color:#8B878C"/>
		<stop  offset="0.5225" style="stop-color:#F2F3F3"/>
		<stop  offset="0.584" style="stop-color:#E0E0E0"/>
		<stop  offset="0.7021" style="stop-color:#B8B6B8"/>
		<stop  offset="0.8634" style="stop-color:#848184"/>
		<stop  offset="0.8764" style="stop-color:#807D81"/>
		<stop  offset="1" style="stop-color:#D0D2D3"/>
		<stop  offset="1" style="stop-color:#A7A9AC"/>
	</linearGradient>
	<polygon class="st5" points="289.8,128.6 291.8,51.2 284.9,42.3 284.9,42.3 284.9,128.6 284.9,128.6 	"/>
	<path class="st8" d="M272.5,134.3h24.8c0.6,0,1.2-0.5,1.2-1.2v-3.6c0-0.6-0.5-1.2-1.2-1.2h-24.8c-0.6,0-1.2,0.5-1.2,1.2v3.6
		C271.3,133.8,271.9,134.3,272.5,134.3z"/>
</g>
</svg>
