<?xml version="1.0" encoding="utf-8"?>
<!-- Generator: Adobe Illustrator 23.1.1, SVG Export Plug-In . SVG Version: 6.00 Build 0)  -->
<svg version="1.1" id="Layer_1" xmlns="http://www.w3.org/2000/svg" xmlns:xlink="http://www.w3.org/1999/xlink" x="0px" y="0px"
	 viewBox="0 0 126.8 128.6" style="enable-background:new 0 0 126.8 128.6;" xml:space="preserve">
<style type="text/css">
	.st0{fill:#C8DBF1;stroke:#A8B9C9;stroke-width:0.4253;stroke-miterlimit:10;}
	.st1{fill:url(#SVGID_1_);stroke:#CEA449;stroke-width:0.4253;stroke-miterlimit:10;}
	.st2{fill:#432063;}
	.st3{fill:url(#SVGID_2_);}
	.st4{fill:url(#SVGID_3_);}
	.st5{fill:url(#SVGID_4_);}
	.st6{fill:url(#SVGID_5_);stroke:#939598;stroke-width:0.2127;stroke-miterlimit:10;}
	.st7{fill:url(#SVGID_6_);}
	.st8{fill:#231F20;}
	.st9{fill:#99C05C;}
	.st10{fill-rule:evenodd;clip-rule:evenodd;fill:#231F20;}
	.st11{fill-rule:evenodd;clip-rule:evenodd;fill:#FFFFFF;}
	.st12{fill:#FFFFFF;}
	.st13{fill:#A8B9C9;}
	.st14{fill:#30459C;}
	.st15{fill:url(#SVGID_7_);}
	.st16{fill:url(#SVGID_8_);stroke:#969696;stroke-width:0.2127;stroke-miterlimit:10;}
	.st17{fill:url(#SVGID_9_);}
	.st18{fill:url(#SVGID_10_);}
</style>
<path class="st0" d="M113.9,123.8c-0.7-3.7-1.4-5.6-2.4-7.1c-1.8-2.7-4.2-3.6-7.5-3.7c-2.6-0.1-6.2-4.3-7-7.9
	c-0.8-3.6-0.3-8.5-0.3-8.5c14-10.7,16.6-17.9,14.1-28.9c-2.4-10.7-12.7-16.2-13.2-26.9c-1.9-0.5-3.7-1.2-5.4-2.1
	c-2.5-1.3-4.7-3.2-6.4-5.4c-0.8-1.1-1.6-2.4-2.1-3.7c-0.5-1.3-1-2.7-1.1-4.1c-0.1-1.4,0.2-2.9,0.8-4.1c0.6-1.3,1.4-2.4,2.5-3.3
	c-2,2-3,4.8-2.7,7.4c0.3,2.7,1.5,5.2,3.1,7.4c1.6,2.2,3.8,3.9,6.2,5.2c2.4,1.3,5.1,2,7.7,2.5l0,0c0,0,0.1,0,0.1,0
	c5.5,5.2,11,6.3,15.9,6.1c5-0.2,8.4-2.2,10.1-6.9c-2.6-3.6-4-9.1-1.5-14.5c-0.9-4.9-2-8.1-3.4-10.5c-0.2-1.9-0.7-3.9-1.2-4.8
	c-1-0.2-2.3-0.2-3.4-0.1c-1.1-0.9-2.4-1.8-3.8-2.8c-0.5-0.3-0.9-0.7-1.4-1c-0.3-1.4-1-2.8-2.6-3.7c-1,0.2-1.9,0.6-2.6,1
	c-4.2-1.8-8.4-2.6-11.7-2.2c-1-0.5-1.9-0.9-2.3-0.9c-0.5,0.5-1,1.4-1.5,2.2c-5.5,3.1-18.8,12-18.3,25c0.6,13.8,12.1,20.4,4.7,30.7
	l0,0l0,0c-2.6-1.5-6.1-3.2-6.4-8.8c-0.3-5.6,2.4-12.9-5.9-15.7c-8.3-2.8-17.4,0.8-24.2,0.3c-5.7-0.4-13-1.2-17.7-4.4
	c-0.7-0.4-1.5,0.3-1.1,1c4.4,7.6,15,11.4,21.9,12.5c-4.8,1.8-6.4,4.2-6.9,5.2c-0.2,0.3,0,0.7,0.3,0.9c3.7,2,8.9,2.4,12.5,1.7
	c-3.1,2.4-4.6,5.1-5.3,6.6c-0.2,0.5,0.1,1.1,0.7,1.1c5.7,0.4,12.1,0.1,13.9-0.7c-1.3,2.5-2,4-2.3,4.9c-0.2,0.5,0.1,1,0.6,1
	c4.3,0.6,7.7-0.3,9.1-1.1c-1.1,1.4-0.9,2.9,0.6,4.2c-5.5,3-11,5.7-17.1,9.6c-14.5,9.3-10.4,21.8-16.1,24.4
	c-3.1,1.4-7.7-1.4-11.1-3.5c-3.5-2.2-12.5-7.4-16.3-19.5c1-0.8,2-1.9,1.9-2.8c-0.2-1.4-2.5-11.2-2.2-15.6c-2.3,4.6-6,11.9-6.2,16.6
	c0,0.9,0.8,1.7,1.8,2.3c-0.3,4.6,0.4,9.5,3.1,15.3c6.4,13.4,23.1,31.2,40.9,34.1c1.7,0.3,3.4,0.4,5,0.4c0,0,0,0,0,0
	c7.2,0,12.8,0,16.9,0c4.1,0,17.4,0,18.8,0c1.4,0,5.2,0.6,5.5-1.6c-0.9-5-1.8-6.5-4.1-8.5c-1.8-1.5-4.7-2-7.1-0.9
	c-1.8,0.8-4.3,1.3-7,1.5c1.1-1,1.9-1.8,2.4-2.3c2.8-2.6,8.7-12.8,1.9-20.6c4.7,4,6,11.7,5.3,17c3.8,1.7,9.5,6,9.9,12.8
	c0.1,1.6,1.9,2.5,3.4,2.9c2.4,0.5,3.2-0.4,3.7-0.8c4.6,1.9,5.9,1.3,7.2-0.3c1.2,0.6,2.6,1.5,4,1.2
	C114,127.7,114.3,125.9,113.9,123.8z"/>
<path class="st0" d="M115,125.5c1.5,0.3,4,0.1,5.9-0.5c0.7-0.2,1.3-1.2,1.3-2.3c-0.1-1.8-1.6-5.8-3.1-8.1c-1.7-2.7-5.1-4.5-7.9-4.8
	c-2.4-0.3-4.2-1.3-5-4c-0.6-2.1-1.5-13.3-1.5-13.3c-1.8,1.8-4.4,3.7-6.9,5.7c-0.1,1.4-0.2,4.6,0.3,7.1c0.7,3.3,4.3,6.5,5.7,6.6
	c4.1,0.1,6.2,1.4,8.4,4.1C114.1,118.1,115.1,123.8,115,125.5z"/>
<path class="st12" d="M95.2,28.3c0.1-0.5,0.2-0.9,0.4-1.3c-0.4,0.4-0.7,0.8-1,1.3c0.2,0.4,0.4,0.8,0.6,1.2
	C95.1,29.1,95.1,28.7,95.2,28.3z"/>
<path class="st12" d="M107.8,35.3c-0.7-6.3-2.8-9.3-5.2-10.3c1.2,1,2,2.7,1.7,4.5c-0.3,2.5-2.3,4.3-4.6,4.3
	C102.4,35.2,105.3,35.5,107.8,35.3z"/>
<g>
	<path class="st13" d="M99.8,33.6c-1.8-1-3.3-2.4-4.4-4.3c0-0.3,0-0.6,0-1c0.1-0.4,0.2-0.9,0.3-1.3c1.3-1.4,3.2-2.3,4.9-2.3
		c0.6,0,1.3,0.1,1.8,0.4c1.2,1,1.8,2.6,1.6,4.3C103.8,31.7,101.9,33.5,99.8,33.6z"/>
	<path class="st12" d="M100.6,25c0.6,0,1.2,0.1,1.7,0.3c1.1,1,1.7,2.5,1.5,4.1c-0.3,2.2-2,3.9-4,4c-1.7-0.9-3.1-2.3-4.2-4.1
		c0-0.3,0-0.6,0-0.9c0-0.4,0.1-0.8,0.3-1.2C97.3,25.8,99,25,100.6,25 M100.6,24.6c-1.9,0-3.7,1-5.1,2.4c-0.2,0.4-0.3,0.9-0.4,1.3
		c0,0.4,0,0.7,0,1.1c1.3,2.1,2.9,3.5,4.5,4.4c2.3,0,4.2-1.9,4.6-4.3c0.2-1.8-0.5-3.5-1.7-4.5C101.9,24.7,101.3,24.6,100.6,24.6
		L100.6,24.6z"/>
</g>
</svg>
