<?xml version="1.0" encoding="utf-8"?>
<!-- Generator: Adobe Illustrator 23.1.1, SVG Export Plug-In . SVG Version: 6.00 Build 0)  -->
<svg version="1.1" id="Layer_1" xmlns="http://www.w3.org/2000/svg" xmlns:xlink="http://www.w3.org/1999/xlink" x="0px" y="0px"
	 viewBox="0 0 299.9 191.4" style="enable-background:new 0 0 299.9 191.4;" xml:space="preserve">
<style type="text/css">
	.st0{fill:#C8DBF1;stroke:#A8B9C9;stroke-width:0.4253;stroke-miterlimit:10;}
	.st1{fill:url(#SVGID_1_);stroke:#CEA449;stroke-width:0.4253;stroke-miterlimit:10;}
	.st2{fill:#432063;}
	.st3{fill:url(#SVGID_2_);}
	.st4{fill:url(#SVGID_3_);}
	.st5{fill:url(#SVGID_4_);}
	.st6{fill:url(#SVGID_5_);stroke:#939598;stroke-width:0.2127;stroke-miterlimit:10;}
	.st7{fill:url(#SVGID_6_);}
	.st8{fill:#231F20;}
	.st9{fill:#99C05C;}
	.st10{fill-rule:evenodd;clip-rule:evenodd;fill:#231F20;}
	.st11{fill-rule:evenodd;clip-rule:evenodd;fill:#FFFFFF;}
	.st12{fill:#FFFFFF;}
	.st13{fill:#A8B9C9;}
	.st14{fill:#30459C;}
	.st15{fill:url(#SVGID_7_);}
	.st16{fill:url(#SVGID_8_);stroke:#969696;stroke-width:0.2127;stroke-miterlimit:10;}
	.st17{fill:url(#SVGID_9_);}
	.st18{fill:url(#SVGID_10_);}
</style>
<g>
	<g>
		<path class="st9" d="M252,71.5c-0.2,3.1,0.3,5.5,3.2,7.2c2.9,1.7,6.1-0.2,8-1.7c1.8-1.5,3,0.9,0.7,2.8c-2.3,1.9-6.9,3.3-11.6,1.2
			c-2.8-1.3-4.2-6.9-4.3-9.3c-0.1-2.2-1.8-4.8-3.4-6.4c-1-1-2.2-2.2-3.3-3.3c-0.6-0.6-0.7-1.3-0.6-1.7c0-0.4,0.1-1.1,0.8-1.6
			c0.5-0.4,1.1-0.5,1.5-0.5c0.6,0,1.2,0.2,1.6,0.7l5,5.1c0,0,1.3,1.2,1.7,2.4C251.7,67.4,252.3,68.5,252,71.5z M172.8,155.6
			 M147.2,142c1,0.3,2.1,0.7,3.2,1.1c5.3,2,12.4,6.5,19.3,10.8c0.8,0.5,1.7,1,2.5,1.5c-10,8.1-15.8,5.7-19.8,8.7
			c-4.1,3-4.2,7.8-0.4,12c3.9,4.2,8.7,6.7,14.6,8.1c3.5,0.8,7.5,0.9,10.2,0.9c1,0,5.7,1.1,8.7,6.2H136c0,0,2.2-2.8,4.8-4.2
			c-1-11.1-4.3-17.9-8-23.2C139.8,158.4,145,150.8,147.2,142z M163.1,112.6c-5.1-9.3-10.7-12.1-15.5-13.5
			c-4.8-1.5-12.1-0.5-27.2-1.2c-9.6-0.4-16.8-4.2-21.8-8.1c-1.7-1.4-0.5-4.1,1.7-3.6c7.7,1.7,18,2.7,26.2,2.6c0,0-14.2-4.1-23.3-7.6
			c-6.1-2.3-10-6.5-12.6-11.2c-1-1.8,1-3.8,2.8-2.8c9.5,5.5,23.5,10,29.4,10C107,70.9,94.6,58.4,92.6,55.6c-1-1.3-1.7-3.2-2-4.9
			c-0.4-1.9,1.9-3.2,3.3-1.9c6.9,5.9,18.3,12.9,30.6,17.2c-11.7-5.7-23.8-20.6-26.9-25.2c-1.4-2-2.3-5.2-2.9-8.2
			c-0.4-2.1,2.2-3.3,3.5-1.8c8,9,20.3,19.8,29.9,24.7c-18.3-16.3-22-26.4-23.9-32.5c-0.6-1.9-0.9-4.2-1.1-6.5
			c-0.2-2.2,2.8-3.1,3.8-1.1c0.8,1.5,1.8,3.2,3,5.1c6.4,10.7,13.9,17.1,25.3,26.4c0.6,0.4-13.6-18.8-18.2-28.3
			c-2.7-5.6-3-11.5-2.6-16.8c0.1-2.2,3.1-2.7,3.9-0.7c4,9.6,11.7,23.9,22.2,35.2c15,16.3,30.1,27.3,35.2,31.4
			c5.1,4.1,6.9,8.8,6.1,13.5c-0.5,3.5-2.4,8-5.1,12.7c-0.6,1-0.6,3.8,0,5.8c2.9,10.1,10,14.1,19.1,16.3c9.7,2.3,16.5-0.9,18.8-6.3
			c2.3-5.4-4.9-10.9-14.4-19.3c-9.5-8.4-10.3-17.8-10-28.6c0.3-10.8,5.2-20.9,19.4-29.8c0.3-0.1-3.1-3.5-5.7-6.4
			c2.1,0,10.4,0.5,20.5,3l-3.4-6.5c2.5,0.3,10.4,2.3,16.8,5.9l0.7-5c0,0,13.1,9.9,18.9,16.8c3.5,4.2,7,10.4,9.1,14.6
			c1.3,2.5,0.6,5.6-1.7,7.3l-3.3,2.5c-2,1.5-4.8,1.3-6.6-0.5l-7.7-7.9c-2.2-2.3-5.9-2.5-8.3-0.4c-2.7,2.3-2.9,6.4-0.4,8.9
			c1.1,1.1,2.3,2.3,3.3,3.4c1.7,1.7,1.7,4.4,0,6.1c-1.7,1.7-4.5,1.6-6.2-0.1c-2.6-2.7-6-6.4-6.9-7.3c-1.5-1.5-5.7-6.3-3.1-14.3
			c-11.6,16,6,24.3,19.7,36.2c13.7,11.9,15.9,25,13.7,37.4c-2.2,12.4-12.8,27-27.2,33.4c-5.9,2.6-11.9,3.9-17.6,4.4
			c-1.3,7.2,1.5,12.2,6.2,16.4c0,0,7.3,4.9,15.3,5.1c3.8,0.1,10.2,0.8,13.1,6.1h-48.4c0.5-1.9,2.3-3.7,4.4-4.1
			c0.5-7.1,2-11.7-11.3-36.3c6.5,0.9,15-3.4,19-11.8c-10.1,6.7-14.5,9.1-24.3,7c1.6,4.6,3.2,8.9,4.4,15.5c-10.2-2.7-29-17.8-41-22.3
			c-2.7-1-5.1-1.8-7.5-2.4c-2.5,18.3-18.8,32.4-38.5,32.4c-2.4,0.2-4.8-0.1-6,0c-4,1-5,2.9-3.5,8.9c1.5,6,21.6,6.9,24.8,7.2
			c3.2,0.2,6.7,3,7.5,6H78.9c0,0,3.1-1.8,4.3-4.6c1.2-2.8,0.6-5.7-0.9-8.5c-3-6.5-3.7-13.8-3.7-13.8c0-4.2,0.9-8,2.4-11.3
			c2.8,2.4,6.9,2.7,11.3,2.9c12.3,0,22.5-9.4,23.8-21.3c-0.9,0-1.8,0-2.8,0c-20.4,0.2-34.1,11.1-39.4,18.1
			c-5.3,7.1-16.1,24.6-33.8,29c-17.7,4.4-31-3.5-37.4-16.8c-6.4-13.3,0.2-28.3,5.3-34.3c5.1-6,26.8-15.5,31.2-21
			c4.4-5.5,1.5-15.7-5.8-22.3l-4,10.4L16.4,64.1l32.1,16.4c0,0-8.8,3.8-10.8,4.4c4.9,3.5,9.7,10.4,9.7,19.2s-8.2,16.4-20.1,22.6
			C15.3,132.9,9.1,140,9.9,150.6c0.9,10.6,7.3,18.8,19,19.9s19.3-7.3,19.3-7.3c5.9-6.3,15.3-22.8,27.7-34.9s26.6-18.1,37.9-21.9
			c11.3-3.8,21.2-5,27.5-4.2C149.1,103.1,156.3,107.5,163.1,112.6z"/>
		<path class="st9" d="M255.5,142c-3.3,7.1-14.4,15.4-14.4,15.4c8.1-1.2,21-6.9,34.2,2.5c0.4,0.3,1,0.3,1.5,0.1
			c4.2-1.4,9.7-2.1,12.5-1.9c0.5,0,1.1-0.2,1.3-0.6c2-3.5,5.3-7.5,5.3-7.5l3.9-3.2c0.2-4.3-1.2-8.7-4.1-10.3
			c-0.4-0.7-0.7-1.4-1.9-3.2c-0.3,1.6,0.1,3.5-0.1,4c-2.5,2.3-16-0.8-16-0.8c0.1-2.3-3.1-5-5.1-6.4c0.9,3.5-0.3,4.4,0,6.3
			c-1.6,0.8-4.2,2.6-4.3,6.9C263.2,145.4,255.5,142,255.5,142z"/>
		<g>
			<path class="st10" d="M285,151c-7.3,0-13.2-5.9-13.2-13.2v-3.3c0-7.3,5.9-13.2,13.2-13.2c7.3,0,13.2,5.9,13.2,13.2v3.3
				C298.2,145.1,292.3,151,285,151z"/>
			<path class="st11" d="M285.5,149.9v-2.7c-0.2,0-0.3,0-0.5,0c-0.4,0-0.7,0-1.1,0v2.8H285.5z M289.2,149.3v-2.8
				c-0.5,0.2-1,0.3-1.6,0.4l0,2.3H289.2z M282.2,149.3v-2.3c-0.5-0.1-1.1-0.3-1.6-0.5v2.8H282.2z M292.2,147.5l0-2.6
				c-0.5,0.4-1,0.7-1.6,0.9v1.6H292.2z M279.2,147.5v-1.7c-0.6-0.3-1.1-0.6-1.6-1v2.7H279.2z M285,145.4c6,0,10.8-4.8,10.8-10.8
				c0-6-4.8-10.8-10.8-10.8s-10.8,4.8-10.8,10.8C274.2,140.6,279,145.4,285,145.4z M295.2,144.9l0-2.9c-0.4,0.5-0.8,1-1.3,1.5l0,1.4
				H295.2z M275.8,144.9v-1.6c-0.4-0.4-0.8-0.9-1.1-1.4h-0.1v3H275.8z M296.8,141.1v-2c-0.2,0.6-0.5,1.2-0.8,1.7v0.3H296.8z
				 M273.8,141.1v-0.6c-0.3-0.6-0.6-1.2-0.8-1.9v2.5H273.8z"/>
			<path class="st10" d="M281.9,140.5l2.7-1.7c0.2-0.1,0.6-0.1,0.8,0l2.6,1.7c1.3,0.8,2,0.3,1.7-1.2l-0.8-3.1
				c-0.1-0.2,0-0.6,0.2-0.7l2.4-2c1.2-1,0.9-1.8-0.6-1.9l-3.2-0.2c-0.3,0-0.5-0.2-0.6-0.5l-1.1-2.9c-0.6-1.4-1.5-1.4-2,0l-1.2,3
				c-0.1,0.2-0.4,0.4-0.6,0.5l-3.1,0.2c-1.5,0.1-1.8,1-0.6,1.9l2.5,2.1c0.2,0.2,0.3,0.5,0.2,0.7l-0.8,3
				C279.9,140.7,280.6,141.3,281.9,140.5"/>
		</g>
		<path class="st9" d="M270.9,149.2c3.3-2.9,7.4-2.1,10-0.9c2.6,1.2,5.2,3.8,9.5,0.9c0.6-0.4,1-1,1.5-1.9c-0.6-0.7-0.4-3,0.3-4.1
			c0.8-1.3,2.5-1.6,3.2-2c0.7-1.3,0.1-3.3,0.1-3.3c1.9,2.8,2.8,7.3,2.8,7.3c-0.6,1.9-2.9,3.2-3.2,3.9c0,0-5.1,5-5.3,5
			c-0.2,0-10.7-1-10.7-1L270.9,149.2z"/>
		<g>
			<path class="st12" d="M270.8,149.3c1.3-1.2,3-2,4.8-2.2c1.8-0.2,3.6,0.2,5.2,0.9c1.6,0.7,3.1,1.8,4.7,2.1
				c1.6,0.4,3.3-0.3,4.7-1.2l0,0c0.6-0.5,1-1.1,1.4-1.8l0,0.4c-0.5-0.8-0.5-1.5-0.4-2.3c0.1-0.7,0.2-1.4,0.6-2.1
				c0.4-0.7,1-1.2,1.6-1.6c0.6-0.4,1.3-0.6,1.8-0.9l-0.1,0.1c0.4-0.9,0.4-2.1,0.1-3.1l-0.4-1.9l1,1.7c0.7,1.2,1.2,2.4,1.7,3.7
				c0.4,1.3,0.8,2.6,1,3.9l0,0l0,0c-0.3,0.9-0.7,1.6-1.2,2.4l-0.7,1.1c-0.2,0.4-0.5,0.7-0.7,1.2c0.1-0.4,0.4-0.8,0.6-1.2l0.6-1.2
				c0.4-0.8,0.8-1.6,1-2.4l0,0.1c-0.7-2.6-1.5-5.1-2.9-7.3l0.6-0.3c0.2,0.6,0.2,1.2,0.2,1.8c0,0.6-0.1,1.2-0.4,1.8l0,0.1l-0.1,0
				c-0.7,0.4-1.3,0.6-1.9,0.9c-0.6,0.3-1,0.7-1.3,1.3c-0.3,0.5-0.4,1.2-0.5,1.8c0,0.6,0,1.4,0.3,1.7l0.2,0.2l-0.1,0.2
				c-0.4,0.7-0.9,1.5-1.6,2l0,0l0,0c-0.8,0.5-1.6,0.9-2.5,1.2c-0.9,0.3-1.9,0.3-2.8,0.1c-1.8-0.4-3.3-1.6-4.8-2.3
				c-1.6-0.7-3.3-1.2-5-1.1C273.8,147.5,272.1,148.2,270.8,149.3z"/>
		</g>
	</g>
	<path class="st12" d="M252.2,43.4c0.5,0.1,0.8-0.4,0.6-0.9c-0.9-2.2-2.6-4.3-4.9-5.9c-1-0.7-2.4-1.1-3.2-1.9
		c0.3,1.9,0.5,2.9,0.9,3.8c0.6,1.4,1.7,2.7,3.3,3.6C250,42.8,251,43.3,252.2,43.4z"/>
</g>
</svg>
