<?xml version="1.0" encoding="utf-8"?>
<!-- Generator: Adobe Illustrator 23.1.1, SVG Export Plug-In . SVG Version: 6.00 Build 0)  -->
<svg version="1.1" id="Layer_1" xmlns="http://www.w3.org/2000/svg" xmlns:xlink="http://www.w3.org/1999/xlink" x="0px" y="0px"
	 viewBox="0 0 314.2 216.5" style="enable-background:new 0 0 314.2 216.5;" xml:space="preserve">
<style type="text/css">
	.st0{fill:#C8DBF1;stroke:#A8B9C9;stroke-width:0.4253;stroke-miterlimit:10;}
	.st1{fill:url(#SVGID_1_);stroke:#CEA449;stroke-width:0.4253;stroke-miterlimit:10;}
	.st2{fill:#432063;}
	.st3{fill:url(#SVGID_2_);}
	.st4{fill:url(#SVGID_3_);}
	.st5{fill:url(#SVGID_4_);}
	.st6{fill:url(#SVGID_5_);stroke:#939598;stroke-width:0.2127;stroke-miterlimit:10;}
	.st7{fill:url(#SVGID_6_);}
	.st8{fill:#231F20;}
	.st9{fill:#99C05C;}
	.st10{fill-rule:evenodd;clip-rule:evenodd;fill:#231F20;}
	.st11{fill-rule:evenodd;clip-rule:evenodd;fill:#FFFFFF;}
	.st12{fill:#FFFFFF;}
	.st13{fill:#A8B9C9;}
	.st14{fill:#30459C;}
	.st15{fill:url(#SVGID_7_);}
	.st16{fill:url(#SVGID_8_);stroke:#969696;stroke-width:0.2127;stroke-miterlimit:10;}
	.st17{fill:url(#SVGID_9_);}
	.st18{fill:url(#SVGID_10_);}
</style>
<g>
	
		<radialGradient id="SVGID_1_" cx="7463.7183" cy="48.3843" r="30.1576" gradientTransform="matrix(-1 0 0 1 7699.1123 0)" gradientUnits="userSpaceOnUse">
		<stop  offset="0" style="stop-color:#FDF9CE"/>
		<stop  offset="9.905044e-02" style="stop-color:#F9EFBD"/>
		<stop  offset="0.2949" style="stop-color:#F1DD97"/>
		<stop  offset="0.3708" style="stop-color:#EED688"/>
		<stop  offset="0.6854" style="stop-color:#EABB1F"/>
		<stop  offset="1" style="stop-color:#C2922E"/>
	</radialGradient>
	<path class="st1" d="M197.3,67.6c7.9-12.5,13.5-15.3,16.6-17.3c3-2.1,6.7-6.6,3.5-10.5c0,0,3.8-0.1,5.8,1.4
		c2.1,1.4,5.5,2.7,7.8,1.2c2.3-1.5,4.4-3.9,1.7-11.7c3.6,1.3,4.7,5.2,6.2,7.9s4.1,6,7.5,4.5c3.4-1.5,4.9-6.5,5.4-13.8
		c2.2,2.1,2.2,6.1,0.7,10.6s-0.8,6.9,0.9,8.6c1.7,1.7,5.2,2.4,10.2,0.3c4.9-2.1,8.3-7.4,7.7-15.6c3.3,2.1,3,13.8-2.7,20.4
		c-5.7,6.6-9.6,7.9-13.1,9.3l-11.1-4.2L197.3,67.6"/>
	<path class="st2" d="M252,68.3c0.5,0.1,0.8-0.4,0.6-0.9c-0.9-2.2-2.6-4.3-4.9-5.9c-1-0.7-2.4-1.1-3.2-1.9c0.3,1.9,0.5,2.9,0.9,3.8
		c0.6,1.4,1.7,2.7,3.3,3.6C249.8,67.6,250.8,68.1,252,68.3z M269.3,212.7c1.8-2.8-0.3-7.9-2.8-11.2c-2.5-3.3-14.9-13.1-26-19.2
		c2.4-1.7,4.3-3.2,6.3-5.3c3.6-1.6,7.1-4,9.4-7.2c0.6,1.7,1.1,2.7,1.8,4.3c4.3,8.8,10.8,15.8,18.7,23.6c9.3,9.2,21.4,12,23.7,12.4
		c1.1,0.2,3,0.2,4.7,0.2c2.6,0,7.5,3.3,9,6.3h-49.3C264.9,215.6,266.7,213.8,269.3,212.7z M252,96.7c-0.2,3.1,0.3,5.5,3.2,7.2
		c2.9,1.7,6.1-0.2,8-1.7c1.8-1.5,3,0.9,0.7,2.8c-2.3,1.9-6.9,3.3-11.6,1.2c-2.8-1.3-4.2-6.9-4.3-9.3c-0.1-2.2-1.8-4.8-3.4-6.4
		c-1-1-2.2-2.2-3.3-3.3c-0.6-0.6-0.7-1.3-0.6-1.7c0-0.4,0.1-1.1,0.8-1.6c0.5-0.4,1.1-0.5,1.5-0.5c0.6,0,1.2,0.2,1.6,0.7l5,5.1
		c0,0,1.3,1.2,1.7,2.4C251.7,92.6,252.3,93.6,252,96.7z M172.8,180.8 M147.2,167.2c1,0.3,2.1,0.7,3.2,1.1c5.3,2,12.4,6.5,19.3,10.8
		c0.8,0.5,1.7,1,2.5,1.5c-10,8.1-15.8,5.7-19.8,8.7c-4.1,3-4.2,7.8-0.4,12c3.9,4.2,8.7,6.7,14.6,8.1c3.5,0.8,7.5,0.9,10.2,0.9
		c1,0,5.7,1.1,8.7,6.2H136c0,0,2.2-2.8,4.8-4.2c-1-11.1-4.3-17.9-8-23.2C139.8,183.6,145,176,147.2,167.2z M8,155.9
		c5.1-6,26.8-15.5,31.2-21s1.5-15.7-5.8-22.3l-4,10.4L16.4,89.3l32.1,16.4c0,0-8.8,3.8-10.8,4.4c4.9,3.5,9.7,10.4,9.7,19.2
		s-8.2,16.4-20.1,22.6c-11.9,6.2-18.1,13.3-17.3,23.9c0.9,10.6,7.3,18.8,19,19.9s19.3-7.3,19.3-7.3c5.9-6.3,15.3-22.8,27.7-34.9
		c12.4-12,26.6-18.1,37.9-21.9s21.2-5.4,27.5-4.2c6.3,1.1,10.8,5.3,17.6,10.4c-6.3-11.3-13.1-14.8-19-16.6
		c-5.9-1.8-14.9-0.6-33.3-1.4c-11.8-0.5-20.5-5.1-26.7-9.9c-2.1-1.7-0.6-5,2.1-4.4c9.4,2.1,22,3.3,32,3.1c0,0-17.4-5.1-28.5-9.3
		c-7.5-2.9-12.2-8-15.5-13.7c-1.3-2.2,1.2-4.7,3.5-3.4c11.6,6.7,28.8,12.2,36,12.2C90.3,86.7,75.1,71.5,72.6,68
		c-1.2-1.6-2-3.9-2.5-6c-0.4-2.3,2.3-3.9,4.1-2.4c8.4,7.2,22.4,15.7,37.4,21c-14.4-7-29.1-25.2-32.9-30.8c-1.7-2.5-2.8-6.4-3.5-10
		c-0.5-2.5,2.6-4.1,4.3-2.2c9.7,11.1,24.8,24.2,36.6,30.3C93.7,48,89.2,35.6,86.8,28.2c-0.7-2.3-1.1-5.1-1.3-7.9
		c-0.2-2.7,3.4-3.7,4.7-1.4c1,1.8,2.2,3.9,3.6,6.3c7.9,13,17,20.9,30.9,32.3c0.7,0.5-16.7-23-22.2-34.6c-3.3-6.8-3.6-14.1-3.2-20.6
		c0.2-2.7,3.8-3.3,4.8-0.8c4.8,11.7,14.3,29.2,27.1,43C149.6,64.5,168,77.9,174.3,83c6.3,5.1,8.4,10.7,7.5,16.6
		c-0.9,5.9-9,12.5-5.7,23.8c3.3,11.2,10,15.8,19.7,18.1c9.7,2.3,16.5-0.9,18.8-6.3c2.3-5.4-4.9-10.9-14.4-19.3
		c-9.5-8.4-10.3-17.8-10-28.6c0.3-10.8,5.2-20.9,19.4-29.8c0.3-0.1-3.1-3.5-5.7-6.4c2.1,0,10.4,0.5,20.5,3l-3.4-6.5
		c2.5,0.3,10.4,2.3,16.8,5.9l0.7-5c0,0,13.1,9.9,18.9,16.8c3.5,4.2,7,10.4,9.1,14.6c1.3,2.5,0.6,5.6-1.7,7.3l-3.3,2.5
		c-2,1.5-4.8,1.3-6.6-0.5l-7.7-7.9c-2.2-2.3-5.9-2.5-8.3-0.4c-2.7,2.3-2.9,6.4-0.4,8.9c1.1,1.1,2.3,2.3,3.3,3.4
		c1.7,1.7,1.7,4.4,0,6.1c-1.7,1.7-4.5,1.6-6.2-0.1c-2.6-2.7-6-6.4-6.9-7.3c-1.5-1.5-5.7-6.3-3.1-14.3c-11.6,16,6,24.3,19.7,36.2
		c13.7,11.9,15.9,25,13.7,37.4c-2.2,12.4-12.8,27-27.2,33.4c-5.9,2.6-11.9,3.9-17.6,4.4c-1.3,7.2,1.5,12.2,6.2,16.4
		c0,0,7.3,4.9,15.3,5.1c3.8,0.1,10.2,0.8,13.1,6.1h-48.4c0.5-1.9,2.3-3.7,4.4-4.1c0.5-7.1,2-11.7-11.3-36.3c6.5,0.9,15-3.4,19-11.8
		c-10.1,6.7-14.5,9.1-24.3,7c1.6,4.6,3.2,8.9,4.4,15.5c-10.2-2.7-29-17.8-41-22.3c-2.7-1-5.1-1.8-7.5-2.4
		c-2.5,18.3-18.8,32.4-38.5,32.4c-2.4,0.2-4.8-0.1-6,0c-4,1-5,2.9-3.5,8.9c1.5,6,21.6,6.9,24.8,7.2s6.7,3,7.5,6H78.9
		c0,0,3.1-1.8,4.3-4.6c1.2-2.8,0.6-5.7-0.9-8.5c-3-6.5-3.7-13.8-3.7-13.8c0-4.2,0.9-8,2.4-11.3c2.8,2.4,6.9,2.7,11.3,2.9
		c12.3,0,22.5-9.4,23.8-21.3c-0.9,0-1.8,0-2.8,0c-20.4,0.2-34.1,11.1-39.4,18.1c-5.3,7.1-16.1,24.6-33.8,29
		c-17.7,4.4-31-3.5-37.4-16.8C-3.8,176.9,2.9,161.8,8,155.9z"/>
	
		<linearGradient id="SVGID_2_" gradientUnits="userSpaceOnUse" x1="7444.1006" y1="54.2695" x2="7448.0493" y2="54.2695" gradientTransform="matrix(-1 0 0 1 7699.1123 0)">
		<stop  offset="0" style="stop-color:#2F2F7F"/>
		<stop  offset="7.467423e-02" style="stop-color:#303181"/>
		<stop  offset="0.153" style="stop-color:#313985"/>
		<stop  offset="0.2329" style="stop-color:#35458C"/>
		<stop  offset="0.314" style="stop-color:#3B5597"/>
		<stop  offset="0.396" style="stop-color:#446AA6"/>
		<stop  offset="0.4777" style="stop-color:#5085BB"/>
		<stop  offset="0.4888" style="stop-color:#528ABF"/>
		<stop  offset="0.5198" style="stop-color:#4B7BAF"/>
		<stop  offset="0.6373" style="stop-color:#385485"/>
		<stop  offset="0.7479" style="stop-color:#2A3869"/>
		<stop  offset="0.8485" style="stop-color:#202457"/>
		<stop  offset="0.9358" style="stop-color:#1A164D"/>
		<stop  offset="1" style="stop-color:#18114A"/>
	</linearGradient>
	<circle class="st3" cx="253" cy="54.3" r="2"/>
	
		<linearGradient id="SVGID_3_" gradientUnits="userSpaceOnUse" x1="7452.7578" y1="48.9179" x2="7456.1709" y2="48.9179" gradientTransform="matrix(-1 0 0 1 7699.1123 0)">
		<stop  offset="0" style="stop-color:#2F2F7F"/>
		<stop  offset="7.467423e-02" style="stop-color:#303181"/>
		<stop  offset="0.153" style="stop-color:#313985"/>
		<stop  offset="0.2329" style="stop-color:#35458C"/>
		<stop  offset="0.314" style="stop-color:#3B5597"/>
		<stop  offset="0.396" style="stop-color:#446AA6"/>
		<stop  offset="0.4777" style="stop-color:#5085BB"/>
		<stop  offset="0.4888" style="stop-color:#528ABF"/>
		<stop  offset="0.5198" style="stop-color:#4B7BAF"/>
		<stop  offset="0.6373" style="stop-color:#385485"/>
		<stop  offset="0.7479" style="stop-color:#2A3869"/>
		<stop  offset="0.8485" style="stop-color:#202457"/>
		<stop  offset="0.9358" style="stop-color:#1A164D"/>
		<stop  offset="1" style="stop-color:#18114A"/>
	</linearGradient>
	<circle class="st4" cx="244.6" cy="48.9" r="1.7"/>
	
		<linearGradient id="SVGID_4_" gradientUnits="userSpaceOnUse" x1="7462.3262" y1="47.4196" x2="7465.0908" y2="47.4196" gradientTransform="matrix(-1 0 0 1 7699.1123 0)">
		<stop  offset="0" style="stop-color:#2F2F7F"/>
		<stop  offset="7.467423e-02" style="stop-color:#303181"/>
		<stop  offset="0.153" style="stop-color:#313985"/>
		<stop  offset="0.2329" style="stop-color:#35458C"/>
		<stop  offset="0.314" style="stop-color:#3B5597"/>
		<stop  offset="0.396" style="stop-color:#446AA6"/>
		<stop  offset="0.4777" style="stop-color:#5085BB"/>
		<stop  offset="0.4888" style="stop-color:#528ABF"/>
		<stop  offset="0.5198" style="stop-color:#4B7BAF"/>
		<stop  offset="0.6373" style="stop-color:#385485"/>
		<stop  offset="0.7479" style="stop-color:#2A3869"/>
		<stop  offset="0.8485" style="stop-color:#202457"/>
		<stop  offset="0.9358" style="stop-color:#1A164D"/>
		<stop  offset="1" style="stop-color:#18114A"/>
	</linearGradient>
	<circle class="st5" cx="235.4" cy="47.4" r="1.4"/>
	
		<linearGradient id="SVGID_5_" gradientUnits="userSpaceOnUse" x1="7437.7358" y1="150.1103" x2="7505.874" y2="150.1103" gradientTransform="matrix(-1 0 0 1 7699.1123 0)">
		<stop  offset="0" style="stop-color:#FDECF3"/>
		<stop  offset="0.1124" style="stop-color:#F5E9F3"/>
		<stop  offset="0.2232" style="stop-color:#F8EEF1"/>
		<stop  offset="0.3539" style="stop-color:#FFFEF1"/>
		<stop  offset="0.4877" style="stop-color:#FAF9F1"/>
		<stop  offset="0.6139" style="stop-color:#ECEFF1"/>
		<stop  offset="0.7135" style="stop-color:#DCE4F4"/>
		<stop  offset="1" style="stop-color:#FEE9DF"/>
	</linearGradient>
	<path class="st6" d="M210.7,125.5c-5.5-1.9-12.4-2-16.4,5.6c-4.1,7.7,5,15.5,10.6,16.5c5.6,1,26,4.7,33.1,9.2
		c7.1,4.5,10.9,13.4,6.9,18.8c10.4-5.1,20.4-15.9,15-31.7c-0.1,3.8-2.6,13.2-5.2,15.5c-1.1-7.7-10.5-18.8-19.5-22.3
		C226.2,133.9,215.8,130.6,210.7,125.5z"/>
	
		<linearGradient id="SVGID_6_" gradientUnits="userSpaceOnUse" x1="7431.1914" y1="57.2038" x2="7441.1689" y2="57.2038" gradientTransform="matrix(-1 0 0 1 7699.1123 0)">
		<stop  offset="0" style="stop-color:#2F2F7F"/>
		<stop  offset="7.467423e-02" style="stop-color:#303181"/>
		<stop  offset="0.153" style="stop-color:#313985"/>
		<stop  offset="0.2329" style="stop-color:#35458C"/>
		<stop  offset="0.314" style="stop-color:#3B5597"/>
		<stop  offset="0.396" style="stop-color:#446AA6"/>
		<stop  offset="0.4777" style="stop-color:#5085BB"/>
		<stop  offset="0.4888" style="stop-color:#528ABF"/>
		<stop  offset="0.5198" style="stop-color:#4B7BAF"/>
		<stop  offset="0.6373" style="stop-color:#385485"/>
		<stop  offset="0.7479" style="stop-color:#2A3869"/>
		<stop  offset="0.8485" style="stop-color:#202457"/>
		<stop  offset="0.9358" style="stop-color:#1A164D"/>
		<stop  offset="1" style="stop-color:#18114A"/>
	</linearGradient>
	<path class="st7" d="M267.9,54.6c-0.4,3-2.4,7.6-9.2,7.1c-1.3-0.8-1.1-5.2,1.5-7.1C262.9,52.7,267.4,51.6,267.9,54.6z"/>
	<path class="st8" d="M208.7,129.7c1,0.9,2.9,3,4,3.5c-2.7-0.3-7.4-2-7.9-2.9C205.8,130.4,208.7,129.7,208.7,129.7z"/>
	<path class="st8" d="M224.1,136.6c1,0.7,2.9,2.2,3.9,2.6c-2.7-0.2-7.3-1.5-7.8-2.1C221.2,137.1,224.1,136.6,224.1,136.6z"/>
	<path class="st8" d="M243.9,147.3c0.7,1,1.7,3.2,2.4,4c-2.3-1.3-6-4.4-6.2-5.1C241.1,146.5,243.9,147.3,243.9,147.3z"/>
	<path class="st8" d="M210.6,140.7c1,0.7,2.9,2.2,3.9,2.6c-2.7-0.2-7.3-1.5-7.8-2.1C207.8,141.2,210.6,140.7,210.6,140.7z"/>
	<path class="st8" d="M229.4,147.2c0.9,0.8,2.5,2.6,3.4,3.2c-2.6-0.6-6.9-2.6-7.4-3.3C226.5,147.2,229.4,147.2,229.4,147.2z"/>
	<path class="st8" d="M247.6,163.5c0.7,0.9,2.2,2.6,2.6,3.5c-0.2-2.4-1.6-6.6-2.2-7C248,160.9,247.6,163.5,247.6,163.5z"/>
</g>
</svg>
