<?xml version="1.0" encoding="utf-8"?>
<!-- Generator: Adobe Illustrator 23.1.1, SVG Export Plug-In . SVG Version: 6.00 Build 0)  -->
<svg version="1.1" id="Layer_1" xmlns="http://www.w3.org/2000/svg" xmlns:xlink="http://www.w3.org/1999/xlink" x="0px" y="0px"
	 viewBox="0 0 314.2 216.5" style="enable-background:new 0 0 314.2 216.5;" xml:space="preserve">
<style type="text/css">
	.st0{fill:#C8DBF1;stroke:#A8B9C9;stroke-width:0.4253;stroke-miterlimit:10;}
	.st1{fill:url(#SVGID_1_);stroke:#CEA449;stroke-width:0.4253;stroke-miterlimit:10;}
	.st2{fill:#432063;}
	.st3{fill:url(#SVGID_2_);}
	.st4{fill:url(#SVGID_3_);}
	.st5{fill:url(#SVGID_4_);}
	.st6{fill:url(#SVGID_5_);stroke:#939598;stroke-width:0.2127;stroke-miterlimit:10;}
	.st7{fill:url(#SVGID_6_);}
	.st8{fill:#231F20;}
	.st9{fill:#99C05C;}
	.st10{fill-rule:evenodd;clip-rule:evenodd;fill:#231F20;}
	.st11{fill-rule:evenodd;clip-rule:evenodd;fill:#FFFFFF;}
	.st12{fill:#FFFFFF;}
	.st13{fill:#A8B9C9;}
	.st14{fill:#30459C;}
	.st15{fill:url(#SVGID_7_);}
	.st16{fill:url(#SVGID_8_);stroke:#969696;stroke-width:0.2127;stroke-miterlimit:10;}
	.st17{fill:url(#SVGID_9_);}
	.st18{fill:url(#SVGID_10_);}
</style>
<path class="st2" d="M65.5,67c1.5-0.9,2.6-2.1,3.3-3.6c0.4-0.9,0.6-1.9,0.9-3.8c-0.8,0.8-2.2,1.2-3.2,1.9c-2.3,1.5-4,3.7-4.9,5.9
	c-0.2,0.4,0.2,0.9,0.6,0.9C63.4,68.1,64.4,67.6,65.5,67z M49.3,216.5H0c1.4-3,6.4-6.3,9-6.3c1.7,0,3.6,0,4.7-0.2
	c2.3-0.4,14.4-3.1,23.7-12.4c7.9-7.9,14.4-14.8,18.7-23.6c0.8-1.6,1.2-2.6,1.8-4.3c2.3,3.2,5.8,5.6,9.4,7.2c2,2.1,3.9,3.6,6.3,5.3
	c-11.1,6.1-23.5,15.9-26,19.2c-2.5,3.3-4.5,8.4-2.8,11.2C47.6,213.8,49.3,215.6,49.3,216.5z M63,91.4c0.4-1.2,1.7-2.4,1.7-2.4l5-5.1
	c0.4-0.4,1-0.7,1.6-0.7c0.4,0,0.9,0.1,1.5,0.5c0.7,0.6,0.8,1.3,0.8,1.6c0,0.4,0,1.1-0.6,1.7c-1.1,1.1-2.2,2.3-3.3,3.3
	c-1.5,1.5-3.2,4.2-3.4,6.4c-0.1,2.4-1.5,8-4.3,9.3c-4.7,2.2-9.2,0.7-11.6-1.2s-1.2-4.3,0.7-2.8c1.8,1.5,5,3.4,8,1.7
	c2.9-1.7,3.4-4.1,3.2-7.2C62,93.6,62.6,92.6,63,91.4z M141.5,180.8 M181.4,189.1c-3.7,5.3-7,12.1-8,23.2c2.7,1.4,4.8,4.2,4.8,4.2
	h-49.5c3-5.1,7.7-6.2,8.7-6.2c2.7,0.1,6.7-0.1,10.2-0.9c5.9-1.4,10.7-3.9,14.6-8.1c3.9-4.2,3.8-9-0.4-12c-4.1-3-9.8-0.6-19.8-8.7
	c0.8-0.5,1.6-1,2.5-1.5c6.9-4.3,14-8.8,19.3-10.8c1.1-0.4,2.2-0.8,3.2-1.1C169.3,176,174.5,183.6,181.4,189.1z M311.6,190.2
	c-6.4,13.3-19.7,21.2-37.4,16.8c-17.7-4.4-28.5-21.9-33.8-29c-5.3-7.1-19-17.9-39.4-18.1c-1,0-1.9,0-2.8,0
	c1.2,12,11.4,21.3,23.8,21.3c4.3-0.1,8.5-0.5,11.3-2.9c1.5,3.3,2.4,7.1,2.4,11.3c0,0-0.7,7.3-3.7,13.8c-1.5,2.8-2.1,5.7-0.9,8.5
	c1.2,2.8,4.3,4.6,4.3,4.6h-49.7c0.8-3.1,4.3-5.8,7.5-6c3.2-0.2,23.3-1.2,24.8-7.2c1.5-5.9,0.5-7.9-3.5-8.9c-1.2-0.1-3.7,0.2-6,0
	c-19.7,0-35.9-14.1-38.5-32.4c-2.3,0.6-4.8,1.4-7.5,2.4c-11.9,4.4-30.8,19.6-41,22.3c1.2-6.6,2.8-10.9,4.4-15.5
	c-9.9,2.1-14.2-0.3-24.3-7c4.1,8.4,12.6,12.7,19,11.8c-13.2,24.6-11.7,29.2-11.3,36.3c2.1,0.3,3.9,2.2,4.4,4.1H65.5
	c2.9-5.3,9.3-6,13.1-6.1c7.9-0.2,15.3-5.1,15.3-5.1c4.6-4.1,7.5-9.2,6.2-16.4c-5.7-0.4-11.7-1.7-17.6-4.4c-14.4-6.4-25-21-27.2-33.4
	c-2.2-12.4,0-25.4,13.7-37.4c13.7-11.9,31.3-20.2,19.7-36.2c2.5,7.9-1.6,12.7-3.1,14.3c-0.9,0.9-4.3,4.5-6.9,7.3
	c-1.7,1.8-4.5,1.8-6.2,0.1c-1.7-1.7-1.7-4.4,0-6.1c1-1,2.2-2.2,3.3-3.4c2.5-2.5,2.3-6.6-0.4-8.9c-2.4-2.1-6.1-1.9-8.3,0.4l-7.7,7.9
	c-1.8,1.8-4.6,2-6.6,0.5l-3.3-2.5c-2.3-1.7-3-4.8-1.7-7.3c2.1-4.2,5.6-10.4,9.1-14.6c5.8-6.9,18.9-16.8,18.9-16.8l0.7,5
	c6.4-3.5,14.3-5.6,16.8-5.9l-3.4,6.5c10.1-2.5,18.4-3,20.5-3c-2.5,2.8-6,6.3-5.7,6.4c14.3,8.9,19.1,19,19.4,29.8
	c0.3,10.8-0.5,20.2-10,28.6c-9.5,8.4-16.7,13.9-14.4,19.3c2.3,5.4,9.1,8.6,18.8,6.3c9.7-2.3,16.4-6.9,19.7-18.1
	c3.3-11.2-4.8-17.9-5.7-23.8c-0.9-5.9,1.2-11.5,7.5-16.6c6.3-5.1,24.7-18.5,43.1-38.4c12.8-13.9,22.3-31.3,27.1-43
	c1-2.5,4.6-1.8,4.8,0.8c0.4,6.5,0.1,13.7-3.2,20.6c-5.6,11.5-22.9,35.1-22.2,34.6c13.9-11.4,23-19.3,30.9-32.3
	c1.4-2.4,2.6-4.5,3.6-6.3c1.3-2.4,4.9-1.3,4.7,1.4c-0.2,2.8-0.6,5.7-1.3,7.9c-2.3,7.4-6.9,19.8-29.2,39.7
	c11.8-6,26.8-19.2,36.6-30.3c1.7-1.9,4.8-0.4,4.3,2.2c-0.7,3.7-1.8,7.6-3.5,10c-3.8,5.7-18.6,23.9-32.9,30.8c15-5.3,29-13.8,37.4-21
	c1.8-1.5,4.5,0,4.1,2.4c-0.4,2.2-1.3,4.4-2.5,6c-2.5,3.4-17.7,18.7-36.9,26.4c7.2,0,24.4-5.5,36-12.2c2.2-1.3,4.7,1.2,3.5,3.4
	c-3.3,5.7-8,10.8-15.5,13.7c-11.1,4.2-28.5,9.3-28.5,9.3c10,0.2,22.6-1,32-3.1c2.6-0.6,4.2,2.8,2.1,4.4c-6.2,4.8-15,9.4-26.7,9.9
	c-18.4,0.8-27.4-0.4-33.3,1.4c-5.9,1.8-12.7,5.3-19,16.6c6.8-5.2,11.3-9.3,17.6-10.4c6.3-1.1,16.2,0.4,27.5,4.2
	c11.3,3.8,25.5,9.9,37.9,21.9c12.4,12,21.8,28.6,27.7,34.9c0,0,7.5,8.4,19.3,7.3s18.1-9.3,19-19.9s-5.3-17.7-17.3-23.9
	c-11.9-6.2-20.1-13.7-20.1-22.6s4.9-15.7,9.7-19.2c-2-0.7-10.8-4.4-10.8-4.4l32.1-16.4l-13.1,33.6l-4-10.4
	c-7.3,6.6-10.2,16.8-5.8,22.3c4.4,5.5,26.1,15,31.2,21C311.4,161.8,318,176.9,311.6,190.2z"/>
</svg>
