<?xml version="1.0" encoding="UTF-8"?>
<svg width="71px" height="80px" viewBox="0 0 71 80" version="1.1" xmlns="http://www.w3.org/2000/svg" xmlns:xlink="http://www.w3.org/1999/xlink">
    <!-- Generator: Sketch 59.1 (86144) - https://sketch.com -->
    <title>Group 6</title>
    <desc>Created with Sketch.</desc>
    <g id="L-Individual-Profile" stroke="none" stroke-width="1" fill="none" fill-rule="evenodd" opacity="0.2">
        <g id="L00H---TW-Home-Page" transform="translate(-149.000000, -303.000000)" fill="#000000">
            <g id="Group-6" transform="translate(149.000000, 303.000000)">
                <path d="M20.9186207,24.0278621 L28.4358621,24.0278621 L28.4358621,16.5106207 L20.9186207,16.5106207 L20.9186207,24.0278621 Z M18.0450575,26.9014253 L31.3094253,26.9014253 L31.3094253,13.6370575 L18.0450575,13.6370575 L18.0450575,26.9014253 Z" id="Fill-1"></path>
                <path d="M42.1333333,24.0278621 L49.6505747,24.0278621 L49.6505747,16.5106207 L42.1333333,16.5106207 L42.1333333,24.0278621 Z M39.2597701,26.9014253 L52.5241379,26.9014253 L52.5241379,13.6370575 L39.2597701,13.6370575 L39.2597701,26.9014253 Z" id="Fill-2"></path>
                <path d="M20.9186207,41.7777471 L28.4358621,41.7777471 L28.4358621,34.2614253 L20.9186207,34.2614253 L20.9186207,41.7777471 Z M18.0450575,44.6513103 L31.3094253,44.6513103 L31.3094253,31.3878621 L18.0450575,31.3878621 L18.0450575,44.6513103 Z" id="Fill-3"></path>
                <path d="M42.1333333,41.7777471 L49.6505747,41.7777471 L49.6505747,34.2614253 L42.1333333,34.2614253 L42.1333333,41.7777471 Z M39.2597701,44.6513103 L52.5241379,44.6513103 L52.5241379,31.3878621 L39.2597701,31.3878621 L39.2597701,44.6513103 Z" id="Fill-4"></path>
                <path d="M8.52165517,-0.000183908046 L8.52165517,76.6287816 L0.000275862069,76.6287816 L0.000275862069,79.5014253 L8.52165517,79.5014253 L28.5446437,79.5014253 L42.026023,79.5014253 L62.048092,79.5014253 L70.5694713,79.5014253 L70.5694713,76.6287816 L62.048092,76.6287816 L62.048092,-0.000183908046 L8.52165517,-0.000183908046 Z M11.3952184,2.87429885 L59.1745287,2.87429885 L59.1745287,76.6287816 L42.026023,76.6287816 L42.026023,64.2894713 L28.5446437,64.2894713 L28.5446437,76.6287816 L11.3952184,76.6287816 L11.3952184,2.87429885 Z M31.4172874,76.6278621 L39.1515402,76.6278621 L39.1515402,67.1621149 L31.4172874,67.1621149 L31.4172874,76.6278621 Z" id="Fill-5"></path>
            </g>
        </g>
    </g>
</svg>