<?xml version="1.0" encoding="UTF-8"?>
<svg width="48px" height="54px" viewBox="0 0 48 54" version="1.1" xmlns="http://www.w3.org/2000/svg" xmlns:xlink="http://www.w3.org/1999/xlink">
    <!-- Generator: Sketch 59.1 (86144) - https://sketch.com -->
    <title>Icon / Finish Flag</title>
    <desc>Created with Sketch.</desc>
    <g id="Icon-/-Finish-Flag" stroke="none" stroke-width="1" fill="none" fill-rule="evenodd">
        <path d="M40.694,14.8722 C42.38,14.9712 44.132,14.7702 45.976,14.1502 C46.334,12.5212 46.692,10.8922 47.049,9.2622 C45.206,9.8822 43.454,10.0822 41.767,9.9842 C41.41,11.6132 41.051,13.2432 40.694,14.8722" id="Fill-4" fill="#000000"></path>
        <path d="M31.154,11.6471 C32.682,12.4641 34.224,13.2211 35.805,13.7981 C36.164,12.1691 36.521,10.5401 36.88,8.9101 C35.299,8.3331 33.757,7.5761 32.228,6.7591 C31.87,8.3881 31.512,10.0181 31.154,11.6471" id="Fill-6" fill="#000000"></path>
        <path d="M21.9304,6.986 C23.5114,7.563 25.0534,8.32 26.5814,9.137 C26.9394,7.507 27.2974,5.878 27.6564,4.249 C26.1264,3.432 24.5854,2.675 23.0034,2.098 C22.6464,3.727 22.2874,5.357 21.9304,6.986" id="Fill-8" fill="#000000"></path>
        <path d="M11.7595,6.6334 C13.6035,6.0134 15.3555,5.8134 17.0425,5.9114 C17.4005,4.2824 17.7585,2.6534 18.1155,1.0244 C16.4295,0.9254 14.6775,1.1264 12.8335,1.7454 C12.4755,3.3754 12.1175,5.0044 11.7595,6.6334" id="Fill-10" fill="#000000"></path>
        <path d="M34.7312,18.6867 C36.3132,19.2637 37.9332,19.6617 39.6202,19.7607 C39.9772,18.1307 40.3352,16.5017 40.6942,14.8727 C39.0072,14.7737 37.3862,14.3757 35.8052,13.7987 C35.4482,15.4277 35.0892,17.0577 34.7312,18.6867" id="Fill-12" fill="#000000"></path>
        <path d="M25.5075,14.025 C27.0365,14.842 28.5515,15.718 30.0795,16.535 C30.4385,14.906 30.7965,13.276 31.1535,11.647 C29.6255,10.83 28.1105,9.954 26.5815,9.137 C26.2235,10.766 25.8655,12.396 25.5075,14.025" id="Fill-14" fill="#000000"></path>
        <path d="M15.9684,10.7999 C17.6544,10.8989 19.2754,11.2969 20.8564,11.8739 C21.2144,10.2439 21.5724,8.6149 21.9304,6.9859 C20.3494,6.4079 18.7284,6.0099 17.0424,5.9119 C16.6844,7.5409 16.3264,9.1709 15.9684,10.7999" id="Fill-16" fill="#000000"></path>
        <path d="M38.5456,24.6486 C40.2326,24.7466 41.9836,24.5466 43.8286,23.9266 C44.1866,22.2976 44.5446,20.6686 44.9016,19.0386 C43.0586,19.6586 41.3066,19.8586 39.6196,19.7606 C39.2616,21.3896 38.9036,23.0196 38.5456,24.6486" id="Fill-18" fill="#000000"></path>
        <path d="M29.0065,21.4235 C30.5345,22.2405 32.0765,22.9975 33.6575,23.5745 C34.0155,21.9455 34.3735,20.3155 34.7315,18.6865 C33.1505,18.1095 31.6095,17.3525 30.0795,16.5355 C29.7225,18.1645 29.3635,19.7945 29.0065,21.4235" id="Fill-20" fill="#000000"></path>
        <path d="M19.7824,16.7619 C21.3634,17.3399 22.9054,18.0959 24.4344,18.9129 C24.7914,17.2839 25.1504,15.6549 25.5074,14.0249 C23.9794,13.2079 22.4374,12.4509 20.8564,11.8739 L19.7824,16.7619 Z" id="Fill-22" fill="#000000"></path>
        <path d="M9.612,16.4098 C11.456,15.7898 13.208,15.5898 14.895,15.6878 L15.968,10.7998 C14.282,10.7018 12.53,10.9018 10.686,11.5218 L9.612,16.4098 Z" id="Fill-24" fill="#000000"></path>
        <path d="M32.5837,28.4625 C34.1647,29.0405 35.7857,29.4385 37.4727,29.5365 C37.8297,27.9075 38.1887,26.2775 38.5457,24.6485 C36.8587,24.5495 35.2387,24.1515 33.6577,23.5745 C33.2997,25.2045 32.9417,26.8335 32.5837,28.4625" id="Fill-26" fill="#000000"></path>
        <path d="M23.36,23.8009 C24.888,24.6179 26.404,25.4949 27.932,26.3119 C28.291,24.6819 28.648,23.0529 29.006,21.4239 C27.478,20.6069 25.963,19.7299 24.434,18.9129 C24.076,20.5429 23.718,22.1719 23.36,23.8009" id="Fill-28" fill="#000000"></path>
        <path d="M13.8205,20.5763 C15.5075,20.6753 17.1275,21.0723 18.7085,21.6503 L19.7825,16.7623 C18.2015,16.1843 16.5805,15.7863 14.8945,15.6883 C14.5365,17.3173 14.1785,18.9473 13.8205,20.5763" id="Fill-30" fill="#000000"></path>
        <path d="M36.3981,34.4249 C38.0851,34.5239 39.8361,34.3219 41.6801,33.7029 C42.0391,32.0729 42.3961,30.4439 42.7541,28.8149 C40.9111,29.4339 39.1581,29.6349 37.4721,29.5359 C37.1141,31.1659 36.7561,32.7949 36.3981,34.4249" id="Fill-32" fill="#000000"></path>
        <path d="M26.8591,31.1994 C28.3871,32.0164 29.9291,32.7734 31.5101,33.3504 C31.8681,31.7214 32.2261,30.0924 32.5841,28.4624 C31.0031,27.8854 29.4621,27.1284 27.9321,26.3114 C27.5751,27.9414 27.2161,29.5704 26.8591,31.1994" id="Fill-34" fill="#000000"></path>
        <path d="M17.6349,26.5382 C19.2159,27.1152 20.7579,27.8722 22.2869,28.6892 C22.6439,27.0592 23.0029,25.4312 23.3599,23.8012 C21.8319,22.9842 20.2899,22.2272 18.7089,21.6502 L17.6349,26.5382 Z" id="Fill-36" fill="#000000"></path>
        <path d="M7.4645,26.1857 C9.3085,25.5657 11.0605,25.3657 12.7465,25.4637 C13.1045,23.8347 13.4625,22.2057 13.8205,20.5767 C12.1345,20.4777 10.3815,20.6777 8.5385,21.2977 C8.1805,22.9277 7.8225,24.5567 7.4645,26.1857" id="Fill-38" fill="#000000"></path>
        <rect id="Rectangle-8" fill="#000000" transform="translate(6.935573, 26.045758) rotate(103.000000) translate(-6.935573, -26.045758) " x="-19.564427" y="25.0457578" width="53" height="2" rx="1"></rect>
    </g>
</svg>