<?xml version="1.0" encoding="UTF-8"?>
<svg width="15px" height="16px" viewBox="0 0 15 16" version="1.1" xmlns="http://www.w3.org/2000/svg" xmlns:xlink="http://www.w3.org/1999/xlink">
    <!-- Generator: Sketch 59.1 (86144) - https://sketch.com -->
    <title>Icon / Coin</title>
    <desc>Created with Sketch.</desc>
    <defs>
        <polygon id="path-1" points="0 0 14.2448 0 14.2448 15.9998 0 15.9998"></polygon>
    </defs>
    <g id="Icon-/-Coin" stroke="none" stroke-width="1" fill="none" fill-rule="evenodd">
        <g id="Group-6">
            <g id="Group-3">
                <mask id="mask-2" fill="white">
                    <use xlink:href="#path-1"></use>
                </mask>
                <g id="Clip-2"></g>
                <path d="M13.6018,10.6198 L13.6018,9.2798 C13.4858,9.6298 13.3418,9.9668 13.1728,10.2878 L13.1728,10.6198 L13.6018,10.6198 Z M1.1658,10.6198 L1.1658,10.4638 C1.0008,10.1718 0.8568,9.8658 0.7368,9.5488 L0.7368,10.6198 L1.1658,10.6198 Z M12.7498,12.6978 L12.7498,11.0898 L12.6798,11.0898 C12.4928,11.3508 12.2878,11.5978 12.0668,11.8298 L12.0668,12.6978 L12.7498,12.6978 Z M2.2728,12.6978 L2.2718,11.9288 C2.0238,11.6788 1.7958,11.4098 1.5878,11.1228 L1.5888,12.6978 L2.2728,12.6978 Z M12.9568,7.1218 C12.9568,3.9008 10.3428,1.2868 7.1218,1.2868 C3.9008,1.2868 1.2868,3.9008 1.2868,7.1218 C1.2868,10.3428 3.9008,12.9568 7.1218,12.9568 C10.3428,12.9568 12.9568,10.3428 12.9568,7.1218 L12.9568,7.1218 Z M11.1228,14.1008 L11.1228,12.6548 C10.8518,12.8508 10.5658,13.0288 10.2668,13.1838 L10.2668,14.1008 L11.1228,14.1008 Z M4.0718,14.1008 L4.0718,13.2328 C3.7738,13.0838 3.4868,12.9128 3.2148,12.7228 L3.2158,14.1008 L4.0718,14.1008 Z M9.4968,15.0478 L9.4968,13.5258 C9.2188,13.6298 8.9328,13.7148 8.6398,13.7818 L8.6398,15.0478 L9.4968,15.0478 Z M5.6998,15.0478 L5.6988,13.8028 C5.4068,13.7398 5.1208,13.6598 4.8428,13.5608 L4.8428,15.0478 L5.6998,15.0478 Z M7.6978,15.4118 L7.6978,13.9268 C7.5078,13.9428 7.3148,13.9508 7.1218,13.9508 C7.0278,13.9508 6.9338,13.9488 6.8408,13.9448 L6.8408,15.4118 L7.6978,15.4118 Z M-0.0002,8.8768 L-0.0002,7.1218 C-0.0002,3.1908 3.1898,-0.0002 7.1228,-0.0002 C11.0538,-0.0002 14.2448,3.1908 14.2448,7.1218 L14.2448,8.8768 C14.2448,12.8088 11.0538,15.9998 7.1228,15.9998 C3.1898,15.9998 -0.0002,12.8088 -0.0002,8.8768 L-0.0002,8.8768 Z" id="Fill-1" fill="#000000" mask="url(#mask-2)"></path>
            </g>
            <g id="Icon-/-Little-Purple-Star" transform="translate(3.166016, 2.941273)" fill="#410166">
                <path d="M5.60768411,7.36112654 L4.14068411,6.44112654 C4.02468411,6.36812654 3.83768411,6.36912654 3.72268411,6.44212654 L2.29668411,7.35112654 C1.60568411,7.79212654 1.20668411,7.50512654 1.40568411,6.71012654 L1.82768411,5.03012654 C1.86068411,4.89812654 1.80268411,4.71912654 1.69668411,4.63212654 L0.391684115,3.55812654 C-0.241315885,3.03712654 -0.0913158855,2.56812654 0.727684115,2.51212654 L2.45468411,2.39412654 C2.59068411,2.38512654 2.74268411,2.27412654 2.79268411,2.14712654 L3.41068411,0.573126539 C3.71168411,-0.189873461 4.20368411,-0.190873461 4.50968411,0.569126539 L5.15568411,2.17612654 C5.20668411,2.30212654 5.35868411,2.41212654 5.49468411,2.42112654 L7.18268411,2.52312654 C8.00168411,2.57312654 8.15468411,3.04012654 7.52568411,3.56612654 L6.19768411,4.67612654 C6.09168411,4.76412654 6.03568411,4.94312654 6.06968411,5.07512654 L6.49368411,6.71212654 C6.69968411,7.50612654 6.30268411,7.79712654 5.60768411,7.36112654" id="Fill-4"></path>
            </g>
        </g>
    </g>
</svg>