<?xml version="1.0" encoding="UTF-8"?>
<svg width="50px" height="50px" viewBox="0 0 50 50" version="1.1" xmlns="http://www.w3.org/2000/svg" xmlns:xlink="http://www.w3.org/1999/xlink">
    <!-- Generator: Sketch 59.1 (86144) - https://sketch.com -->
    <title>Logo / Blank Company</title>
    <desc>Created with Sketch.</desc>
    <g id="Logo-/-Blank-Company" stroke="none" stroke-width="1" fill="none" fill-rule="evenodd">
        <polygon id="Fill-1" fill="#C4C4C4" points="0 49.932 49.999 49.932 49.999 0 0 0"></polygon>
        <path d="M36.2382,49.2411 C36.2982,49.0391 36.4662,48.9131 36.6922,48.9041 C37.1342,48.8871 37.5762,48.8691 38.0172,48.8521 C38.0412,48.8511 38.0642,48.8481 38.1052,48.8451 C38.1082,48.7621 38.1122,48.6801 38.1132,48.5981 C38.1142,48.5191 38.1132,48.4401 38.1132,48.3431 C38.0182,48.3351 37.9312,48.3261 37.8442,48.3211 C37.6472,48.3061 37.5182,48.1651 37.5242,47.9671 C37.5292,47.7971 37.6322,47.6871 37.8022,47.6711 C37.8542,47.6661 37.9062,47.6671 37.9582,47.6641 C38.0092,47.6621 38.0592,47.6581 38.1252,47.6551 C38.1282,47.5901 38.1342,47.5311 38.1342,47.4711 C38.1342,45.9381 38.1342,44.4051 38.1342,42.8711 C38.1342,42.1471 38.1342,41.4231 38.1342,40.6991 C38.1342,40.6581 38.1472,40.6171 38.1542,40.5761 C38.1572,40.5601 38.1692,40.5371 38.1622,40.5271 C38.1102,40.4541 38.1352,40.3711 38.1352,40.2941 C38.1342,38.1631 38.1342,36.0331 38.1352,33.9021 C38.1352,33.8481 38.1512,33.7931 38.1602,33.7391 C38.1622,33.7261 38.1712,33.7091 38.1652,33.7021 C38.1022,33.6161 38.1352,33.5191 38.1352,33.4281 C38.1342,31.1611 38.1342,28.8941 38.1352,26.6271 C38.1352,26.5831 38.1342,26.5491 38.0952,26.5161 C38.0082,26.4461 37.9952,26.3521 38.0312,26.2491 C38.0702,26.1361 38.1602,26.0941 38.2702,26.0841 C38.3162,26.0801 38.3632,26.0841 38.4072,26.0841 C38.4392,25.9281 38.4332,25.6561 38.4062,25.5811 C38.3172,25.5561 38.2302,25.5491 38.1642,25.5101 C38.0812,25.4591 38.0502,25.3621 38.0342,25.2681 C38.0212,25.1891 38.0142,25.1101 38.0092,25.0301 C37.9712,24.4971 37.7482,24.0641 37.2772,23.8001 C36.9992,23.6441 36.9582,23.3121 37.1552,23.0991 C37.1652,23.0891 37.1702,23.0751 37.1852,23.0511 C37.1432,23.0441 37.1102,23.0381 37.0752,23.0341 C36.9172,23.0131 36.7582,23.0001 36.6002,22.9731 C36.3672,22.9321 36.1842,22.6931 36.1842,22.4051 C36.1842,22.1651 36.3092,21.9291 36.4182,21.8491 L36.4202,21.8491 C36.4442,21.4941 36.6652,21.1841 37.0402,21.1151 C37.0722,21.1091 37.1042,21.1061 37.1112,21.1051 C37.1822,21.0171 37.2332,20.9401 37.3002,20.8791 C37.3342,20.8471 37.3972,20.8271 37.4432,20.8331 C37.5522,20.8491 37.6182,20.7921 37.6882,20.7251 C38.2652,20.1751 38.6052,19.5061 38.6942,18.7111 C38.7532,18.1851 38.6892,17.6741 38.4862,17.1891 C38.0312,16.1021 37.2212,15.4341 36.0642,15.2031 C35.8542,15.1621 35.6342,15.1631 35.4202,15.1511 C35.3772,15.1481 35.3212,15.1601 35.2912,15.1871 C35.1542,15.3111 35.0122,15.3061 34.8592,15.2161 C34.8202,15.2411 34.7812,15.2661 34.7412,15.2901 C34.3822,15.5081 33.9202,15.4211 33.6662,15.0861 C33.4172,14.7601 33.4532,14.2921 33.7512,14.0051 C33.7742,13.9821 33.8002,13.9621 33.8242,13.9391 C33.8682,13.8991 33.8862,13.8581 33.8742,13.7911 C33.8392,13.6051 33.9152,13.4741 34.0922,13.4211 C34.1742,13.3961 34.2012,13.3421 34.2282,13.2761 C34.6922,12.1581 34.5972,11.0881 33.9002,10.1001 C33.2732,9.2111 32.3862,8.7711 31.3012,8.7481 C30.8082,8.7381 30.3402,8.8501 29.8952,9.0631 C29.8322,9.0931 29.7952,9.1271 29.7792,9.2031 C29.7502,9.3541 29.6422,9.4331 29.4882,9.4421 C29.4612,9.4441 29.4322,9.4421 29.3922,9.4421 C29.2482,9.6591 29.0482,9.8041 28.7772,9.8341 C28.5682,9.8571 28.3762,9.8071 28.2052,9.6821 C27.8412,9.4171 27.7802,8.9881 28.0372,8.5121 C27.8462,8.2351 27.8892,8.0481 28.1702,7.9291 C28.3112,7.0441 27.9612,5.7221 26.7842,4.9221 C25.7072,4.1911 24.2882,4.1801 23.1972,4.9101 C22.1032,5.6411 21.6452,6.8871 21.7882,7.9211 C22.0962,7.9921 22.1802,8.2761 21.9552,8.5121 C21.9992,8.6241 22.0552,8.7281 22.0832,8.8401 C22.1742,9.2101 21.9962,9.5821 21.6592,9.7521 C21.3232,9.9221 20.9152,9.8411 20.6722,9.5521 C20.6162,9.4851 20.5672,9.4371 20.4672,9.4351 C20.3392,9.4331 20.2462,9.3321 20.2172,9.2031 C20.2122,9.1761 20.2102,9.1481 20.2062,9.1171 C19.8982,8.9521 19.5752,8.8411 19.2332,8.7901 C18.2572,8.6441 17.3832,8.8811 16.6282,9.5181 C16.0132,10.0361 15.6482,10.7011 15.5282,11.4951 C15.4342,12.1211 15.5192,12.7241 15.7812,13.3021 C15.8072,13.3611 15.8402,13.3981 15.9062,13.4191 C16.0662,13.4701 16.1502,13.5761 16.1262,13.7351 C16.1052,13.8641 16.1612,13.9381 16.2382,14.0181 C16.4562,14.2431 16.5262,14.5121 16.4452,14.8121 C16.3042,15.3321 15.7112,15.5681 15.2452,15.2951 C15.2092,15.2741 15.1742,15.2511 15.1352,15.2271 C15.1002,15.2401 15.0652,15.2531 15.0302,15.2661 C14.9282,15.3031 14.8282,15.2901 14.7532,15.2191 C14.6812,15.1521 14.6052,15.1471 14.5202,15.1471 C13.5982,15.1551 12.8162,15.4911 12.1742,16.1511 C11.9662,16.3651 11.7962,16.6071 11.6562,16.8711 C11.3122,17.5171 11.2122,18.2051 11.3332,18.9221 C11.4572,19.6521 11.8052,20.2651 12.3542,20.7631 C12.3892,20.7951 12.4422,20.8291 12.4852,20.8281 C12.6782,20.8221 12.7992,20.9081 12.8522,21.0971 C12.8842,21.1031 12.9152,21.1091 12.9462,21.1161 C13.3222,21.1981 13.5022,21.4961 13.5242,21.8511 C13.6792,21.8921 13.8132,22.1551 13.8102,22.3821 C13.8062,22.6961 13.6522,22.9101 13.3562,22.9791 C13.1832,23.0191 13.0042,23.0281 12.8162,23.0531 C12.8382,23.0831 12.8572,23.1111 12.8782,23.1391 C13.0402,23.3691 12.9852,23.6351 12.7442,23.7791 C12.2862,24.0531 12.0402,24.4571 11.9952,24.9861 C11.9872,25.0711 11.9852,25.1561 11.9712,25.2391 C11.9332,25.4781 11.8332,25.5641 11.6002,25.5631 C11.5672,25.6571 11.5622,25.9221 11.5922,26.0781 C11.6322,26.0801 11.6732,26.0811 11.7152,26.0831 C11.8252,26.0891 11.9242,26.1261 11.9622,26.2371 C11.9992,26.3431 11.9932,26.4491 11.8922,26.5311 C11.8682,26.5501 11.8592,26.5921 11.8492,26.6251 C11.8432,26.6461 11.8482,26.6711 11.8482,26.6951 C11.8482,28.9811 11.8482,31.2661 11.8472,33.5521 C11.8472,33.6141 11.8172,33.6761 11.8172,33.7381 C11.8172,33.8011 11.8462,33.8651 11.8462,33.9281 C11.8482,36.0781 11.8472,38.2271 11.8532,40.3761 C11.8532,40.4511 11.7862,40.5041 11.8222,40.5871 C11.8492,40.6471 11.8472,40.7231 11.8472,40.7931 C11.8482,43.0121 11.8482,45.2331 11.8482,47.4521 L11.8482,47.6501 C11.9232,47.6561 11.9862,47.6601 12.0502,47.6641 C12.0872,47.6671 12.1252,47.6671 12.1622,47.6691 C12.3652,47.6801 12.4792,47.7971 12.4792,47.9891 C12.4782,48.1651 12.3432,48.3061 12.1612,48.3201 C12.0772,48.3261 11.9932,48.3321 11.8992,48.3391 L11.8992,48.8441 C11.9452,48.8471 11.9912,48.8521 12.0362,48.8531 C12.4642,48.8701 12.8912,48.8851 13.3192,48.9051 C13.6862,48.9221 13.9472,49.1851 13.7692,49.5161 C13.6632,49.7151 13.4582,49.9191 13.2242,49.9311 C13.1562,49.9351 12.9072,49.9281 12.5462,49.9311 L24.8632,49.9311 L37.2502,49.9311 C37.0012,49.9281 36.8222,49.9361 36.7462,49.9311 C36.3822,49.9061 36.1362,49.5901 36.2382,49.2411" id="Fill-2" fill="#D5D5D5"></path>
        <path d="M43.7607,49.1883 C43.6777,49.0053 43.5257,48.9133 43.3237,48.9043 C42.9247,48.8863 42.5257,48.8713 42.1257,48.8543 C42.0667,48.8523 42.0067,48.8503 41.9477,48.8473 L41.9477,48.3403 C42.0307,48.3333 42.1057,48.3253 42.1797,48.3203 C42.3767,48.3083 42.5137,48.1723 42.5117,47.9893 C42.5097,47.7973 42.3877,47.6783 42.1777,47.6663 C42.1167,47.6633 42.0557,47.6643 41.9937,47.6613 C41.9587,47.6583 41.9237,47.6503 41.8807,47.6433 L41.8807,47.4653 L41.8807,43.3743 C41.8807,42.5033 41.8817,41.6333 41.8797,40.7633 C41.8797,40.6913 41.8637,40.6193 41.8537,40.5403 C41.8637,40.4703 41.8797,40.4023 41.8797,40.3353 C41.8807,38.2053 41.8817,36.0743 41.8797,33.9433 C41.8797,33.8753 41.8567,33.8083 41.8457,33.7393 C41.8427,33.7233 41.8457,33.7063 41.8477,33.6893 C41.8587,33.6263 41.8797,33.5633 41.8797,33.5003 C41.8817,31.2433 41.8807,28.9853 41.8807,26.7283 C41.8807,26.6993 41.8827,26.6713 41.8807,26.6433 C41.8767,26.5933 41.8877,26.5553 41.9327,26.5223 C42.0197,26.4613 42.0397,26.3723 42.0117,26.2723 C41.9797,26.1603 41.8977,26.1033 41.7867,26.0853 C41.7377,26.0783 41.6857,26.0793 41.6377,26.0773 C41.6047,25.8983 41.6127,25.6523 41.6517,25.5613 C41.8657,25.5673 41.9507,25.5043 42.0057,25.2883 C42.0227,25.2213 42.0277,25.1493 42.0317,25.0793 C42.0637,24.5083 42.3027,24.0583 42.8087,23.7713 C43.0047,23.6603 43.0847,23.4093 42.9457,23.1713 C42.9227,23.1323 42.8937,23.0973 42.8557,23.0423 C42.9527,23.0373 43.0317,23.0343 43.1097,23.0283 C43.2507,23.0193 43.3917,23.0053 43.5207,22.9403 C43.6707,22.8643 43.7817,22.7553 43.8057,22.5813 C43.8507,22.2693 43.6267,21.9593 43.3187,21.9053 C43.2357,21.8913 43.1507,21.8863 43.0667,21.8783 C43.0207,21.8753 42.9737,21.8713 42.9267,21.8673 L42.9267,21.8023 L42.9267,21.6843 C42.9307,21.2033 42.7167,20.7873 42.5277,20.4193 C42.4097,20.1923 42.2887,19.9593 42.2737,19.7963 C42.1807,18.8663 42.0087,17.9393 41.7627,17.0423 C41.6877,16.7693 41.6027,16.4993 41.5197,16.2383 L41.4597,16.0493 C41.4347,15.9683 41.4037,15.9033 41.3807,15.8553 C41.3757,15.8453 41.3697,15.8343 41.3657,15.8263 C41.3647,15.8183 41.3637,15.8113 41.3617,15.8033 C41.3517,15.7593 41.3377,15.6983 41.3127,15.6283 C41.0647,14.9493 40.8017,14.3403 40.5087,13.7683 C40.2627,13.2893 40.0537,12.9043 39.8507,12.5583 C39.6287,12.1793 39.3817,11.7903 39.1167,11.4013 C38.8657,11.0313 38.5927,10.6553 38.3057,10.2843 C37.9997,9.8893 37.7137,9.5413 37.4317,9.2203 C37.0857,8.8283 36.7097,8.4113 36.3057,8.0103 C35.7767,7.4863 35.2897,7.0333 34.8207,6.6243 C34.3287,6.1953 33.7977,5.7643 33.2407,5.3423 C32.7757,4.9893 32.2517,4.6173 31.5937,4.1723 C30.6627,3.5433 29.7057,2.9693 28.7507,2.4663 C28.0087,2.0753 27.2497,1.6883 26.5167,1.3153 C26.1837,1.1463 25.8507,0.9763 25.5187,0.8063 C25.3527,0.7203 25.1777,0.6773 24.9987,0.6773 C24.8227,0.6773 24.6487,0.7203 24.4817,0.8053 L23.9167,1.0913 C23.4477,1.3303 22.9777,1.5683 22.5067,1.8053 C21.0227,2.5513 19.7087,3.3073 18.4897,4.1143 C18.4037,4.1723 18.3237,4.2333 18.2527,4.2873 C18.1987,4.3283 18.1467,4.3683 18.0987,4.4003 C18.0497,4.4333 17.9947,4.4673 17.9367,4.5023 C17.8557,4.5513 17.7637,4.6073 17.6727,4.6723 C17.3607,4.8943 17.0277,5.1343 16.6987,5.3843 C16.3647,5.6373 16.0417,5.8943 15.7377,6.1453 C15.4227,6.4053 15.1137,6.6713 14.8187,6.9373 C14.5077,7.2173 14.2057,7.5003 13.9227,7.7793 C13.6287,8.0683 13.3437,8.3623 13.0757,8.6523 C12.8057,8.9443 12.5337,9.2533 12.2667,9.5713 C12.0207,9.8653 11.7767,10.1703 11.5417,10.4783 C10.4107,11.9683 9.5137,13.5353 8.8757,15.1363 L8.8317,15.2453 C8.7477,15.4513 8.6537,15.6843 8.5997,15.9443 C8.5947,15.9613 8.5737,16.0063 8.5597,16.0393 C8.5307,16.1023 8.4937,16.1803 8.4647,16.2713 C8.0427,17.5703 7.7817,18.8953 7.6907,20.2093 C7.6837,20.2993 7.5597,20.5063 7.4697,20.6583 C7.2867,20.9623 7.0797,21.3083 7.0657,21.7283 C7.0657,21.7463 7.0637,21.7653 7.0627,21.7843 L7.0607,21.8693 C6.9487,21.8783 6.8397,21.8873 6.7317,21.8983 C6.4897,21.9213 6.2867,22.0893 6.2157,22.3203 C6.1267,22.6113 6.2387,22.8373 6.5217,22.9583 C6.6507,23.0123 6.7857,23.0193 6.9207,23.0303 C6.9897,23.0363 7.0577,23.0393 7.1427,23.0433 C7.1197,23.0793 7.1107,23.0943 7.1007,23.1083 C6.9007,23.3733 6.9487,23.6203 7.2337,23.7943 C7.6157,24.0283 7.8517,24.3663 7.9317,24.8063 C7.9587,24.9543 7.9627,25.1053 7.9847,25.2533 C7.9977,25.3533 8.0307,25.4553 8.1167,25.5093 C8.1827,25.5493 8.2697,25.5563 8.3757,25.5853 C8.3807,25.7323 8.3817,25.9013 8.3737,26.0773 C8.3117,26.0803 8.2597,26.0783 8.2087,26.0863 C8.1107,26.1023 8.0297,26.1493 7.9957,26.2483 C7.9607,26.3483 7.9657,26.4483 8.0587,26.5163 C8.1177,26.5603 8.1017,26.6153 8.1017,26.6683 C8.1017,28.9123 8.1017,31.1553 8.1037,33.3993 C8.1037,33.5003 8.0717,33.6063 8.1367,33.7013 C8.1417,33.7093 8.1337,33.7253 8.1317,33.7383 C8.1217,33.8063 8.1037,33.8753 8.1027,33.9423 C8.1017,36.0593 8.1017,38.1753 8.1037,40.2923 C8.1037,40.3693 8.1237,40.4473 8.1337,40.5243 C8.1357,40.5373 8.1397,40.5533 8.1337,40.5623 C8.0797,40.6343 8.1027,40.7163 8.1027,40.7943 C8.1017,43.0233 8.1017,45.2523 8.1017,47.4823 L8.1017,47.6543 C7.9847,47.6593 7.8857,47.6623 7.7877,47.6683 C7.6607,47.6783 7.5647,47.7373 7.5117,47.8563 C7.4187,48.0653 7.5607,48.2963 7.7927,48.3193 C7.8797,48.3273 7.9667,48.3343 8.0637,48.3423 L8.0637,48.5963 C8.0627,48.6793 8.0597,48.7613 8.0577,48.8533 C7.9937,48.8533 7.9477,48.8513 7.9007,48.8533 C7.4867,48.8703 7.0727,48.8843 6.6587,48.9053 C6.4237,48.9173 6.2547,49.0733 6.1997,49.2943 C6.1147,49.6363 6.4077,49.9143 6.7157,49.9313 C7.0987,49.9523 10.9417,49.9423 12.5457,49.9313 C12.9067,49.9283 13.1567,49.9353 13.2247,49.9313 C13.4577,49.9183 13.6627,49.7143 13.7697,49.5163 C13.9477,49.1853 13.6867,48.9223 13.3197,48.9053 C12.8917,48.8853 12.4637,48.8703 12.0357,48.8533 C11.9907,48.8523 11.9457,48.8473 11.8997,48.8433 L11.8997,48.3393 C11.9927,48.3323 12.0767,48.3263 12.1607,48.3193 C12.3437,48.3063 12.4787,48.1653 12.4797,47.9893 C12.4797,47.7963 12.3647,47.6803 12.1617,47.6693 C12.1247,47.6673 12.0867,47.6673 12.0497,47.6643 C11.9867,47.6603 11.9227,47.6553 11.8487,47.6503 L11.8487,47.4523 C11.8487,45.2323 11.8487,43.0123 11.8477,40.7923 C11.8477,40.7233 11.8497,40.6473 11.8227,40.5863 C11.7857,40.5043 11.8537,40.4513 11.8537,40.3763 C11.8477,38.2273 11.8487,36.0783 11.8467,33.9283 C11.8467,33.8643 11.8177,33.8013 11.8177,33.7373 C11.8177,33.6753 11.8477,33.6143 11.8477,33.5523 C11.8487,31.2663 11.8487,28.9803 11.8487,26.6943 C11.8487,26.6713 11.8437,26.6463 11.8497,26.6253 C11.8597,26.5913 11.8677,26.5503 11.8927,26.5303 C11.9927,26.4483 11.9987,26.3433 11.9617,26.2363 C11.9237,26.1263 11.8247,26.0893 11.7147,26.0833 C11.6727,26.0813 11.6317,26.0803 11.5917,26.0783 C11.5627,25.9223 11.5677,25.6573 11.6007,25.5633 C11.8327,25.5643 11.9337,25.4783 11.9717,25.2393 C11.9857,25.1553 11.9877,25.0703 11.9947,24.9863 C12.0397,24.4573 12.2857,24.0523 12.7437,23.7793 C12.9857,23.6353 13.0397,23.3693 12.8777,23.1393 C12.8577,23.1113 12.8377,23.0833 12.8167,23.0533 C13.0037,23.0273 13.1837,23.0193 13.3567,22.9793 C13.6527,22.9103 13.8067,22.6963 13.8107,22.3813 C13.8137,22.1553 13.6797,21.8923 13.5247,21.8513 C13.5017,21.4963 13.3227,21.1983 12.9467,21.1153 C12.9147,21.1083 12.8837,21.1033 12.8527,21.0973 C12.7987,20.9073 12.6787,20.8223 12.4857,20.8283 C12.4427,20.8293 12.3897,20.7953 12.3547,20.7633 C11.8057,20.2653 11.4567,19.6513 11.3327,18.9213 C11.2117,18.2053 11.3127,17.5173 11.6567,16.8713 C11.7957,16.6073 11.9657,16.3643 12.1737,16.1513 C12.8167,15.4913 13.5987,15.1553 14.5207,15.1473 C14.6057,15.1463 14.6817,15.1523 14.7527,15.2193 C14.8277,15.2903 14.9287,15.3023 15.0307,15.2663 C15.0657,15.2533 15.1007,15.2403 15.1357,15.2273 C15.1737,15.2503 15.2087,15.2743 15.2447,15.2953 C15.7107,15.5683 16.3047,15.3323 16.4457,14.8123 C16.5267,14.5123 16.4557,14.2433 16.2387,14.0183 C16.1607,13.9383 16.1057,13.8633 16.1257,13.7353 C16.1507,13.5763 16.0667,13.4703 15.9067,13.4193 C15.8397,13.3983 15.8077,13.3613 15.7817,13.3013 C15.5197,12.7243 15.4347,12.1213 15.5287,11.4953 C15.6487,10.7013 16.0137,10.0363 16.6277,9.5183 C17.3827,8.8813 18.2567,8.6443 19.2337,8.7903 C19.5747,8.8413 19.8987,8.9523 20.2057,9.1173 C20.2097,9.1483 20.2117,9.1763 20.2177,9.2033 C20.2457,9.3323 20.3387,9.4333 20.4667,9.4353 C20.5677,9.4373 20.6157,9.4853 20.6717,9.5523 C20.9147,9.8413 21.3237,9.9213 21.6587,9.7523 C21.9957,9.5823 22.1737,9.2103 22.0827,8.8403 C22.0557,8.7283 21.9987,8.6243 21.9547,8.5123 C22.1807,8.2753 22.0967,7.9923 21.7877,7.9213 C21.6457,6.8873 22.1037,5.6413 23.1977,4.9103 C24.2877,4.1803 25.7067,4.1903 26.7837,4.9223 C27.9607,5.7223 28.3117,7.0443 28.1697,7.9293 C27.8897,8.0483 27.8467,8.2353 28.0367,8.5123 C27.7807,8.9873 27.8407,9.4173 28.2047,9.6823 C28.3757,9.8073 28.5687,9.8563 28.7777,9.8343 C29.0477,9.8043 29.2477,9.6593 29.3927,9.4423 C29.4327,9.4423 29.4607,9.4433 29.4887,9.4423 C29.6427,9.4333 29.7497,9.3543 29.7797,9.2033 C29.7947,9.1263 29.8317,9.0933 29.8957,9.0633 C30.3397,8.8503 30.8087,8.7383 31.3007,8.7483 C32.3867,8.7713 33.2737,9.2113 33.9007,10.1003 C34.5977,11.0873 34.6927,12.1583 34.2287,13.2763 C34.2007,13.3413 34.1737,13.3963 34.0917,13.4203 C33.9147,13.4743 33.8387,13.6053 33.8737,13.7913 C33.8867,13.8583 33.8677,13.8983 33.8237,13.9393 C33.8007,13.9613 33.7747,13.9813 33.7507,14.0043 C33.4527,14.2923 33.4167,14.7593 33.6657,15.0863 C33.9197,15.4203 34.3817,15.5083 34.7407,15.2903 C34.7817,15.2663 34.8207,15.2403 34.8597,15.2163 C35.0127,15.3063 35.1547,15.3113 35.2907,15.1873 C35.3217,15.1603 35.3767,15.1483 35.4197,15.1503 C35.6347,15.1633 35.8547,15.1623 36.0647,15.2033 C37.2217,15.4343 38.0317,16.1023 38.4867,17.1883 C38.6897,17.6743 38.7527,18.1853 38.6947,18.7103 C38.6057,19.5063 38.2657,20.1743 37.6887,20.7253 C37.6177,20.7923 37.5527,20.8493 37.4437,20.8333 C37.3977,20.8273 37.3337,20.8473 37.2997,20.8783 C37.2337,20.9403 37.1827,21.0173 37.1117,21.1053 C37.1047,21.1053 37.0727,21.1083 37.0397,21.1153 C36.6647,21.1843 36.4447,21.4943 36.4197,21.8493 L36.4177,21.8493 C36.3097,21.9283 36.1847,22.1653 36.1847,22.4043 C36.1847,22.6933 36.3667,22.9323 36.6007,22.9733 C36.7577,23.0003 36.9167,23.0133 37.0747,23.0343 C37.1107,23.0383 37.1437,23.0443 37.1857,23.0503 C37.1697,23.0753 37.1647,23.0883 37.1557,23.0993 C36.9577,23.3123 36.9987,23.6443 37.2777,23.7993 C37.7477,24.0633 37.9717,24.4973 38.0097,25.0303 C38.0147,25.1093 38.0217,25.1893 38.0337,25.2683 C38.0507,25.3613 38.0807,25.4593 38.1637,25.5093 C38.2307,25.5493 38.3177,25.5563 38.4067,25.5813 C38.4337,25.6553 38.4397,25.9273 38.4067,26.0843 C38.3637,26.0843 38.3167,26.0803 38.2707,26.0843 C38.1597,26.0933 38.0707,26.1353 38.0317,26.2493 C37.9947,26.3523 38.0077,26.4453 38.0957,26.5163 C38.1347,26.5483 38.1357,26.5833 38.1357,26.6263 C38.1347,28.8943 38.1337,31.1613 38.1357,33.4273 C38.1357,33.5193 38.1027,33.6163 38.1647,33.7023 C38.1707,33.7093 38.1617,33.7263 38.1597,33.7393 C38.1517,33.7933 38.1357,33.8483 38.1357,33.9023 C38.1337,36.0333 38.1337,38.1633 38.1357,40.2933 C38.1357,40.3713 38.1107,40.4543 38.1617,40.5273 C38.1687,40.5373 38.1567,40.5603 38.1547,40.5763 C38.1477,40.6173 38.1347,40.6583 38.1347,40.6983 C38.1337,41.4233 38.1347,42.1473 38.1347,42.8713 C38.1347,44.4043 38.1347,45.9383 38.1337,47.4713 C38.1337,47.5303 38.1277,47.5893 38.1247,47.6543 C38.0597,47.6583 38.0087,47.6623 37.9577,47.6643 C37.9067,47.6673 37.8547,47.6663 37.8027,47.6713 C37.6317,47.6873 37.5297,47.7963 37.5247,47.9673 C37.5187,48.1653 37.6477,48.3063 37.8447,48.3203 C37.9317,48.3263 38.0187,48.3343 38.1137,48.3433 C38.1137,48.4393 38.1147,48.5193 38.1137,48.5983 C38.1127,48.6803 38.1087,48.7623 38.1057,48.8453 C38.0647,48.8483 38.0407,48.8513 38.0177,48.8523 C37.5757,48.8693 37.1347,48.8863 36.6927,48.9043 C36.4657,48.9133 36.2977,49.0393 36.2387,49.2413 C36.1367,49.5903 36.3817,49.9063 36.7457,49.9313 C36.8227,49.9363 37.0007,49.9283 37.2497,49.9313 C37.7327,49.9373 38.4767,49.9313 39.2397,49.9313 C40.5527,49.9313 43.0607,49.9403 43.2547,49.9313 C43.4527,49.9213 43.6047,50.0903 43.7157,49.9313 C43.8327,49.7623 43.8447,49.3713 43.7607,49.1883" id="Fill-4" fill="#FFFFFF"></path>
    </g>
</svg>