<?xml version="1.0" encoding="UTF-8"?>
<svg width="27px" height="28px" viewBox="0 0 27 28" version="1.1" xmlns="http://www.w3.org/2000/svg" xmlns:xlink="http://www.w3.org/1999/xlink">
    <!-- Generator: Sketch 59.1 (86144) - https://sketch.com -->
    <title>Icon / Connections</title>
    <desc>Created with Sketch.</desc>
    <defs>
        <polygon id="path-1" points="0 0 27 0 27 28 0 28"></polygon>
    </defs>
    <g id="Icon-/-Connections" stroke="none" stroke-width="1" fill="none" fill-rule="evenodd" opacity="0.475330171">
        <g id="Group-3">
            <mask id="mask-2" fill="white">
                <use xlink:href="#path-1"></use>
            </mask>
            <g id="Clip-2"></g>
            <path d="M21.364414,25.3472296 C19.7428134,25.3472296 18.4284521,24.0559367 18.4284521,22.4633245 C18.4284521,20.8701847 19.7428134,19.5788918 21.364414,19.5788918 C22.9854775,19.5788918 24.2998389,20.8701847 24.2998389,22.4633245 C24.2998389,24.0559367 22.9854775,25.3472296 21.364414,25.3472296 M5.63558597,17.6422164 C4.01452245,17.6422164 2.70016114,16.3509235 2.70016114,14.7577836 C2.70016114,13.1651715 4.01452245,11.8738786 5.63558597,11.8738786 C7.25718662,11.8738786 8.57154793,13.1651715 8.57154793,14.7577836 C8.57154793,16.3509235 7.25718662,17.6422164 5.63558597,17.6422164 M21.364414,2.65277045 C22.9854775,2.65277045 24.2998389,3.94406332 24.2998389,5.53667546 C24.2998389,7.1298153 22.9854775,8.42110818 21.364414,8.42110818 C19.7428134,8.42110818 18.4284521,7.1298153 18.4284521,5.53667546 C18.4284521,3.94406332 19.7428134,2.65277045 21.364414,2.65277045 M21.364414,16.9261214 C19.7342193,16.9261214 18.2657012,17.6068602 17.2365568,18.6939314 L11.222293,15.4886544 C11.2545209,15.2496042 11.2711719,15.0058047 11.2711719,14.7577836 C11.2711719,14.2591029 11.2040305,13.7762533 11.0783417,13.3171504 L17.7328665,9.77097625 C18.713669,10.5836412 19.9807627,11.0738786 21.364414,11.0738786 C24.4765552,11.0738786 27,8.59472296 27,5.53667546 C27,2.47915567 24.4765552,0 21.364414,0 C18.2517357,0 15.7288281,2.47915567 15.7288281,5.53667546 C15.7288281,6.05593668 15.8013408,6.55831135 15.9372352,7.03430079 L9.3144011,10.5630607 C8.327153,9.72664908 7.04125967,9.22110818 5.63558597,9.22110818 C2.52290767,9.22110818 0,11.7002639 0,14.7577836 C0,17.8158311 2.52290767,20.2944591 5.63558597,20.2944591 C7.30660274,20.2944591 8.80734876,19.5799472 9.83917879,18.4453826 L15.793821,21.6184697 C15.7508505,21.8939314 15.7288281,22.1757256 15.7288281,22.4633245 C15.7288281,25.5208443 18.2517357,28 21.364414,28 C24.4765552,28 27,25.5208443 27,22.4633245 C27,19.405277 24.4765552,16.9261214 21.364414,16.9261214" id="Fill-1" fill="#231F20" mask="url(#mask-2)"></path>
        </g>
    </g>
</svg>