<?xml version="1.0" encoding="utf-8"?>
<svg width="109px" height="77px" viewBox="0 0 109 77" version="1.1" xmlns:xlink="http://www.w3.org/1999/xlink" xmlns="http://www.w3.org/2000/svg">
  <desc>Created with Lunacy</desc>
  <defs>
    <rect width="109" height="77" id="artboard_1" />
    <clipPath id="clip_1">
      <use xlink:href="#artboard_1" clip-rule="evenodd" />
    </clipPath>
  </defs>
  <g id="Dragon-/-Blue---Level-1" clip-path="url(#clip_1)">
    <use xlink:href="#artboard_1" stroke="none" fill="#FFFFFF" />
    <path d="M3.7105 4.48792C3.62971 5.50717 3.80396 6.31286 4.7544 6.88072C5.70642 7.45021 6.74874 6.82086 7.35227 6.32418C7.9558 5.8275 8.33915 6.62025 7.57246 7.24798C6.80735 7.8757 5.33417 8.36268 3.79128 7.6395C2.86144 7.20429 2.42265 5.3292 2.37671 4.52351C2.33394 3.7971 1.78268 2.91375 1.28053 2.39766C0.943128 2.05144 0.562951 1.65668 0.209704 1.28619C0.0148631 1.08073 -0.00414574 0.844519 0.000606469 0.721562C0.00694275 0.598605 0.0481286 0.365635 0.263562 0.179582C0.434642 0.0307392 0.618394 0 0.741951 0C0.943128 0 1.13322 0.0792747 1.27261 0.226499L2.90262 1.92524C2.90262 1.92524 3.32715 2.33132 3.46655 2.72284C3.60595 3.11275 3.79128 3.46867 3.7105 4.48792" transform="translate(82 30)" id="Fill-9" fill="#9BAFC8" stroke="none" />
    <path d="M11.368 72.647C6.83391 72.647 3.05307 70.188 0.995089 65.9022C-1.35573 61.0037 0.938148 55.4318 2.93594 53.071C3.92019 51.9062 6.18479 50.589 8.58279 49.1948C10.548 48.0529 12.7736 46.757 13.3788 45.9968C14.2052 44.9565 13.8734 43.0299 12.7297 41.3539L11.0117 45.874L4.47821 28.9242L20.0831 36.9436L17.8331 37.9069C17.6623 37.9807 16.7497 38.3706 15.8516 38.7425C17.119 40.2038 18.1569 42.3058 18.1569 44.8468C18.1569 48.0283 15.6776 50.938 10.7872 53.4904C6.92176 55.5088 5.37298 57.5894 5.61051 60.4466C5.88382 63.7576 7.83606 65.8284 10.9629 66.125C11.163 66.1446 11.368 66.1545 11.5681 66.1545C14.5127 66.1545 16.4552 64.0542 16.4861 64.0198C17.1726 63.2793 18.0674 62.0112 19.1021 60.54C20.9014 57.9859 23.14 54.8076 25.8178 52.1978C30.3258 47.8055 35.4781 45.7151 38.9613 44.524C41.6553 43.6033 44.1233 43.061 46.1634 42.9365C45.3223 42.8775 44.2827 42.8775 42.9926 42.8775L42.9015 42.8775C41.3251 42.8775 39.3631 42.8775 36.8707 42.7661C33.3274 42.6105 30.0916 41.3998 27.2543 39.1717C26.5727 38.636 26.3124 37.7628 26.5922 36.9453C26.8671 36.1376 27.6139 35.5953 28.4484 35.5953C28.5997 35.5953 28.751 35.6117 28.9007 35.6461C29.072 35.6851 29.2465 35.7226 29.4242 35.76C26.9621 34.8113 25.0739 33.1355 23.6508 30.6329C23.2978 30.012 23.2962 29.2731 23.6508 28.6604C24.0087 28.0378 24.6692 27.6512 25.3737 27.6512C25.7186 27.6512 26.0635 27.7462 26.3709 27.9232C27.3601 28.4982 28.4712 29.0437 29.6133 29.5369C27.0087 27.5414 25.1671 25.6295 24.5733 24.8153C24.0917 24.1567 23.7273 23.2687 23.5467 22.3136C23.4344 21.7255 23.5857 21.1275 23.9583 20.6737C24.3357 20.215 24.91 19.9414 25.4973 19.9414C25.9675 19.9414 26.4246 20.1134 26.7858 20.4279C27.6204 21.1521 28.699 21.9745 29.9712 22.8149C28.2955 20.9768 27.0575 19.3385 26.5824 18.6324C26.0195 17.7985 25.5656 16.5173 25.2305 14.8217C25.1134 14.2303 25.2598 13.6274 25.634 13.1703C26.0098 12.7066 26.5889 12.4298 27.1827 12.4298C27.7521 12.4298 28.276 12.6722 28.6599 13.1113C29.4587 14.0255 30.4121 15.0297 31.4598 16.0504C30.0444 13.7699 29.5238 12.1087 29.1854 11.0241C28.9414 10.2476 28.7754 9.25638 28.6876 8.08008C28.6469 7.51651 28.8291 6.9857 29.2001 6.58268C29.5775 6.17311 30.116 5.93719 30.6773 5.93719C31.4093 5.93719 32.0552 6.33038 32.4066 6.9857C32.7515 7.62628 33.1485 8.32419 33.591 9.05979C34.5671 10.6866 35.6099 12.0759 36.7878 13.3833C35.8653 11.9219 35.0307 10.508 34.502 9.40383C33.1794 6.64166 33.1875 3.78611 33.3079 1.87749C33.3746 0.807681 34.2303 0 35.2976 0C36.1061 0 36.8024 0.47183 37.1148 1.23036C37.9054 3.15209 40.8842 9.856 45.9991 15.4311C51.2181 21.1209 56.3834 25.1856 59.1588 27.3694C59.6241 27.7347 60.0161 28.0444 60.322 28.2934C63.2227 30.6476 63.5123 33.2214 63.2438 34.9646C63.1137 35.805 62.7037 36.5848 62.2677 37.4073L62.2654 37.4116C61.4918 38.8765 60.6919 40.391 61.3111 42.486C62.2092 45.5283 63.8312 47.0208 67.0946 47.8072C67.7177 47.9579 68.3148 48.0349 68.8696 48.0349C70.4541 48.0349 71.6271 47.4205 72.0891 46.3507C72.4682 45.4726 70.4932 43.7311 68.4026 41.888C68.131 41.6488 67.8511 41.4014 67.5648 41.1475C63.9304 37.9168 63.7238 34.1601 63.823 30.5903C63.9385 26.4503 65.8875 23.0754 69.7725 20.3067C69.7464 20.2772 69.7188 20.2494 69.6944 20.2215C69.3788 19.8824 69.0322 19.5089 68.7248 19.1632L67.0263 17.248L69.5756 17.248C70.1938 17.248 71.9834 17.3545 74.3 17.7788L73.2735 15.8325L75.4421 16.0946C76.2376 16.1897 78.1557 16.6762 80.0282 17.4905L80.3162 15.4541L81.8601 16.6254C82.0439 16.7647 86.3958 20.0773 88.3903 22.4725C89.6267 23.9601 90.816 26.0883 91.5969 27.6102C92.2915 28.9684 91.9125 30.6149 90.694 31.529L89.5763 32.3679C89.085 32.7365 88.5026 32.9314 87.8925 32.9314C87.1262 32.9314 86.4104 32.6283 85.8752 32.0795L83.2852 29.4156C83.1128 29.2403 82.8834 29.142 82.6377 29.142C82.4864 29.142 82.2619 29.1797 82.052 29.3583C81.8601 29.5238 81.7462 29.7548 81.7332 30.0103C81.7218 30.2643 81.8113 30.5067 81.9886 30.6886C82.3514 31.0654 82.7435 31.4651 83.0884 31.8141C83.578 32.3105 83.8465 32.9691 83.8416 33.667C83.8383 34.3682 83.5634 35.0219 83.0672 35.5134C82.5791 35.9967 81.9349 36.2637 81.2516 36.2637C81.2126 36.2637 81.1752 36.2621 81.1377 36.2604C81.2874 36.38 81.442 36.5013 81.5981 36.6258C82.4571 37.3024 83.3438 38.0003 84.1963 38.7474C88.5074 42.5302 90.1343 47.011 89.1712 52.4485C88.9223 53.8525 88.4033 55.2729 87.6745 56.6392L88.0552 57.6877C89.3144 61.1659 91.5838 63.8854 94.8376 67.1407C97.914 70.2207 102.009 70.9711 102.181 71.0006C102.383 71.0366 102.861 71.0366 103.042 71.0366L103.562 71.035C104.91 71.035 106.946 72.439 107.599 73.8168L108.378 75.4616L88.8784 75.4616L88.8784 74.3116C88.8784 73.4564 89.6658 72.6749 90.5654 72.1834C90.5768 71.7411 90.3084 70.8171 89.6365 69.9078C88.9971 69.0461 85.5059 66.1676 81.7185 64.0558L81.0645 63.6905C80.5163 64.0263 79.955 64.3261 79.384 64.5817C77.7132 65.332 75.9236 65.8284 74.0527 66.0578C74.0251 67.3947 74.575 68.5235 75.7756 69.6244C76.1481 69.8554 78.1752 71.0612 80.2283 71.1103C82.8785 71.1742 84.6827 72.0671 85.5921 73.766L86.4983 75.4616L66.8783 75.4616L67.2606 74.015C67.4753 73.2057 68.0464 72.5078 68.7671 72.1113C68.8728 70.6598 68.8826 69.2279 67.1825 65.4516L67.2524 65.8252L65.5084 65.3664C64.0199 64.9765 62.1538 63.9297 60.1317 62.6846L59.6403 63.0843C57.3155 64.9782 55.5732 65.3386 54.3026 65.6007C53.6893 65.7269 53.2468 65.8186 52.9393 66.0463C52.5732 66.3167 52.3715 66.6263 52.3406 66.9671C52.2999 67.3979 52.5261 67.9042 52.9767 68.394C54.0895 69.6014 55.4642 70.3665 57.3025 70.8023C58.0476 70.9776 59.014 71.071 60.0942 71.071C60.2195 71.071 60.3383 71.0694 60.4505 71.0677L60.4798 71.0677C61.0817 71.0677 63.086 71.5543 64.368 73.7234L65.3946 75.4616L27.6025 75.4616L23.4312 75.4567L27.0282 73.3171C27.2299 73.1975 27.7977 72.7814 28.0059 72.2948C28.1556 71.9442 28.2614 71.4118 27.7391 70.4042L27.7147 70.3567C26.6264 68.0008 26.3774 65.4189 26.3677 65.3107L26.3628 65.2567L26.3628 65.2026C26.3628 64.0525 26.5304 62.9598 26.8623 61.9457C26.8525 61.9571 26.8444 61.9703 26.8362 61.9801C26.6491 62.2324 26.4409 62.524 26.2099 62.8451C24.2316 65.6122 20.5484 70.7614 14.843 72.1965C13.6586 72.4947 12.4889 72.647 11.368 72.647ZM38.6717 56.3214C33.7943 56.4983 30.4788 58.5429 28.616 60.137L29.0553 60.5171C29.7158 61.0921 30.9213 61.174 32.104 61.2068C35.1853 61.2003 37.8127 59.177 38.6717 56.3214ZM34.3898 68.163C34.3898 68.163 34.463 68.0844 34.7997 67.991C34.8127 67.9894 34.8258 67.9894 34.8404 67.9894C34.9673 67.9894 35.1153 67.9976 35.2764 68.0057C35.5155 68.0189 35.7807 68.0303 36.054 68.0303C36.2867 68.0303 36.4982 68.0205 36.6983 68.0041C39.6315 67.9926 42.3825 67.0965 44.6634 65.5647L44.7659 65.7105C45.6851 67.0342 46.7718 68.9674 47.1883 72.321C46.4562 72.8682 45.9438 73.5104 45.8738 73.5989L45.4215 74.1788L45.3744 74.0085C44.9693 72.5094 43.4107 71.2414 41.8278 71.1251L41.5577 71.1054C35.1837 70.6811 34.5524 69.5998 34.5297 69.5539C34.2558 68.4282 34.3823 68.1778 34.3896 68.1634L34.3898 68.163Z" transform="translate(-9.75609E-05 0.7916256)" id="Fill-11" fill="#FEFEFE" fill-rule="evenodd" stroke="none" />
    <path d="M9.10023 14.7209C9.68356 13.7955 9.00542 12.0965 8.17944 10.9821C7.35347 9.86777 3.6703 6.93974 0 4.89674C1.81426 3.57888 3.42444 1.87342 4.65377 0C6.01326 3.74846 8.53619 6.65711 11.6183 9.73534C14.7005 12.8136 18.7211 13.7196 19.4732 13.852C19.8412 13.9166 20.4775 13.9037 21.0319 13.9037C21.8868 13.9037 23.5276 15.0003 24 16L7.65397 16C7.65397 15.6964 8.23569 15.0794 9.10023 14.7209" transform="translate(83 59)" id="Fill-14" fill="#C7DBF4" stroke="none" />
    <path d="M2.67903 52.5498C4.39205 50.5359 11.6932 47.3302 13.1841 45.465C14.6734 43.5998 13.7051 40.1702 11.2474 37.9323L9.90508 41.4371L5.50903 30.1021L16.313 35.6208C16.313 35.6208 13.3328 36.8877 12.6616 37.1117C14.3011 38.305 15.9407 40.6165 15.9407 43.5998C15.9407 46.5832 13.1841 49.1186 9.16042 51.2077C5.1367 53.2953 3.05136 55.6819 3.34856 59.2619C3.6474 62.8419 5.80787 65.6013 9.75647 65.974C13.7051 66.3467 16.246 63.5154 16.246 63.5154C18.2203 61.4034 21.3851 55.8143 25.5721 51.7603C29.7591 47.7046 34.5242 45.6612 38.3357 44.3649C42.1487 43.0702 45.4833 42.5602 47.5948 42.9345C49.7047 43.3088 51.2364 44.7065 53.5177 46.4442C51.4062 42.6272 49.0923 41.4698 47.118 40.8552C45.1437 40.2421 42.1144 40.6508 35.9188 40.3795C31.9572 40.2045 29.0112 38.663 26.921 37.0316C26.2074 36.4741 26.7348 35.3397 27.6183 35.5391C30.7847 36.2518 35.0239 36.667 38.4043 36.5967C38.4043 36.5967 32.5499 34.8934 28.8055 33.4614C26.2857 32.4985 24.6903 30.7625 23.5945 28.8482C23.1683 28.1012 24.0126 27.2789 24.7572 27.7088C28.6536 29.9598 34.441 31.8267 36.8725 31.8267C30.4058 29.2373 25.2994 24.0912 24.4486 22.9322C24.0469 22.3862 23.7595 21.6261 23.6207 20.9019C23.4704 20.1156 24.3931 19.5827 24.9989 20.1042C27.8224 22.5399 32.5287 25.4072 37.5878 27.1923C32.7541 24.8416 27.7848 18.7082 26.4915 16.7988C25.9297 15.9717 25.5542 14.6492 25.3092 13.4183C25.1394 12.5698 26.1976 12.0435 26.7675 12.6924C30.0465 16.4228 35.1252 20.8611 39.0852 22.8995C31.5636 16.1858 30.0319 11.9944 29.248 9.50804C29.0047 8.73319 28.8692 7.77852 28.7989 6.82876C28.732 5.9264 29.9502 5.57003 30.3813 6.36777C30.7128 6.98079 31.1129 7.68371 31.5963 8.48471C34.2515 12.8804 37.315 15.5385 42.0116 19.3898C42.25 19.5598 36.3957 11.6201 34.5242 7.73602C33.4105 5.42782 33.2962 2.99864 33.4367 0.79833C33.4938 -0.095854 34.7137 -0.308366 35.055 0.518795C36.6896 4.4617 39.8789 10.3565 44.19 15.0284C50.3856 21.7405 56.5812 26.2719 58.6911 27.9753C60.8009 29.6803 61.5162 31.588 61.2092 33.5644C60.9038 35.5407 58.1799 37.7884 59.3034 41.5712C60.427 45.3539 62.674 46.8872 65.9416 47.6702C69.2093 48.4549 71.4889 47.3646 72.2728 45.5582C73.055 43.7519 70.6381 41.8785 67.4391 39.0504C64.24 36.2224 63.9673 33.0527 64.0686 29.4073C64.1714 25.7603 65.8044 22.3536 70.6038 19.3555C70.7067 19.3212 69.5489 18.1622 68.6981 17.2091C69.4134 17.2091 72.2042 17.3791 75.609 18.2308L74.4512 16.0501C75.302 16.1515 77.9573 16.8332 80.1014 18.0265L80.3398 16.3558C80.3398 16.3558 84.7653 19.6955 86.7053 22.0135C87.8957 23.4357 89.0617 25.5265 89.7835 26.9291C90.2211 27.7791 89.9778 28.8204 89.2119 29.3926L88.09 30.2296C87.414 30.7347 86.4685 30.6611 85.879 30.0579L83.2776 27.3999C82.5231 26.6299 81.3033 26.5744 80.4819 27.2707C79.5739 28.0407 79.507 29.4188 80.3349 30.2721C80.7023 30.6513 81.0992 31.0535 81.4486 31.4049C82.0185 31.9787 82.0136 32.9039 81.4372 33.4712C80.8558 34.045 79.9136 34.0254 79.3567 33.4271C78.4912 32.5034 77.3449 31.2823 77.0379 30.975C76.5267 30.4633 75.1273 28.8401 75.983 26.1706C72.0833 31.5766 78.0014 34.3523 82.6211 38.3802C87.2393 42.4065 87.9839 46.8071 87.2393 50.9838C86.4946 55.1605 82.9183 60.0826 78.0748 62.2453C76.0777 63.1378 74.0674 63.5727 72.1536 63.7132C71.7094 66.1277 72.6614 67.8425 74.2258 69.2385C74.2258 69.2385 76.6998 70.8896 79.3633 70.9534C80.6501 70.9844 82.8024 71.2116 83.7659 73L67.4832 73C67.6514 72.3657 68.2654 71.7364 68.9741 71.6236C69.1309 69.2173 69.6387 67.6741 65.1774 59.3698C67.3525 59.6657 70.2282 58.2255 71.5918 55.3844C68.2001 57.6354 66.7255 58.4462 63.4072 57.7466C63.9559 59.3044 64.4866 60.7446 64.9047 62.9662C61.4786 62.0704 55.1295 56.9505 51.1058 55.458C50.1946 55.1212 49.3846 54.8531 48.5942 54.639C47.7402 60.8051 42.2696 65.5588 35.6412 65.5588C34.8459 65.6389 34.0196 65.5114 33.6065 65.5572C32.2609 65.8907 31.9229 66.5478 32.4144 68.5487C32.9108 70.5659 39.6747 70.8831 40.7607 70.9648C41.8466 71.0449 43.0175 71.962 43.3 73L26.5666 73C26.5666 73 27.6101 72.4001 28.0233 71.4438C28.4364 70.4858 28.2192 69.5279 27.7195 68.5699C26.6973 66.3729 26.467 63.9127 26.467 63.9127C26.467 62.4987 26.7544 61.2154 27.2753 60.1054C28.2111 60.913 29.6138 61.0323 31.0688 61.0716C35.2232 61.0716 38.6541 57.9182 39.0754 53.8838C38.7733 53.8854 38.4647 53.8887 38.1413 53.8919C31.2876 53.9671 26.6679 57.6223 24.8814 60.0074C23.0932 62.394 19.4418 68.2855 13.4814 69.778C7.52089 71.2705 3.05136 68.5847 0.890891 64.1105C-1.26957 59.6347 0.964377 54.5638 2.67903 52.5498" transform="translate(1 2)" id="Fill-16" fill="#C7DBF4" stroke="none" />
    <path d="M4.91722 0C5.25993 0.115237 5.61921 0.243835 6.00828 0.389134C7.82119 1.0672 10.2566 2.61538 12.6126 4.1118C12.8924 4.2905 13.1788 4.46753 13.4553 4.64456C10.0298 7.43865 8.06623 6.60193 6.67881 7.63071C5.26987 8.67453 5.22848 10.3246 6.55464 11.7642C7.87914 13.2055 9.51324 14.0823 11.543 14.5633C12.7351 14.8456 14.1043 14.8823 15.0331 14.8639C15.3758 14.8573 16.9669 15.2497 18 17L1.0894 17C1.0894 17 1.83444 16.0447 2.74503 15.5654C2.39735 11.7308 1.27483 9.39601 0 7.5589C2.37748 5.65665 4.15232 3.02623 4.91722 0" transform="translate(46 58)" id="Fill-18" fill="#C7DBF4" stroke="none" />
    <path d="M3 3C2.31317 2.0104 0.907292 0.606586 0 0C0.218768 0.381283 0.188242 0.956672 0.281515 1.30676C0.376484 1.65858 0.71905 2.23397 1.28208 2.48873C1.84341 2.74523 2.40644 2.61698 3 3" transform="translate(83 22)" id="Fill-20" fill="#FEFEFE" stroke="none" />
  </g>
</svg>