<?xml version="1.0" encoding="UTF-8"?>
<svg width="55px" height="55px" viewBox="0 0 55 55" version="1.1" xmlns="http://www.w3.org/2000/svg" xmlns:xlink="http://www.w3.org/1999/xlink">
    <!-- Generator: Sketch 59.1 (86144) - https://sketch.com -->
    <title>Icon / Edit Popup Top</title>
    <desc>Created with Sketch.</desc>
    <defs>
        <polygon id="path-1" points="0.000552631579 0.287368421 32.8693735 0.287368421 32.8693735 33.1575263 0.000552631579 33.1575263"></polygon>
    </defs>
    <g id="Icon-/-Edit-Popup-Top" stroke="none" stroke-width="1" fill="none" fill-rule="evenodd">
        <g id="Group-9">
            <circle id="Oval" stroke="#000000" stroke-width="2" fill="#FFFFFF" cx="27.5" cy="27.5" r="27.5"></circle>
            <g id="Group-6" transform="translate(11.000000, 10.000000)">
                <g id="Group-3" transform="translate(0.000000, 0.555289)">
                    <mask id="mask-2" fill="white">
                        <use xlink:href="#path-1"></use>
                    </mask>
                    <g id="Clip-2"></g>
                    <path d="M31.1339737,2.47173684 C32.2318684,3.56778947 33.9395,6.31989474 31.9592368,8.29831579 C29.5958158,10.6617368 8.11686842,32.1443684 8.11686842,32.1443684 L0.000552631579,33.1575263 L1.01186842,25.0375263 C1.01186842,25.0375263 22.4945,3.55489474 24.8579211,1.19515789 C26.8363421,-0.783263158 29.5866053,0.926210526 30.6826579,2.02042105 L31.1339737,2.47173684 Z" id="Fill-1" fill="#404041" mask="url(#mask-2)"></path>
                </g>
                <path d="M24.9205526,3.27884211 C24.4729211,3.24015789 23.9018684,3.72463158 23.6163421,4.00831579 C23.3308158,4.29015789 5.22660526,22.2377895 4.24476316,23.2048947 C3.26844737,24.1775263 2.36765789,25.7341053 3.25923684,26.622 C4.47502632,27.8359474 5.62265789,27.3459474 6.44055263,27.1046316 C6.19371053,27.9114737 5.71107895,29.0627895 7.01897368,30.3633158 C7.91055263,31.2512105 9.37686842,30.2546316 10.3550263,29.2838421 C11.3331842,28.3130526 29.4373947,10.3672632 29.7247632,10.0854211 C30.0102895,9.80357895 30.4984474,9.23621053 30.4597632,8.79410526 C29.9329211,8.51042105 28.0576579,7.76621053 27.0058158,6.71805263 C25.9558158,5.66989474 25.2005526,3.802 24.9205526,3.27884211" id="Fill-4" fill="#FCC010"></path>
            </g>
        </g>
    </g>
</svg>