<?xml version="1.0" encoding="utf-8"?>
<svg width="15px" height="15px" viewBox="0 0 15 15" version="1.1" xmlns:xlink="http://www.w3.org/1999/xlink" xmlns="http://www.w3.org/2000/svg">
  <desc>Created with Lunacy</desc>
  <defs>
    <path d="M0 14.5695L0 0L14.5701 0L14.5701 14.5695L7.84722e-16 14.5695L0 14.5695Z" transform="translate(0 0.000225)" id="path_1" />
    <clipPath id="mask_1">
      <use xlink:href="#path_1" />
    </clipPath>
  </defs>
  <g id="Element-/-Requiered">
    <g id="red-star">
      <path d="M0 14.5695L0 0L14.5701 0L14.5701 14.5695L7.84722e-16 14.5695L0 14.5695Z" transform="translate(0 0.000225)" id="Clip-2" fill="none" stroke="none" />
      <g clip-path="url(#mask_1)">
        <path d="M14.2253 6.585L9.66825 6.585C9.36075 6.585 9.207 6.213 9.4245 5.99625L11.889 3.531C12.024 3.396 12.024 3.17775 11.889 3.04275L11.5275 2.6805C11.3925 2.5455 11.1742 2.5455 11.0392 2.6805L8.574 5.14575C8.35725 5.36325 7.98525 5.2095 7.98525 4.902L7.98525 0.345C7.98525 0.1545 7.83075 0 7.64025 0L6.93 0C6.74025 0 6.585 0.1545 6.585 0.345L6.585 4.902C6.585 5.2095 6.21375 5.36325 5.99625 5.14575L3.531 2.6805C3.39675 2.5455 3.17775 2.5455 3.04275 2.6805L2.68125 3.04275C2.54625 3.17775 2.54625 3.396 2.68125 3.531L5.1465 5.99625C5.364 6.213 5.2095 6.585 4.902 6.585L0.345 6.585C0.1545 6.585 0 6.7395 0 6.93L0 7.6395C0 7.83 0.1545 7.9845 0.345 7.9845L4.902 7.9845C5.2095 7.9845 5.364 8.3565 5.1465 8.574L2.68125 11.0385C2.54625 11.1735 2.54625 11.3918 2.68125 11.5267L3.04275 11.889C3.17775 12.024 3.39675 12.024 3.531 11.889L5.99625 9.42375C6.21375 9.20625 6.585 9.36 6.585 9.6675L6.585 14.2253C6.585 14.415 6.74025 14.5695 6.93 14.5695L7.64025 14.5695C7.83075 14.5695 7.98525 14.415 7.98525 14.2253L7.98525 9.6675C7.98525 9.36 8.35725 9.20625 8.574 9.42375L11.0392 11.889C11.1742 12.024 11.3925 12.024 11.5275 11.889L11.889 11.5267C12.024 11.3918 12.024 11.1735 11.889 11.0385L9.4245 8.574C9.207 8.3565 9.36075 7.9845 9.66825 7.9845L14.2253 7.9845C14.4157 7.9845 14.5702 7.83 14.5702 7.6395L14.5702 6.93C14.5702 6.7395 14.4157 6.585 14.2253 6.585" transform="translate(-0.00015 0.000225)" id="Fill-1" fill="#57307A" stroke="none" />
      </g>
    </g>
  </g>
</svg>