<?xml version="1.0" encoding="UTF-8"?>
<svg width="32px" height="19px" viewBox="0 0 32 19" version="1.1" xmlns="http://www.w3.org/2000/svg" xmlns:xlink="http://www.w3.org/1999/xlink">
    <!-- Generator: Sketch 59.1 (86144) - https://sketch.com -->
    <title>Icon / Elevator Pitch</title>
    <desc>Created with Sketch.</desc>
    <g id="Icon-/-Elevator-Pitch" stroke="none" stroke-width="1" fill="none" fill-rule="evenodd">
        <path d="M16.9326,16.3195 C17.3126,16.9745 17.2746,17.6985 16.5476,18.1195 C15.8206,18.5405 15.1616,18.2235 14.7826,17.5685 C14.6386,17.3205 12.8036,12.7235 12.3286,11.8115 C12.2016,12.0545 11.7746,12.6175 11.3476,13.1795 C11.4976,12.5105 11.5856,10.1585 11.3646,9.1725 C12.1096,9.8545 14.1946,10.9485 14.8496,11.1505 C14.1496,11.2415 13.4496,11.3325 13.1746,11.3215 C13.7296,12.1865 16.7886,16.0715 16.9326,16.3195" id="Fill-1" fill="#7A7A7A"></path>
        <path d="M17.0102,6.2434 C17.0102,6.8784 16.4952,7.3924 15.8612,7.3924 C15.2262,7.3924 14.7112,6.8784 14.7112,6.2434 C14.7112,5.6084 15.2262,5.0944 15.8612,5.0944 C16.4952,5.0944 17.0102,5.6084 17.0102,6.2434" id="Fill-3" fill="#7A7A7A"></path>
        <path d="M11.6103,7.0744 C11.9283,7.6244 11.7393,8.3274 11.1903,8.6444 C10.6403,8.9624 9.9373,8.7734 9.6193,8.2234 C9.3013,7.6744 9.4903,6.9704 10.0403,6.6534 C10.5893,6.3364 11.2933,6.5244 11.6103,7.0744" id="Fill-5" fill="#7A7A7A"></path>
        <path d="M7.3496,10.4934 C7.8996,10.8104 8.0876,11.5144 7.7706,12.0634 C7.4536,12.6134 6.7496,12.8024 6.2006,12.4844 C5.6496,12.1674 5.4616,11.4644 5.7796,10.9144 C6.0966,10.3644 6.7996,10.1764 7.3496,10.4934" id="Fill-7" fill="#7A7A7A"></path>
        <path d="M5.3691,15.5344 C6.0041,15.5344 6.5181,16.0494 6.5181,16.6834 C6.5181,17.3184 6.0041,17.8334 5.3691,17.8334 C4.7341,17.8334 4.2201,17.3184 4.2201,16.6834 C4.2201,16.0494 4.7341,15.5344 5.3691,15.5344" id="Fill-9" fill="#7A7A7A"></path>
        <path d="M26.3525,15.5344 C26.9875,15.5344 27.5015,16.0494 27.5015,16.6834 C27.5015,17.3184 26.9875,17.8334 26.3525,17.8334 C25.7175,17.8334 25.2025,17.3184 25.2025,16.6834 C25.2025,16.0494 25.7175,15.5344 26.3525,15.5344" id="Fill-11" fill="#7A7A7A"></path>
        <path d="M24.3721,10.4934 C24.9221,10.1764 25.6251,10.3644 25.9421,10.9144 C26.2601,11.4644 26.0711,12.1674 25.5211,12.4844 C24.9721,12.8024 24.2681,12.6134 23.9511,12.0634 C23.6341,11.5144 23.8221,10.8104 24.3721,10.4934" id="Fill-13" fill="#7A7A7A"></path>
        <path d="M20.1108,7.0744 C20.4278,6.5244 21.1318,6.3364 21.6808,6.6534 C22.2318,6.9704 22.4198,7.6744 22.1018,8.2234 C21.7848,8.7734 21.0818,8.9624 20.5318,8.6444 C19.9818,8.3274 19.7938,7.6244 20.1108,7.0744" id="Fill-15" fill="#7A7A7A"></path>
        <g id="Group-19" transform="translate(0.000000, 0.971100)" fill="#7A7A7A">
            <path d="M2.5786,15.7635 L29.1426,15.7635 C28.9276,8.6165 23.0596,2.8655 15.8606,2.8655 C8.6616,2.8655 2.7946,8.6165 2.5786,15.7635 L2.5786,15.7635 Z M-0.0004,17.9995 L-0.0004,15.8895 C-0.0004,7.1445 7.1156,0.0295 15.8606,0.0295 C24.6066,0.0295 31.7216,7.1445 31.7216,15.8895 L31.7216,17.9995 L-0.0004,17.9995 Z" id="Fill-17"></path>
        </g>
    </g>
</svg>