<?xml version="1.0" encoding="UTF-8"?>
<svg width="20px" height="20px" viewBox="0 0 20 20" version="1.1" xmlns="http://www.w3.org/2000/svg" xmlns:xlink="http://www.w3.org/1999/xlink">
    <!-- Generator: Sketch 59.1 (86144) - https://sketch.com -->
    <title>Icon / Facebook</title>
    <desc>Created with Sketch.</desc>
    <g id="Icon-/-Facebook" stroke="none" stroke-width="1" fill="none" fill-rule="evenodd">
        <g id="Page-1" fill="#7F7F7F">
            <path d="M14.999,0 L4.999,0 C2.238,0 0,2.238 0,5 L0,15 C0,17.761 2.238,20 4.999,20 L14.999,20 C17.762,20 20,17.761 20,15 L20,5 C20,2.238 17.762,0 14.999,0 M14.999,1 C17.205,1 19,2.794 19,5 L19,15 C19,17.206 17.205,19 14.999,19 L4.999,19 C2.794,19 1,17.206 1,15 L1,5 C1,2.794 2.794,1 4.999,1 L14.999,1" id="Fill-1"></path>
            <path d="M8.3335,16.25 L10.8335,16.25 L10.8335,10 L12.6885,10 L12.9165,7.5 L10.9295,7.5 L10.9295,6.5 C10.9295,6.013 11.2545,5.9 11.4825,5.9 L12.8845,5.9 L12.8845,3.758 L10.9545,3.75 C8.8105,3.75 8.3225,5.348 8.3225,6.37 L8.3225,7.5 L7.0835,7.5 L7.0835,10 L8.3335,10 L8.3335,16.25 Z" id="Fill-3"></path>
        </g>
    </g>
</svg>