<?xml version="1.0" encoding="UTF-8"?>
<svg width="31px" height="14px" viewBox="0 0 31 14" version="1.1" xmlns="http://www.w3.org/2000/svg" xmlns:xlink="http://www.w3.org/1999/xlink">
    <!-- Generator: Sketch 59.1 (86144) - https://sketch.com -->
    <title>Icon / Key</title>
    <desc>Created with Sketch.</desc>
    <defs>
        <polygon id="path-1" points="0 0 30.9473684 0 30.9473684 14 0 14"></polygon>
    </defs>
    <g id="Icon-/-Key" stroke="none" stroke-width="1" fill="none" fill-rule="evenodd">
        <g id="Group-3">
            <mask id="mask-2" fill="white">
                <use xlink:href="#path-1"></use>
            </mask>
            <g id="Clip-2"></g>
            <path d="M29.6858078,5.37029444 L13.6629485,5.26425195 C13.4028132,4.73164759 12.9615955,4.38162766 12.460796,4.38162766 C11.9654484,4.38162766 11.5289039,4.72526909 11.2676002,5.24830571 L10.0837506,5.24033259 C10.5234105,4.68739678 10.7874401,3.9829717 10.7874401,3.214363 C10.7874401,1.43914802 9.38161874,0 7.64790214,0 C5.91379611,0 4.50836412,1.43914802 4.50836412,3.214363 C4.50836412,3.32678399 4.51381606,3.43761034 4.52510937,3.54724073 C4.10647834,3.33595307 3.63761158,3.214363 3.13992744,3.214363 C1.40582141,3.214363 0,4.65311236 0,6.42832735 C0,8.20354234 1.40582141,9.6422917 3.13992744,9.6422917 C3.63761158,9.6422917 4.10647834,9.52070163 4.52510937,9.30941398 C4.51381606,9.41904436 4.50836412,9.53026938 4.50836412,9.6422917 C4.50836412,11.4175067 5.91379611,12.8566547 7.64790214,12.8566547 C9.38161874,12.8566547 10.7874401,11.4175067 10.7874401,9.6422917 C10.7874401,8.82424967 10.4864152,8.079959 9.99457245,7.51267156 L11.2753887,7.52104334 C11.5370818,8.03610684 11.9697321,8.37496441 12.460796,8.37496441 C12.9467974,8.37496441 13.3739958,8.04248534 13.6368571,7.53659092 L23.2770535,7.60037588 L23.2770535,14 L24.9706594,13.9936215 L24.9706594,12.0780796 L26.7133328,12.0717011 L26.7133328,13.987243 L28.5058525,13.9808645 L28.5058525,7.60037588 L29.7352647,7.60037588 C31.3595531,7.60037588 31.3595531,5.37029444 29.6858078,5.37029444" id="Fill-1" fill="#410166" mask="url(#mask-2)"></path>
        </g>
    </g>
</svg>