<?xml version="1.0" encoding="UTF-8"?>
<svg width="74px" height="75px" viewBox="0 0 74 75" version="1.1" xmlns="http://www.w3.org/2000/svg" xmlns:xlink="http://www.w3.org/1999/xlink">
    <!-- Generator: Sketch 59.1 (86144) - https://sketch.com -->
    <title>Icon / Flag Blue</title>
    <desc>Created with Sketch.</desc>
    <g id="Icon-/-Flag-Blue" stroke="none" stroke-width="1" fill="none" fill-rule="evenodd">
        <path d="M21.7006379,33.4742218 C19.7707778,24.6482174 18.0339037,16.0816069 16.3278425,7.28534196 C24.384603,6.20480904 35.4788662,2.37337807 40.3278425,3.78104482 C40.3278425,3.78104482 32.5240719,4.66331482 32.626241,7.60586702 C32.9814001,10.3501563 36.1599933,25.9633614 36.1599933,25.9633614 C36.1599933,25.9633614 28.9449112,27.8898161 26.2901372,29.7237482 C23.630498,31.7823782 21.7006379,33.4742218 21.7006379,33.4742218" id="Fill-22" fill="#C7DBF4" transform="translate(28.327842, 18.474222) rotate(11.000000) translate(-28.327842, -18.474222) "></path>
        <path d="M34.059331,15.1112614 C35.2241445,20.8251888 36.6075644,26.5456334 37.747907,32.2628195 C52.8170694,28.0413236 51.03559,18.1629255 72.059331,16.2142922 C50.4955994,6.26583455 42.5083071,18.6777818 34.059331,15.1112614" id="Fill-24" fill="#C7DBF4" transform="translate(53.059331, 22.262819) rotate(11.000000) translate(-53.059331, -22.262819) "></path>
        <path d="M42.365977,10.692245 C40.1664249,11.6702671 37.159482,11.4807979 35.4772871,10.1328596 L35.365977,9.05198276 C37.0434686,6.65384363 39.6208482,6.50768166 41.7184966,6.30738561 L42.365977,10.692245 Z" id="Fill-26" fill="#647076" transform="translate(38.865977, 8.807386) rotate(11.000000) translate(-38.865977, -8.807386) "></path>
        <polygon id="Fill-28" fill="#020303" transform="translate(15.500000, 39.920584) rotate(11.000000) translate(-15.500000, -39.920584) " points="10.1422638 6.42058411 24 72.8952789 20.8400831 73.4205841 7 7.04021661"></polygon>
        <path d="M17.4661317,3.1930491 C17.2038135,1.73154882 15.8821973,0.765072835 14.535519,1.04975713 C13.1871698,1.33444143 12.2966244,2.76874257 12.5589426,4.23024284 C12.6959496,4.98819212 13.1069706,5.60651916 13.6750483,6 L17.043415,5.28738262 C17.4393986,4.71620075 17.6014679,3.9491851 17.4661317,3.1930491" id="Fill-30" fill="#020303" transform="translate(15.013097, 3.500000) rotate(11.000000) translate(-15.013097, -3.500000) "></path>
        <ellipse id="Oval-Copy" fill="#000000" cx="15.5" cy="72.5" rx="9.5" ry="2.5"></ellipse>
        <path d="M15.5,67 C20.096199,67 23.9300505,67.8589467 24.8100684,69.0001333 L25,69 L25,73 L6,73 L6,69 L6.18993161,69.0001333 C7.06994948,67.8589467 10.903801,67 15.5,67 Z" id="Rectangle-2" fill="#000000"></path>
    </g>
</svg>