<?xml version="1.0" encoding="UTF-8"?>
<svg width="65px" height="26px" viewBox="0 0 65 26" version="1.1" xmlns="http://www.w3.org/2000/svg" xmlns:xlink="http://www.w3.org/1999/xlink">
    <!-- Generator: Sketch 59.1 (86144) - https://sketch.com -->
    <title>Logo / Flipbook</title>
    <desc>Created with Sketch.</desc>
    <defs>
        <polygon id="path-1" points="5.81123045e-16 20.2153694 5.81123045e-16 0.0862240084 21.4488071 0.0862240084 21.4488071 20.2153694"></polygon>
        <polygon id="path-3" points="51.1643476 21.6500894 51.1643476 0.18739591 0.13695008 0.18739591 0.13695008 21.6500894 51.1643476 21.6500894"></polygon>
    </defs>
    <g id="Logo-/-Flipbook" stroke="none" stroke-width="1" fill="none" fill-rule="evenodd">
        <g id="Group-3">
            <mask id="mask-2" fill="white">
                <use xlink:href="#path-1"></use>
            </mask>
            <g id="Clip-2"></g>
            <path d="M13.054729,10.762733 L9.7996786,10.762733 L11.7656989,2.24764151 C13.3742097,2.27362167 19.4251395,2.32577026 19.893912,2.32577026 C20.7011795,2.32577026 21.2661539,1.570463 21.4103626,0.945433074 C21.5007284,0.554789368 21.4263649,0.0862051822 21.2441272,0.0862051822 C21.1659985,0.0862051822 20.9877143,0.294611246 20.4669816,0.294611246 C19.9202686,0.294611246 12.8796454,0.242462665 11.4473479,0.242462665 C5.19761335,0.242462665 1.34953751,2.92463176 0.195114765,7.92430642 C-0.441963935,10.6846043 0.631317882,12.6897831 1.26030131,13.2366843 C1.3664811,13.3407932 1.49054577,13.3667734 1.6208231,13.3667734 C2.21987287,13.3667734 3.06912287,12.5075455 3.22556861,11.830367 C3.2856242,11.5700006 3.22349773,11.3877629 2.91907803,11.4658917 C2.39834527,10.7887132 1.83751269,9.7210792 2.2524422,7.92430642 C3.19619974,3.83600824 6.02276581,2.53398806 9.72249117,2.29960183 L7.76851959,10.762733 L5.08748006,10.762733 C4.82711368,10.762733 4.64280515,10.9971192 4.57672518,11.2834658 C4.45040136,11.830367 4.66671443,12.5856742 5.21361562,12.5856742 L7.34775396,12.5856742 L6.40380816,16.6737841 C6.09731757,18.0019727 5.75675157,18.5748541 5.28797912,18.5748541 C5.02761274,18.5748541 4.89338191,18.3666363 4.81525317,18.7051314 C4.70097812,19.199884 5.50824569,20.2153694 6.15925578,20.2153694 C7.01848367,20.2153694 7.82782213,19.3039929 8.35683842,17.0124675 L9.37891297,12.5856742 L12.3995772,12.5856742 C12.9984387,12.5856742 14.0001809,10.1638715 13.054729,10.762733" id="Fill-1" fill="#231F20" mask="url(#mask-2)"></path>
        </g>
        <g id="Group-6" transform="translate(12.990080, 3.953503)">
            <mask id="mask-4" fill="white">
                <use xlink:href="#path-3"></use>
            </mask>
            <g id="Clip-5"></g>
            <path d="M33.8187881,12.7907857 C33.4147778,13.8685858 32.4941765,14.3512896 31.9103759,13.4980861 C31.3265754,12.6448826 31.6968868,11.1404808 31.9216717,10.5903791 C32.14608,10.0404657 32.5883075,9.09463731 33.3360843,9.18707396 C34.5147928,9.3331653 34.1864638,11.8101288 33.8187881,12.7907857 L33.8187881,12.7907857 Z M26.937058,12.7907857 C26.5330477,13.8685858 25.6124463,14.3512896 25.0288341,13.4980861 C24.4448453,12.6448826 24.8155332,11.1404808 25.0399415,10.5903791 C25.2645381,10.0404657 25.7065774,9.09463731 26.4545424,9.18707396 C27.6332509,9.3331653 27.304922,11.8101288 26.937058,12.7907857 L26.937058,12.7907857 Z M19.3932103,13.3408873 C18.9553128,14.0481878 18.0460072,14.1603919 17.0132017,13.8346986 C17.0132017,13.8346986 17.1928037,12.0723778 17.271309,11.4659858 C17.3498142,10.8599703 17.8551095,10.1637774 18.1808028,9.90567012 C18.5063079,9.64737462 19.7187153,9.26576749 19.999414,10.118971 C20.2801127,10.9721745 19.8309195,12.6335869 19.3932103,13.3408873 L19.3932103,13.3408873 Z M18.3267059,3.80974568 C18.4276143,3.40573537 18.8094097,1.67692518 19.3819146,1.71062408 C19.9544194,1.74432299 19.9329575,2.42093671 19.584108,3.67513833 C19.2247158,4.96605105 18.6522109,6.14494787 17.2826047,8.322763 C17.608298,6.48174863 18.2256092,4.21394426 18.3267059,3.80974568 L18.3267059,3.80974568 Z M11.1981642,13.1388822 C11.3101801,11.0843787 11.7369702,9.55757363 12.4216792,9.20966541 C13.1063881,8.86156892 13.7090149,9.34672016 13.4544846,10.3770782 C13.0167754,12.1508831 11.5797714,12.9366888 11.1981642,13.1388822 L11.1981642,13.1388822 Z M9.24231004,19.4093255 C9.12389323,20.1700924 8.2618414,19.7474441 8.32942747,18.9868655 C8.41489843,18.0267292 8.88724786,16.3664464 9.49589899,15.2506173 C9.39461402,15.8423249 9.36072686,18.6487469 9.24231004,19.4093255 L9.24231004,19.4093255 Z M2.09362435,9.16467078 C2.23952742,6.95315675 3.3060318,3.86603603 3.45193488,3.48424064 C3.5822122,3.14367463 3.98076291,2.4184893 4.39211544,2.25055958 C4.47250332,2.21761372 4.56550477,2.27258623 4.57680049,2.35862198 C4.62800776,2.74681828 4.46233717,3.49704246 4.30513838,4.13543899 C4.12553641,4.86514261 3.31732753,7.17775335 2.09362435,9.16467078 L2.09362435,9.16467078 Z M39.7738925,4.39731147 C40.078124,3.23083995 40.7543612,2.11501092 41.2613508,2.04742485 C41.768717,1.97983878 41.3967112,3.16306562 41.0924798,3.89013357 C40.7882483,4.61701326 40.2157435,6.98290215 38.8947089,10.0099673 C39.0470129,8.3024307 39.4694728,5.56378299 39.7738925,4.39731147 L39.7738925,4.39731147 Z M51.1644982,10.769228 L50.9457378,6.19144859 L47.1306078,8.8323883 L48.7618982,9.00031803 C48.0352068,10.1910754 46.6736958,12.2621459 45.4033037,13.323379 C44.2869099,14.256029 43.1782348,14.8155438 42.3698376,14.2897279 C42.1446762,14.1432601 41.4375641,13.1462244 41.9121726,12.2932091 C42.5842681,11.0856965 43.6607504,11.0294062 44.2884159,10.2772994 C44.7426922,9.73284558 44.907798,9.00427153 44.52412,8.25178821 C43.9092562,7.04502862 42.7945568,7.62807612 42.12585,8.06936231 C40.9117482,8.87098202 39.4982769,10.7970908 39.4982769,10.7970908 C40.2157435,9.62647753 41.6839991,7.4571342 42.2758949,5.69895513 C42.8674142,3.94077606 43.8141839,0.559778311 42.0560048,0.339888264 C40.3823554,0.120186478 39.3004135,1.43877372 38.6241763,3.33212492 C38.1646287,4.61889588 37.6120797,6.94468496 37.3259214,9.42767283 C37.0702616,9.1571403 36.7810911,8.88171296 36.4119093,8.59216596 C35.8394044,8.14316102 34.1331857,7.28995752 32.6737785,7.76155389 C31.5758343,8.11605129 30.8214684,8.76950879 30.4242355,9.4060227 C30.1736587,9.14245586 29.8895713,8.87399421 29.5305556,8.59216596 C28.9578626,8.14316102 27.2514555,7.28995752 25.7920483,7.76155389 C24.3326411,8.23296201 23.4794376,9.23206859 23.2661367,10.0178743 C23.0389044,10.8550755 22.930842,11.4078128 22.9470326,11.9870951 C22.4526565,12.349876 21.8210374,12.7738421 21.1956309,13.1008532 C21.3820103,12.7271531 21.5292312,12.3751031 21.6154552,12.1122893 C21.8748803,11.3206475 22.195114,9.14000846 20.8627837,8.11548651 C19.6289143,7.16645763 17.8214106,9.4005631 17.8214106,9.4005631 C19.521605,7.33721129 21.2259411,4.76743462 21.3428518,3.23611129 C21.4597625,1.70478796 21.0834268,0.498028366 20.2138445,0.290375351 C19.3444504,0.0829105967 18.3843141,-0.046990202 17.3330589,2.35372717 C16.281992,4.75425627 15.45138,11.9306165 15.3734395,13.0854158 C14.387323,13.7213649 12.7262871,13.98079 12.1812685,13.9418197 C12.1165064,13.9288296 12.1554766,13.7731369 12.1554766,13.7731369 C13.6996018,13.0074753 14.8286092,12.1770515 15.0620541,10.4770454 C15.2956873,8.77722753 14.387323,7.44056714 12.700307,7.59625983 C11.0132909,7.75195253 10.3255697,8.24501078 9.4561757,12.1770515 C7.9510208,13.5267019 6.79603326,14.5128184 6.39371731,13.5656722 C5.99140136,12.6181494 7.32806175,9.14057324 7.43179413,8.68629697 C7.53571477,8.23220896 7.6654273,7.71298229 7.30208159,7.66121023 C6.93873588,7.60924991 6.0303716,7.68719039 5.79673842,8.01156587 C5.56329351,8.33594134 5.53712509,8.38790166 5.43339271,8.75124737 C5.32966033,9.11459308 4.6630245,11.6389986 4.51203835,12.4886251 C4.40830597,13.0724257 2.98071502,13.6044542 2.74727011,13.6044542 C2.51363693,13.6044542 2.39691448,13.5267019 2.29299384,13.1503662 C2.18926146,12.7740304 2.20225154,11.9306165 2.50064685,11.3206475 C2.79904217,10.7106785 4.43428613,8.02455595 5.18695772,6.29856968 C5.93944104,4.57277168 6.91275572,1.97739137 6.04336168,0.757641702 C5.17396764,-0.462107972 3.31826884,1.21172971 2.94193304,1.73076812 C2.56559725,2.24980653 0.606166075,5.13078033 0.229642021,9.24430562 C-0.146693771,13.3580192 0.709898452,14.4220761 1.24192694,15.0450352 C1.77395543,15.667806 2.40990456,15.4471629 2.72128995,15.3694107 C3.03267534,15.2914702 4.13570256,14.9411146 4.46026629,14.6944913 C4.74567153,15.3304404 5.70599613,15.6158457 6.40670739,15.4081926 C7.10741865,15.2007279 8.21044587,14.7334615 8.59977174,14.4090861 C7.6004769,16.2647849 6.84780532,17.6791975 6.83481524,18.9898777 C6.82201342,20.3005579 7.22414111,21.6370301 8.45688086,21.6500894 C9.68980888,21.6630102 10.6631236,19.8462817 11.0264693,18.4318691 C11.3896267,17.0174565 11.4156069,15.0968073 11.4156069,15.0968073 C12.6095647,15.3304404 13.8682846,15.8624689 15.710805,14.6944913 C16.943733,15.5251034 18.9421345,15.667806 19.7467664,15.0838172 C19.8633006,14.9990993 19.9798348,14.8914134 20.0948629,14.7696079 C21.1978901,14.5762627 22.4208402,14.0457404 23.2105994,13.5161593 C23.2348852,13.6076546 23.2608654,13.7021622 23.2885399,13.801188 C23.7490288,15.4401972 25.6909516,15.776998 26.8474452,15.1482028 C28.0035623,14.5195959 28.8117712,12.9703877 28.8117712,11.499873 C28.8117712,10.02917 28.2731536,9.1422676 28.2731536,9.1422676 C28.7227233,9.44198075 29.5273552,9.907741 30.0243669,10.4964364 C29.724089,11.7291761 29.7598588,12.3398981 30.17027,13.801188 C30.6303824,15.4401972 32.5726817,15.776998 33.7289871,15.1482028 C34.8852925,14.5195959 35.6935014,12.9703877 35.6935014,11.499873 C35.6935014,10.02917 35.1546954,9.1422676 35.1546954,9.1422676 C35.6935014,9.50147155 36.74871,10.0963796 37.1642043,10.8599703 C37.174747,10.853946 37.1845366,10.8484864 37.194891,10.8426502 C37.1461312,11.5529629 37.1047135,12.2630872 37.1365298,12.9515615 C37.2210595,14.7773266 37.3223444,15.335147 37.8803531,15.4535638 C38.4381735,15.5717923 39.0155731,15.6220583 39.7738925,13.4585511 C40.3622114,11.7798186 40.9328336,9.19968752 41.8088168,8.92614279 C43.4766301,8.40559829 43.2228529,10.5320179 42.3967591,11.0614107 C41.1525354,11.8588887 40.3623996,12.2265644 40.1588884,13.0624478 C39.9553771,13.8983312 40.3437617,14.5740036 40.7325228,14.9665299 C41.3856038,15.6265766 42.3848986,15.820863 43.2032736,15.820863 C43.6430537,15.820863 44.0308735,15.7645727 44.2840859,15.6945392 C47.1477396,14.9023326 48.7118205,12.3097762 50.0473514,9.63777326 L51.1618626,10.7778881 C51.1603565,10.772052 51.1592269,10.7654628 51.1577208,10.7594384 L51.1644982,10.769228 Z" id="Fill-4" fill="#231F20" mask="url(#mask-4)"></path>
        </g>
        <circle id="Oval" fill="#000000" cx="20.6385926" cy="8.39796198" r="1"></circle>
    </g>
</svg>