<?xml version="1.0" encoding="UTF-8"?>
<svg width="170px" height="49px" viewBox="0 0 170 49" version="1.1" xmlns="http://www.w3.org/2000/svg" xmlns:xlink="http://www.w3.org/1999/xlink">
    <!-- Generator: Sketch 59.1 (86144) - https://sketch.com -->
    <title>Logo / Flipbook 01</title>
    <desc>Created with Sketch.</desc>
    <g id="Logo-/-Flipbook-01" stroke="none" stroke-width="1" fill="none" fill-rule="evenodd">
        <g id="Group">
            <path d="M98.8922783,28.7386325 C97.9679409,28.6238275 97.42153,29.7961444 97.1439029,30.4779736 C96.8662759,31.1598028 96.408296,33.024216 97.1301729,34.0817279 C97.8515842,35.1392399 98.9895525,34.5409476 99.4889554,33.2052904 C99.9436773,31.9895717 100.349529,28.9194735 98.8922783,28.7386325 L98.8922783,28.7386325 Z M90.3859073,28.7386325 C89.4615698,28.6238275 88.9149262,29.7961444 88.6375319,30.4779736 C88.3599048,31.1598028 87.9016923,33.024216 88.6235691,34.0817279 C89.3452132,35.1392399 90.4829487,34.5409476 90.9825843,33.2052904 C91.4373062,31.9895717 91.8429256,28.9194735 90.3859073,28.7386325 L90.3859073,28.7386325 Z M82.4066319,29.8936819 C82.059889,28.8359366 80.5612151,29.3091569 80.158621,29.6290706 C79.7562596,29.9492176 79.131657,30.8118879 79.0346155,31.5632534 C78.937574,32.3146189 78.7155655,34.4991792 78.7155655,34.4991792 C79.9919982,34.9028631 81.1160037,34.7635571 81.6572949,33.8868863 C82.1985862,33.0104487 82.7536075,30.9509605 82.4066319,29.8936819 L82.4066319,29.8936819 Z M79.0485783,27.6673533 C80.7415679,24.9678043 81.4492492,23.5068417 81.8932663,21.9068066 C82.3247168,20.3522733 82.3512462,19.5134041 81.6435649,19.4716356 C80.9358836,19.4298671 80.4639409,21.5728923 80.3389738,22.073647 C80.2140068,22.5746352 79.4509397,25.3852555 79.0485783,27.6673533 L79.0485783,27.6673533 Z M74.316585,30.2135956 C74.6309808,28.9365076 73.8862981,28.3351819 73.0396869,28.7664003 C72.1933084,29.1978521 71.66598,31.0902665 71.5272828,33.6365089 C71.9992255,33.3861315 73.7752938,32.4121564 74.316585,30.2135956 L74.316585,30.2135956 Z M69.4230887,36.2541543 C68.6709592,37.6369469 68.0868487,39.695035 67.9814295,40.8848526 C67.8978854,41.827793 68.9634799,42.3516488 69.1098566,41.4087084 C69.2560005,40.465768 69.2978889,36.9875524 69.4230887,36.2541543 L69.4230887,36.2541543 Z M63.006949,22.477331 C63.2010319,21.6858304 63.4060524,20.7561906 63.3427543,20.2750367 C63.3287915,20.1681654 63.2138311,20.1002625 63.1142298,20.1408643 C62.6057511,20.3492399 62.1133297,21.247845 61.9522921,21.6701964 C61.7719392,22.1431833 60.4536181,25.9697806 60.2730325,28.7108646 C61.7856693,26.2479258 62.7849404,23.3815364 63.006949,22.477331 L63.006949,22.477331 Z M105.763373,29.7583428 C107.396322,26.0066488 108.104004,23.0742232 108.480068,22.1730513 C108.856133,21.2721127 109.315975,19.8053166 108.689045,19.8890868 C108.062115,19.9730904 107.226442,21.355883 106.850144,22.8016782 C106.473847,24.2474735 105.951638,27.6421522 105.763373,29.7583428 L105.763373,29.7583428 Z M120.921855,30.6875159 C120.923949,30.6947496 120.925346,30.7029166 120.926975,30.7103836 L119.549544,29.2972564 C117.898676,32.6090982 115.965061,35.8222358 112.425258,36.8041445 C112.112491,36.8911816 111.632869,36.9607179 111.08925,36.9607179 C110.077645,36.9609512 108.842636,36.7199076 108.03512,35.9020392 C107.5548,35.4155184 107.07448,34.5778159 107.326043,33.5417715 C107.577606,32.5059605 108.554537,32.0500076 110.092539,31.0617986 C111.113685,30.4056372 111.42715,27.769791 109.365775,28.4152186 C108.28296,28.7540331 107.577373,31.9522368 106.850144,34.0329592 C105.913007,36.7143074 105.199276,36.652238 104.509746,36.5054651 C103.819984,36.3589255 103.694784,35.6672958 103.590063,33.4043323 C103.550967,32.5509957 103.601931,31.6708247 103.662204,30.7904203 C103.649405,30.797654 103.637536,30.8046543 103.624272,30.8118879 C103.110906,29.8656807 101.806315,29.1283158 101.140289,28.6830967 C101.140289,28.6830967 101.806315,29.7823772 101.806315,31.6050219 C101.806315,33.4278999 100.807276,35.3480822 99.3781838,36.1272155 C97.9486257,36.9063489 95.5479548,36.4888977 94.9792034,34.4574107 C94.4718883,32.6464331 94.42744,31.8892341 94.7986178,30.3615353 C94.1844873,29.6318707 93.1896377,29.0545793 92.6339182,28.6830967 C92.6339182,28.6830967 93.2999438,29.7823772 93.2999438,31.6050219 C93.2999438,33.4278999 92.3009054,35.3480822 90.87158,36.1272155 C89.4422546,36.9063489 87.0415837,36.4888977 86.4725996,34.4574107 C86.438158,34.3349055 86.4062763,34.2175338 86.3762563,34.1041289 C85.399791,34.760757 83.8880851,35.4183185 82.5246176,35.6579621 C82.3826625,35.8087019 82.2386129,35.9424076 82.0943306,36.0474121 C81.0999465,36.7712431 78.6296943,36.5943689 77.1056545,35.5648581 C74.828089,37.0125201 73.2719348,36.3528585 71.7960668,36.0635128 C71.7960668,36.0635128 71.764185,38.4438481 71.3150483,40.1969565 C70.8659115,41.9502982 69.6627835,44.2020613 68.1389765,44.1860465 C66.6151694,44.16986 66.117861,42.5131224 66.1339182,40.8885861 C66.1499755,39.2640499 67.0803634,37.5109415 68.3153732,35.2108763 C67.834122,35.6131602 66.4706545,36.192085 65.6044954,36.4494627 C64.7383363,36.7068404 63.5512655,36.3528585 63.198472,35.5648581 C62.7975069,35.8703045 61.4340394,36.3047898 61.0488988,36.4011606 C60.663991,36.4977647 59.878118,36.7712431 59.2202373,35.9991101 C58.5625894,35.2272103 57.5039764,33.9081205 57.9691704,28.8095688 C58.4343644,23.7107838 60.8564449,20.1401642 61.3216389,19.4968367 C61.7868329,18.8535091 64.0806884,16.7786203 65.1553586,18.2904517 C66.2300289,19.8025164 65.0271335,23.0191542 64.0967456,25.1584458 C63.1663576,27.2977374 61.1452422,30.62708 60.7761588,31.3831124 C60.4073081,32.1389114 60.3912509,33.1842895 60.5197087,33.6507428 C60.6479337,34.1171961 60.792216,34.2138003 61.081246,34.2138003 C61.3698105,34.2138003 63.1342432,33.554372 63.2627009,32.830541 C63.449337,31.7774626 64.2731423,28.6487953 64.4016001,28.1984427 C64.5298251,27.7478567 64.5619396,27.6836873 64.8507368,27.2814034 C65.1393014,26.8793528 66.2621433,26.782982 66.7112801,26.8473848 C67.1606495,26.9115542 67.0000773,27.5548818 66.8718523,28.1179392 C66.7433945,28.6807633 65.0911297,32.9913146 65.5884381,34.1654982 C66.0857466,35.3396818 67.513443,34.1171961 69.3739862,32.4445912 C70.4486565,27.5709825 71.298991,26.9598563 73.3843354,26.7668814 C75.4696797,26.5739064 76.5925216,28.2304107 76.3037243,30.3375009 C76.0149271,32.4445912 74.6193451,33.4738686 72.7106302,34.4228759 C72.7106302,34.4228759 72.6624586,34.6158508 72.7427447,34.6319515 C73.4162171,34.6802536 75.4696797,34.3584731 76.6886322,33.5704727 C76.7849755,32.1389114 77.8114741,23.2443305 79.1107128,20.2689697 C80.4101841,17.2933757 81.5972549,17.4541492 82.6719252,17.7115269 C83.7465954,17.9689046 84.2117894,19.4646353 84.0675071,21.3626499 C83.9229921,23.2604312 81.8160055,26.4455676 79.7146039,29.0030105 C79.7146039,29.0030105 81.9486521,26.2341585 83.4738554,27.4102089 C85.1207677,28.6802966 84.7249223,31.3831124 84.4042433,32.3640877 C84.2976606,32.689835 84.1159115,33.126187 83.8855253,33.5896069 C84.658599,33.1840562 85.4391196,32.658567 86.0502248,32.2091478 C86.0302115,31.4911503 86.1640217,30.8060543 86.4449067,29.7683766 C86.7085709,28.7944015 87.7632278,27.5560485 89.5672217,26.9715235 C91.3712156,26.3869984 93.4802967,27.4447437 94.1882107,28.0012676 C94.631995,28.3503492 94.9831595,28.6830967 95.292901,29.0097774 C95.7841588,28.2208436 96.7164085,27.4111423 98.0735928,26.9715235 C99.8775867,26.3869984 101.9869,27.4447437 102.694582,28.0012676 C103.150933,28.3599162 103.50838,28.7012975 103.824172,29.0366119 C104.178129,25.9592801 104.86091,23.0765567 105.429196,21.481655 C106.265103,19.1349212 107.602506,17.5003512 109.671095,17.7728962 C111.844405,18.0452079 110.674323,22.236054 109.942904,24.4152473 C109.211486,26.5944406 107.396322,29.2830224 106.509452,30.7339512 C106.509452,30.7339512 108.256664,28.346849 109.757432,27.3532731 C110.58403,26.806083 111.961925,26.0836521 112.7222,27.5791495 C113.19647,28.5118227 112.99238,29.4150948 112.430843,30.0899237 C111.654977,31.0218969 110.324089,31.0916666 109.493535,32.588564 C108.906632,33.6458426 109.780703,34.8813955 110.059028,35.06317 C111.0583,35.7146645 112.428981,35.0211682 113.808971,33.8654187 C115.379321,32.5500624 117.062071,29.9830524 117.960345,28.5069225 L115.943884,28.2990136 L120.65982,25.0254401 L120.930233,30.6994164 L120.921855,30.6875159 Z M64.9636028,23.9660614 C64.8246729,24.7451948 65.3103457,25.6358663 66.5176626,25.5800972 C67.7249794,25.5245615 68.4743164,25.0931097 68.5573951,23.8965251 C68.6409392,22.6999405 67.6695936,22.4353292 67.0866467,22.4075613 C65.5458516,22.3340582 65.1023,23.186928 64.9636028,23.9660614 L64.9636028,23.9660614 Z M56.9552383,28.0507363 L53.2213526,28.0507363 L51.9579518,33.5375713 C51.3040273,36.3778263 50.3035926,37.5076747 49.2414889,37.5076747 C48.4367661,37.5076747 47.4388913,36.2487874 47.5801483,35.6355612 C47.6767243,35.2160099 47.842649,35.4740876 48.1644915,35.4740876 C48.7439478,35.4740876 49.1649262,34.7640238 49.5437835,33.11802 L50.7106083,28.0507363 L48.0725697,28.0507363 C47.3965375,28.0507363 47.1291498,27.1147963 47.2853005,26.4367005 C47.3669829,26.0817853 47.5948092,25.7912729 47.9166518,25.7912729 L51.2307226,25.7912729 L53.6460545,15.301557 C49.0727717,15.5920695 45.5788135,17.2058719 44.4122215,22.2731556 C43.8993212,24.5001843 44.5925743,25.8234743 45.2362594,26.6628102 C45.6125569,26.5659728 45.6893523,26.7918491 45.6151168,27.1147963 C45.421732,27.9538989 44.3719621,29.0188778 43.6314682,29.0188778 C43.4704305,29.0188778 43.3170724,28.9866764 43.1858221,28.8576376 C42.4083268,28.1797752 41.081628,25.6944354 41.86913,22.2731556 C43.2961282,16.0762569 48.0527891,12.7518145 55.7781742,12.7518145 C57.5486573,12.7518145 66.2516712,12.8164506 66.9274708,12.8164506 C67.5711559,12.8164506 67.7915354,12.5581395 67.8881115,12.5581395 C68.113378,12.5581395 68.2052998,13.1389311 68.0935974,13.6231185 C67.9153389,14.3978183 67.2169662,15.3339917 66.2190913,15.3339917 C65.6396351,15.3339917 58.1599953,15.2693556 56.1716925,15.2371543 L53.7414669,25.7912729 L57.7650808,25.7912729 C58.9337672,25.0490078 57.6954995,28.0507363 56.9552383,28.0507363 L56.9552383,28.0507363 Z" id="Fill-16" fill="#010202"></path>
            <g id="Icon-/-FP-Logo" transform="translate(131.162791, 8.604651)">
                <g id="Group">
                    <path d="M38.8372093,28.4441367 C38.8372093,28.4441367 37.814759,29.3588697 37.6303045,29.5180894 C31.0630889,34.6521453 23.4511613,37.7569301 15.1570701,39.5348837 L0,14.0035315 L0.10812849,12.912408 C0.10812849,12.912408 15.0075983,12.3941634 19.4201948,0 L37.7829565,21.8443228 C37.7829565,21.8443228 36.7287038,23.0400317 35.8239227,24.0936917 L37.6048625,26.0058895 L37.0101559,26.6084269 L38.8372093,28.4441367 Z M37.8465615,28.3176975 L36.7032618,27.1204276 C26.9875989,36.1787815 15.2429368,38.8418096 15.2429368,38.8418096 L15.2429368,39.0338099 C21.485767,37.622686 26.7443098,35.4279512 30.6114935,33.2831678 C35.2117246,30.7309692 37.8465615,28.3176975 37.8465615,28.3176975 L37.8465615,28.3176975 Z M35.4438829,24.6103754 C25.5866989,35.1719509 15.2429368,38.4265895 15.2429368,38.4265895 L15.2429368,38.6295166 C20.9371739,37.0170266 29.2392157,32.5229716 33.5564047,28.9623814 C35.699893,27.1922326 36.7843581,26.0136944 36.7843581,26.0136944 L35.4438829,24.6103754 Z" id="Fill-1" fill="#000000"></path>
                    <path d="M15.037793,37.9069767 C15.037793,37.9069767 20.441636,36.4435032 26.7312765,31.5443213 C29.8514472,29.1135734 33.3819155,26.0735683 36.5116279,21.9281067 L19.6798818,1.62790698 C19.6798818,1.62790698 16.2082546,11.9994122 0.930232558,13.7910681 L15.037793,37.9069767 Z" id="Path" fill="#FFFFFF"></path>
                    <path d="M26.744186,26.8747425 C25.425894,27.9730373 25.0008972,28.301587 23.8878866,29.0697674 C21.0171533,24.9628962 18.247457,20.8075247 15.2949318,16.7538472 C13.8627727,17.5564472 12.3744819,18.1963369 10.2511015,19.1741634 C10.119593,19.2351797 9.97685824,19.2852445 9.79723694,19.3572125 C9.73469024,19.2304862 9.66572849,19.1287922 9.63204949,19.0161466 C9.28403322,17.8834324 9.90148145,16.8492831 10.9952469,16.1906192 C11.8115615,15.6993592 12.185238,15.0829373 12.3985383,14.3210149 C12.5027828,13.9470941 12.6519326,13.6013346 12.9438173,13.3400594 C12.9678737,13.3197206 12.9774962,13.3103335 13.0015527,13.2884302 C13.0849483,13.2211557 13.3720216,13.0709615 13.3720216,13.0709615 C13.3720216,13.0709615 15.7728528,11.4078743 15.7728528,11.4031807 C16.3020941,10.9213078 16.8553919,10.8462107 17.4167084,10.9072271 C18.2779284,11.002663 19.0525453,10.9056626 19.7549929,10.412838 C20.696401,9.7541741 21.6394128,9.89811016 22.4621425,10.7413877 C22.5439343,10.8258719 22.6096886,10.9291304 22.6978955,11.038647 C22.6048773,11.1419055 22.5359155,11.2279542 22.4605387,11.3014867 C21.2015859,12.5077335 19.9394255,13.6310606 18.3677391,14.7684683 C21.1069639,18.8377911 23.905528,22.8711298 26.744186,26.8747425 Z" id="Path" fill="#410166"></path>
                    <polygon id="Fill-4" fill="#FFFFFF" points="23.9534884 28.372093 13.7209302 13.7196521 16.0465116 12.0930233 26.0465116 26.744186"></polygon>
                </g>
            </g>
            <text id="My" font-family="Pacifico" font-size="25.5813953" font-weight="normal" letter-spacing="0.139534889" fill="#000000">
                <tspan x="0" y="36">M</tspan>
                <tspan x="27.0574582" y="36" font-size="20.9302326">y</tspan>
            </text>
        </g>
    </g>
</svg>