<?xml version="1.0" encoding="UTF-8"?>
<svg width="167px" height="170px" viewBox="0 0 167 170" version="1.1" xmlns="http://www.w3.org/2000/svg" xmlns:xlink="http://www.w3.org/1999/xlink">
    <!-- Generator: Sketch 59.1 (86144) - https://sketch.com -->
    <title>Icon / FP Logo</title>
    <desc>Created with Sketch.</desc>
    <g id="Icon-/-FP-Logo" stroke="none" stroke-width="1" fill="none" fill-rule="evenodd">
        <g id="Group">
            <path d="M167,122.309788 C167,122.309788 162.603464,126.24314 161.81031,126.927785 C133.571282,149.004225 100.839993,162.354799 65.1754012,170 L0,60.2151854 L0.464952506,55.5233545 C0.464952506,55.5233545 64.5326728,53.2949027 83.5068375,0 L162.466713,93.9305879 C162.466713,93.9305879 157.933426,99.0721365 154.042868,103.602874 L161.700909,111.825325 L159.14367,114.416236 L167,122.309788 Z M162.740215,121.766099 L157.824026,116.617839 C116.046675,155.568761 65.5446282,167.019781 65.5446282,167.019781 L65.5446282,167.845382 C92.3887979,161.77755 115.000532,152.34019 131.629422,143.117622 C151.410416,132.143167 162.740215,121.766099 162.740215,121.766099 L162.740215,121.766099 Z M152.408696,105.824614 C110.022805,151.239389 65.5446282,165.234335 65.5446282,165.234335 L65.5446282,166.106921 C90.0298477,159.173214 125.728628,139.848778 144.29254,124.53824 C153.50954,116.9266 158.17274,111.858886 158.17274,111.858886 L152.408696,105.824614 Z" id="Fill-1" fill="#000000"></path>
            <path d="M64.6625101,163 C64.6625101,163 87.8990346,156.707064 114.944489,135.640582 C128.361223,125.188366 143.542237,112.116343 157,94.2908587 L84.6234916,7 C84.6234916,7 69.6954948,51.5974723 4,59.3015928 L64.6625101,163 Z" id="Path" fill="#FFFFFF"></path>
            <path d="M115,115.561393 C109.331344,120.28406 107.503858,121.696824 102.717912,125 C90.3737591,107.340454 78.4640649,89.4723564 65.7682067,72.0415431 C59.6099225,75.4927231 53.2102721,78.2442486 44.0797364,82.4489025 C43.51425,82.7112729 42.9004904,82.9265512 42.1281188,83.2360137 C41.859168,82.6910905 41.5626325,82.2538065 41.4178128,81.7694304 C39.9213429,76.8987593 42.5763702,72.4519174 47.2795616,69.6196625 C50.7897146,67.5072444 52.3965234,64.8566305 53.3137147,61.5803642 C53.7619661,59.9725046 54.4033103,58.4857389 55.6584142,57.3622554 C55.7618568,57.2747986 55.8032339,57.2344339 55.9066765,57.1402497 C56.2652776,56.8509695 57.4996929,56.2051347 57.4996929,56.2051347 C57.4996929,56.2051347 67.8232669,49.0538593 67.8232669,49.033677 C70.0990046,46.9616235 72.478185,46.6387061 74.8918462,46.9010765 C78.5950922,47.3114507 81.9259447,46.8943491 84.9464694,44.7752035 C88.9945241,41.9429486 93.049475,42.5618737 96.5872128,46.1879672 C96.9389177,46.5512493 97.2216609,46.9952608 97.6009505,47.466182 C97.2009723,47.9101934 96.9044368,48.280203 96.5803166,48.596393 C91.1668192,53.783254 85.7395295,58.6135604 78.981278,63.5044138 C90.7599449,81.0025015 102.79377,98.345858 115,115.561393 Z" id="Path" fill="#410166"></path>
            <polygon id="Fill-4" fill="#FFFFFF" points="103 122 59 58.9945038 69 52 112 115"></polygon>
        </g>
    </g>
</svg>