<?xml version="1.0" encoding="UTF-8"?>
<svg width="50px" height="50px" viewBox="0 0 50 50" version="1.1" xmlns="http://www.w3.org/2000/svg" xmlns:xlink="http://www.w3.org/1999/xlink">
    <!-- Generator: Sketch 59.1 (86144) - https://sketch.com -->
    <title>Icon / FR Stamp Copy</title>
    <desc>Created with Sketch.</desc>
    <g id="L-Individual-Profile" stroke="none" stroke-width="1" fill="none" fill-rule="evenodd">
        <g id="L00H---TW-Home-Page" transform="translate(-236.000000, -3.000000)">
            <g id="Icon-/-FR-Stamp" transform="translate(236.000000, 3.000000)">
                <g id="Group-7" transform="translate(-1.250000, 0.000000)">
                    <polygon id="Fill-1" fill="#422063" points="22.78925 0.0005 19.20175 4.6905 13.48425 3.228 11.96925 8.933 6.12425 9.7705 6.90675 15.623 1.82925 18.6305 4.78925 23.738 1.24925 28.463 5.94175 32.0455 4.47925 37.7655 10.18175 39.283 11.02175 45.1255 16.87175 44.343 19.87925 49.423 24.98675 46.4605 29.71175 50.0005 33.29675 45.3105 39.01425 46.773 40.53175 41.068 46.37675 40.2305 45.59425 34.378 50.67175 31.368 47.71175 26.263 51.24925 21.538 46.55925 17.953 48.02175 12.2355 42.31925 10.718 41.47925 4.873 35.62675 5.6555 32.61925 0.578 27.51175 3.5405"></polygon>
                    <g id="Group-6" transform="translate(11.250000, 13.750000)" fill="#FEFEFE">
                        <path d="M2.449,8.639 C2.449,4.614 2.449,3.8915 2.3965,3.0665 C2.344,2.189 2.139,1.7765 1.289,1.5965 C1.134,1.569 0.8765,1.569 0.6415,1.544 C0.4115,1.5165 0.204,1.4915 0.204,1.364 C0.204,1.209 0.334,1.1565 0.6165,1.1565 C1.624,1.1565 2.604,1.234 3.534,1.234 C4.049,1.234 9.2865,1.234 9.8815,1.209 C10.474,1.184 10.939,1.184 11.144,1.054 C11.2215,1.0015 11.324,0.949 11.3765,0.949 C11.479,0.949 11.5315,1.054 11.5315,1.184 C11.5315,1.3115 11.429,1.6715 11.3765,1.9815 C11.274,2.7315 11.274,3.144 11.2215,3.8665 C11.2215,4.1765 11.094,4.3815 10.989,4.3815 C10.8615,4.3815 10.834,4.279 10.809,4.0465 C10.7815,3.6865 10.679,3.0665 10.319,2.7565 C10.009,2.499 9.544,2.2915 8.7965,2.2665 L4.849,2.189 C4.694,2.189 4.6165,2.2665 4.6165,2.474 L4.6165,9.594 C4.6165,9.749 4.6415,9.8265 4.7965,9.8265 C5.854,9.8265 7.3265,9.8265 8.384,9.8015 C9.7515,9.774 10.0865,9.749 10.449,9.3115 C10.5765,9.1565 10.6265,9.054 10.7315,9.054 C10.834,9.054 10.8615,9.129 10.8615,9.259 C10.8615,9.414 10.7315,9.8515 10.654,10.704 C10.5765,11.479 10.5765,12.0965 10.5515,12.484 C10.524,12.7665 10.499,12.9215 10.369,12.9215 C10.214,12.9215 10.189,12.7415 10.164,12.484 C10.1115,11.9165 10.034,11.014 8.694,10.8315 C8.049,10.7565 5.2365,10.7565 4.7965,10.7565 C4.669,10.7565 4.6165,10.8065 4.6165,10.9865 L4.6165,13.1815 C4.6165,15.374 4.6165,17.2065 4.694,18.3915 C4.7715,19.554 5.054,20.1215 5.7515,20.199 C6.0865,20.2515 6.5265,20.2765 6.809,20.304 C7.0415,20.329 7.119,20.379 7.119,20.484 C7.119,20.6115 6.989,20.664 6.7065,20.664 C5.2615,20.664 3.6615,20.5865 3.534,20.5865 L3.299,20.5865 C2.784,20.6115 1.624,20.664 1.004,20.664 C0.7215,20.664 0.5915,20.6115 0.5915,20.4565 C0.5915,20.379 0.6415,20.329 0.8765,20.304 C1.134,20.2765 1.364,20.2515 1.5465,20.199 C2.0865,20.044 2.269,19.6565 2.344,18.5215 C2.424,17.4115 2.449,15.6065 2.449,13.1815 L2.449,8.639 Z" id="Fill-2"></path>
                        <path d="M17.466,10.88375 C17.466,11.01375 17.5185,11.11625 17.646,11.19375 C18.0335,11.42625 19.221,11.60625 20.356,11.60625 C20.976,11.60625 21.696,11.52875 22.291,11.11625 C23.1935,10.49625 23.866,9.10375 23.866,7.14125 C23.866,3.91625 22.161,1.98125 19.401,1.98125 C18.626,1.98125 17.931,2.05875 17.6735,2.13625 C17.5435,2.18875 17.466,2.29125 17.466,2.44625 L17.466,10.88375 Z M15.401,8.63875 C15.401,4.61375 15.401,3.89125 15.351,3.06625 C15.2985,2.18875 15.091,1.77625 14.241,1.59625 C14.0335,1.54375 13.596,1.51625 13.3635,1.51625 C13.261,1.51625 13.156,1.46625 13.156,1.36375 C13.156,1.20875 13.286,1.15625 13.5685,1.15625 C14.731,1.15625 16.356,1.23375 16.486,1.23375 C16.7685,1.23375 18.731,1.15625 19.531,1.15625 C21.156,1.15625 22.8835,1.31125 24.251,2.29125 C24.8985,2.75625 26.0335,4.02125 26.0335,5.80125 C26.0335,7.70875 25.231,9.62125 22.911,11.76125 C25.026,14.47125 26.781,16.76875 28.2785,18.36625 C29.671,19.83875 30.781,20.12125 31.426,20.22375 C31.916,20.30375 32.276,20.30375 32.431,20.30375 C32.561,20.30375 32.6635,20.37875 32.6635,20.45625 C32.6635,20.61125 32.5085,20.66375 32.046,20.66375 L30.2135,20.66375 C28.7685,20.66375 28.1235,20.53375 27.451,20.17375 C26.341,19.58125 25.4385,18.31625 23.9685,16.38125 C22.8835,14.96125 21.671,13.23125 21.156,12.56125 C21.0535,12.45875 20.976,12.40625 20.821,12.40625 L17.646,12.35375 C17.5185,12.35375 17.466,12.43375 17.466,12.56125 L17.466,13.18125 C17.466,15.65875 17.466,17.69625 17.596,18.77875 C17.6735,19.52875 17.8285,20.09625 18.601,20.19875 C18.9635,20.25125 19.531,20.30375 19.761,20.30375 C19.916,20.30375 19.9685,20.37875 19.9685,20.45625 C19.9685,20.58625 19.841,20.66375 19.556,20.66375 C18.136,20.66375 16.511,20.58625 16.381,20.58625 C16.356,20.58625 14.731,20.66375 13.956,20.66375 C13.6735,20.66375 13.5435,20.61125 13.5435,20.45625 C13.5435,20.37875 13.596,20.30375 13.751,20.30375 C13.981,20.30375 14.291,20.25125 14.5235,20.19875 C15.041,20.09625 15.171,19.52875 15.2735,18.77875 C15.401,17.69625 15.401,15.65875 15.401,13.18125 L15.401,8.63875 Z" id="Fill-4"></path>
                    </g>
                </g>
            </g>
        </g>
    </g>
</svg>