<?xml version="1.0" encoding="UTF-8"?>
<svg width="20px" height="20px" viewBox="0 0 20 20" version="1.1" xmlns="http://www.w3.org/2000/svg" xmlns:xlink="http://www.w3.org/1999/xlink">
    <!-- Generator: Sketch 61 (89581) - https://sketch.com -->
    <title>Icon / Enter Arrow</title>
    <desc>Created with Sketch.</desc>
    <g id="Symbols" stroke="none" stroke-width="1" fill="none" fill-rule="evenodd">
        <g id="Profile-00-/-Top-menu" transform="translate(-798.000000, -186.000000)" fill="#422063">
            <g id="Icon-/-Happy-Arrow" transform="translate(798.000000, 186.000000)">
                <g id="Page-1">
                    <path d="M2.76704728,10 C2.76704728,11.4120747 2.34052278,12.3098117 1.875,13.2013696 C3.11618936,12.681147 8.08493877,11.9240584 10.8725481,12.1609245 L10.3296429,16.875 C12.7730234,13.9019634 15.5492711,11.9249412 18.125,10 C15.5492711,8.07505885 12.7730234,6.09803659 10.3296429,3.125 L10.8725481,7.8387813 C8.08493877,8.07594158 3.11618936,7.31855874 1.875,6.79833619 C2.34052278,7.69018832 2.76704728,8.58792532 2.76704728,10" id="Fill-1"></path>
                    <path d="M16.5522769,0.2928 L3.15473846,0.2928 C1.41258462,0.2928 -3.07692308e-05,1.70541538 -3.07692308e-05,3.44787692 L-3.07692308e-05,16.8451077 C-3.07692308e-05,18.5875692 1.41258462,19.9998769 3.15473846,19.9998769 L16.5522769,19.9998769 C18.2947385,19.9998769 19.7070462,18.5875692 19.7070462,16.8451077 L19.7070462,3.44787692 C19.7070462,1.70541538 18.2947385,0.2928 16.5522769,0.2928 M16.5522769,0.908184615 C17.9525846,0.908184615 19.0916615,2.04756923 19.0916615,3.44787692 L19.0916615,16.8451077 C19.0916615,18.2454154 17.9525846,19.3844923 16.5522769,19.3844923 L3.15473846,19.3844923 C1.75473846,19.3844923 0.615353846,18.2454154 0.615353846,16.8451077 L0.615353846,3.44787692 C0.615353846,2.04756923 1.75473846,0.908184615 3.15473846,0.908184615 L16.5522769,0.908184615" id="Fill-3"></path>
                </g>
            </g>
        </g>
    </g>
</svg>