<?xml version="1.0" encoding="UTF-8"?>
<svg width="42px" height="29px" viewBox="0 0 42 29" version="1.1" xmlns="http://www.w3.org/2000/svg" xmlns:xlink="http://www.w3.org/1999/xlink">
    <!-- Generator: Sketch 61 (89581) - https://sketch.com -->
    <title>Page 1 Copy</title>
    <desc>Created with Sketch.</desc>
    <g id="Symbols" stroke="none" stroke-width="1" fill="none" fill-rule="evenodd">
        <g id="Profile-00-/-Welcome-Timothy" transform="translate(-221.000000, -7.000000)">
            <g id="Page-1-Copy" transform="translate(221.000000, 7.000000)">
                <polygon id="Fill-1" fill="#4C006C" points="0 1.35074457 0 4.84041576 9.03852174 4.84041576 15.3722554 21.4153777 37.0196712 21.4153777 41.1354266 8.33008696 37.7329647 8.33008696 34.8836957 17.9257065 17.4900082 17.9257065 11.1562745 1.35074457"></polygon>
                <g id="Group-8" transform="translate(14.317935, 0.037009)">
                    <path d="M3.32709755,28.6358696 L3.32709755,28.6358696 C1.58161114,28.6358696 0.168040489,27.2209973 0.168040489,25.4768125 L0.168040489,25.4768125 C0.168040489,23.7313261 1.58161114,22.3164538 3.32709755,22.3164538 C5.07258397,22.3164538 6.48615462,23.7313261 6.48615462,25.4768125 L6.48615462,25.4768125 C6.48615462,27.2209973 5.07258397,28.6358696 3.32709755,28.6358696" id="Fill-2" fill="#4C006C"></path>
                    <path d="M19.9149457,28.6358696 L19.9149457,28.6358696 C18.1694592,28.6358696 16.7558886,27.2209973 16.7558886,25.4768125 L16.7558886,25.4768125 C16.7558886,23.7313261 18.1694592,22.3164538 19.9149457,22.3164538 C21.6604321,22.3164538 23.0740027,23.7313261 23.0740027,25.4768125 L23.0740027,25.4768125 C23.0740027,27.2209973 21.6604321,28.6358696 19.9149457,28.6358696" id="Fill-4" fill="#4C006C"></path>
                    <path d="M14.1176139,6.9145212 C14.1176139,4.53644239 13.440766,2.69984185 11.584641,2.69984185 C9.74934212,2.69984185 9.05296984,4.53644239 9.05296984,6.9145212 C9.05296984,9.2926 9.74934212,11.1474234 11.584641,11.1474234 C13.4212416,11.1474234 14.1176139,9.2926 14.1176139,6.9145212 M6.24925788,6.9145212 C6.24925788,3.59015707 7.89321712,0.264491304 11.584641,0.264491304 C15.2773666,0.264491304 16.9200242,3.59015707 16.9200242,6.9145212 C16.9200242,10.2388853 15.2773666,13.5840755 11.584641,13.5840755 C7.89321712,13.5840755 6.24925788,10.2388853 6.24925788,6.9145212" id="Fill-6" fill="#000000"></path>
                </g>
            </g>
        </g>
    </g>
</svg>