<?xml version="1.0" encoding="UTF-8"?>
<svg width="15px" height="15px" viewBox="0 0 15 15" version="1.1" xmlns="http://www.w3.org/2000/svg" xmlns:xlink="http://www.w3.org/1999/xlink">
    <!-- Generator: Sketch 59.1 (86144) - https://sketch.com -->
    <title>Icon / Exclamation 15x15</title>
    <desc>Created with Sketch.</desc>
    <g id="Icon-/-Exclamation-15x15" stroke="none" stroke-width="1" fill="none" fill-rule="evenodd">
        <g id="Page-1" fill="#C0202A">
            <path d="M8.15479412,4.13269139 L7.63159276,10.0716257 L7.34845928,10.0716257 L6.79685294,4.13269139 L6.79685294,3.71488137 C6.79685294,3.06199777 7.02317647,2.73555597 7.47582353,2.73555597 C7.91930769,2.73555597 8.15021267,3.06199777 8.16945475,3.71488137 C8.16945475,3.92068163 8.1648733,4.05995164 8.15479412,4.13269139 M6.60534842,11.8111702 C6.60534842,11.5787579 6.6951448,11.3800542 6.87473756,11.2150591 C7.05341403,11.0509511 7.2586629,10.9693407 7.48956787,10.9693407 C7.64991855,10.9693407 7.79377602,11.0083718 7.92114027,11.0855469 C8.04850452,11.163609 8.15112896,11.2656221 8.22901357,11.3942473 C8.30689819,11.5219854 8.34538235,11.6603683 8.34538235,11.8111702 C8.34538235,12.035599 8.26108371,12.2316415 8.09157014,12.4001848 C7.92114027,12.5696152 7.72047285,12.6538868 7.48956787,12.6538868 C7.25408145,12.6538868 7.04791629,12.5705022 6.8710724,12.4037331 C6.69422851,12.2378509 6.60534842,12.0400343 6.60534842,11.8111702" id="Fill-1"></path>
            <path d="M7.46134615,1.49569808 C4.00693439,1.49569808 1.1975905,4.21545503 1.1975905,7.55970933 C1.1975905,10.9030766 4.00693439,13.6237206 7.46134615,13.6237206 C10.9157579,13.6237206 13.7251018,10.9030766 13.7251018,7.55970933 C13.7251018,4.21545503 10.9157579,1.49569808 7.46134615,1.49569808 M7.46134615,14.7831212 C3.34720588,14.7831212 0,11.5426541 0,7.55970933 C0,3.57676455 3.34720588,0.336297454 7.46134615,0.336297454 C11.5754864,0.336297454 14.9226923,3.57676455 14.9226923,7.55970933 C14.9226923,11.5426541 11.5754864,14.7831212 7.46134615,14.7831212" id="Fill-3"></path>
        </g>
    </g>
</svg>