<?xml version="1.0" encoding="UTF-8"?>
<svg width="20px" height="20px" viewBox="0 0 20 20" version="1.1" xmlns="http://www.w3.org/2000/svg" xmlns:xlink="http://www.w3.org/1999/xlink">
    <!-- Generator: Sketch 59.1 (86144) - https://sketch.com -->
    <title>Fill 1</title>
    <desc>Created with Sketch.</desc>
    <g id="Symbols" stroke="none" stroke-width="1" fill="none" fill-rule="evenodd">
        <g id="Card-/-Edit-Mode" transform="translate(-22.000000, -176.000000)" fill="#7A7A7A">
            <path d="M40.052,192.135333 C40.052,193.192667 39.1913333,194.052 38.134,194.052 L25.8646667,194.052 C24.8073333,194.052 23.948,193.192667 23.948,192.135333 L23.948,183.948 L26.9333333,183.948 C26.676,184.582 26.5313333,185.274667 26.5313333,186 C26.5313333,189.015333 28.984,191.468667 32,191.468667 C35.0153333,191.468667 37.4686667,189.015333 37.4686667,186 C37.4686667,185.274667 37.3226667,184.582 37.0653333,183.948 L40.052,183.948 L40.052,192.135333 Z M29.146,183.948 C29.7866667,183.061333 30.8253333,182.480667 32,182.480667 C33.1746667,182.480667 34.2133333,183.061333 34.854,183.948 C35.2706667,184.526 35.5206667,185.234 35.5206667,186 C35.5206667,187.94 33.94,189.519333 32,189.519333 C30.0586667,189.519333 28.4793333,187.94 28.4793333,186 C28.4793333,185.234 28.7293333,184.526 29.146,183.948 L29.146,183.948 Z M39.2433333,178.306 L39.6846667,178.303333 L39.6846667,178.744667 L39.6846667,181.692667 L36.3073333,181.704667 L36.2953333,178.315333 L39.2433333,178.306 Z M38.134,176 L25.8646667,176 C23.7326667,176 22,177.732667 22,179.864667 L22,183.948 L22,192.135333 C22,194.266667 23.7326667,196 25.8646667,196 L38.134,196 C40.2653333,196 42,194.266667 42,192.135333 L42,183.948 L42,179.864667 C42,177.732667 40.2653333,176 38.134,176 L38.134,176 Z" id="Fill-1"></path>
        </g>
    </g>
</svg>