<?xml version="1.0" encoding="UTF-8"?>
<svg width="31px" height="31px" viewBox="0 0 31 31" version="1.1" xmlns="http://www.w3.org/2000/svg" xmlns:xlink="http://www.w3.org/1999/xlink">
    <!-- Generator: Sketch 59.1 (86144) - https://sketch.com -->
    <title>Icon / Instagram</title>
    <desc>Created with Sketch.</desc>
    <g id="Icon-/-Instagram" stroke="none" stroke-width="1" fill="none" fill-rule="evenodd">
        <g id="Group-5">
            <path d="M30.75,23.249 C30.75,27.392 27.392,30.75 23.25,30.75 L8.25,30.75 C4.106,30.75 0.75,27.392 0.75,23.249 L0.75,8.25 C0.75,4.107 4.106,0.75 8.25,0.75 L23.25,0.75 C27.392,0.75 30.75,4.107 30.75,8.25 L30.75,23.249 Z" id="Stroke-1" stroke="#7F7F7F" stroke-width="1.5"></path>
            <path d="M23.2989,21.5019 C23.2989,22.4929 22.4919,23.2989 21.5009,23.2989 L9.9979,23.2989 C9.0069,23.2989 8.2009,22.4929 8.2009,21.5019 L8.2009,13.8259 L10.9999,13.8259 C10.7589,14.4209 10.6229,15.0699 10.6229,15.7499 C10.6229,18.5769 12.9229,20.8769 15.7499,20.8769 C18.5769,20.8769 20.8769,18.5769 20.8769,15.7499 C20.8769,15.0699 20.7399,14.4209 20.4979,13.8259 L23.2989,13.8259 L23.2989,21.5019 Z M13.0739,13.8259 C13.6749,12.9949 14.6489,12.4509 15.7499,12.4509 C16.8509,12.4509 17.8249,12.9949 18.4259,13.8259 C18.8169,14.3679 19.0509,15.0319 19.0509,15.7499 C19.0509,17.5689 17.5689,19.0499 15.7499,19.0499 C13.9299,19.0499 12.4489,17.5689 12.4489,15.7499 C12.4489,15.0319 12.6839,14.3679 13.0739,13.8259 L13.0739,13.8259 Z M22.5409,8.5369 L22.9549,8.5349 L22.9549,8.9479 L22.9549,11.7119 L19.7879,11.7229 L19.7779,8.5449 L22.5409,8.5369 Z M21.5009,6.3749 L9.9979,6.3749 C7.9999,6.3749 6.3749,7.9999 6.3749,9.9979 L6.3749,13.8259 L6.3749,21.5019 C6.3749,23.5009 7.9999,25.1249 9.9979,25.1249 L21.5009,25.1249 C23.4989,25.1249 25.1249,23.5009 25.1249,21.5019 L25.1249,13.8259 L25.1249,9.9979 C25.1249,7.9999 23.4989,6.3749 21.5009,6.3749 L21.5009,6.3749 Z" id="Fill-3" fill="#7F7F7F"></path>
        </g>
    </g>
</svg>