<?xml version="1.0" encoding="UTF-8"?>
<svg width="20px" height="20px" viewBox="0 0 20 20" version="1.1" xmlns="http://www.w3.org/2000/svg" xmlns:xlink="http://www.w3.org/1999/xlink">
    <!-- Generator: Sketch 59.1 (86144) - https://sketch.com -->
    <title>Icon / Linkedin</title>
    <desc>Created with Sketch.</desc>
    <g id="Icon-/-Linkedin" stroke="none" stroke-width="1" fill="none" fill-rule="evenodd">
        <g id="Page-1" fill="#7F7F7F">
            <path d="M15,0 L5,0 C2.237,0 0,2.238 0,5 L0,15 C0,17.761 2.237,20 5,20 L15,20 C17.761,20 20,17.761 20,15 L20,5 C20,2.238 17.761,0 15,0 Z M15,1 C17.206,1 19,2.794 19,5 L19,15 C19,17.206 17.206,19 15,19 L5,19 C2.794,19 1,17.206 1,15 L1,5 C1,2.794 2.794,1 5,1 L15,1 Z" id="Fill-1"></path>
            <polygon id="Fill-3" points="3.611 16.118 6.781 16.118 6.781 7.062 3.611 7.062"></polygon>
            <path d="M5.1963,5.7036 C6.0713,5.7036 6.7813,4.9936 6.7813,4.1186 C6.7813,3.2436 6.0713,2.5336 5.1963,2.5336 C4.3203,2.5336 3.6113,3.2436 3.6113,4.1186 C3.6113,4.9936 4.3203,5.7036 5.1963,5.7036" id="Fill-5"></path>
            <path d="M17.1963,11.1416 C17.1963,8.6976 16.6693,7.0616 13.8203,7.0616 C12.4513,7.0616 11.5323,7.5706 11.1563,8.2846 L11.1173,8.2846 L11.1173,7.0616 L8.5923,7.0616 L8.5923,16.1186 L11.2313,16.1186 L11.2313,11.6286 C11.2313,10.4456 11.4553,9.2996 12.9203,9.2996 C14.3623,9.2996 14.4783,10.6536 14.4783,11.7046 L14.4783,16.1186 L17.1963,16.1186 L17.1963,11.1416 Z" id="Fill-6"></path>
        </g>
    </g>
</svg>