<?xml version="1.0" encoding="UTF-8"?>
<svg width="8px" height="8px" viewBox="0 0 8 8" version="1.1" xmlns="http://www.w3.org/2000/svg" xmlns:xlink="http://www.w3.org/1999/xlink">
    <!-- Generator: Sketch 59.1 (86144) - https://sketch.com -->
    <title>Icon / Little Purple Star</title>
    <desc>Created with Sketch.</desc>
    <g id="Icon-/-Little-Purple-Star" stroke="none" stroke-width="1" fill="none" fill-rule="evenodd">
        <path d="M5.60768411,7.36112654 L4.14068411,6.44112654 C4.02468411,6.36812654 3.83768411,6.36912654 3.72268411,6.44212654 L2.29668411,7.35112654 C1.60568411,7.79212654 1.20668411,7.50512654 1.40568411,6.71012654 L1.82768411,5.03012654 C1.86068411,4.89812654 1.80268411,4.71912654 1.69668411,4.63212654 L0.391684115,3.55812654 C-0.241315885,3.03712654 -0.0913158855,2.56812654 0.727684115,2.51212654 L2.45468411,2.39412654 C2.59068411,2.38512654 2.74268411,2.27412654 2.79268411,2.14712654 L3.41068411,0.573126539 C3.71168411,-0.189873461 4.20368411,-0.190873461 4.50968411,0.569126539 L5.15568411,2.17612654 C5.20668411,2.30212654 5.35868411,2.41212654 5.49468411,2.42112654 L7.18268411,2.52312654 C8.00168411,2.57312654 8.15468411,3.04012654 7.52568411,3.56612654 L6.19768411,4.67612654 C6.09168411,4.76412654 6.03568411,4.94312654 6.06968411,5.07512654 L6.49368411,6.71212654 C6.69968411,7.50612654 6.30268411,7.79712654 5.60768411,7.36112654" id="Fill-4" fill="#410166"></path>
    </g>
</svg>