<?xml version="1.0" encoding="UTF-8"?>
<svg width="19px" height="19px" viewBox="0 0 19 19" version="1.1" xmlns="http://www.w3.org/2000/svg" xmlns:xlink="http://www.w3.org/1999/xlink">
    <!-- Generator: Sketch 59.1 (86144) - https://sketch.com -->
    <title>Icon / Pencil icon</title>
    <desc>Created with Sketch.</desc>
    <defs>
        <polygon id="path-1" points="0.0003 0.156 17.8433742 0.156 17.8433742 17.9998 0.0003 17.9998"></polygon>
    </defs>
    <g id="Icon-/-Pencil-icon" stroke="none" stroke-width="1" fill="none" fill-rule="evenodd">
        <g id="Group-6" transform="translate(1.000000, 0.000000)">
            <g id="Group-3" transform="translate(0.000000, 0.844300)">
                <mask id="mask-2" fill="white">
                    <use xlink:href="#path-1"></use>
                </mask>
                <g id="Clip-2"></g>
                <path d="M16.9013,1.3418 C17.4973,1.9368 18.4243,3.4308 17.3493,4.5048 C16.0663,5.7878 4.4063,17.4498 4.4063,17.4498 L0.0003,17.9998 L0.5493,13.5918 C0.5493,13.5918 12.2113,1.9298 13.4943,0.6488 C14.5683,-0.4252 16.0613,0.5028 16.6563,1.0968 L16.9013,1.3418 Z" id="Fill-1" fill="#404041" mask="url(#mask-2)"></path>
            </g>
            <path d="M13.5283,2.3228 C13.2853,2.3018 12.9753,2.5648 12.8203,2.7188 C12.6653,2.8718 2.8373,12.6148 2.3043,13.1398 C1.7743,13.6678 1.2853,14.5128 1.7693,14.9948 C2.4293,15.6538 3.0523,15.3878 3.4963,15.2568 C3.3623,15.6948 3.1003,16.3198 3.8103,17.0258 C4.2943,17.5078 5.0903,16.9668 5.6213,16.4398 C6.1523,15.9128 15.9803,6.1708 16.1363,6.0178 C16.2913,5.8648 16.5563,5.5568 16.5353,5.3168 C16.2493,5.1628 15.2313,4.7588 14.6603,4.1898 C14.0903,3.6208 13.6803,2.6068 13.5283,2.3228" id="Fill-4" fill="#FCC010"></path>
        </g>
    </g>
</svg>