<?xml version="1.0" encoding="utf-8"?>
<!-- Generator: Adobe Illustrator 24.0.0, SVG Export Plug-In . SVG Version: 6.00 Build 0)  -->
<svg version="1.1" id="Layer_1" xmlns="http://www.w3.org/2000/svg" xmlns:xlink="http://www.w3.org/1999/xlink" x="0px" y="0px"
	 viewBox="0 0 18 18" style="enable-background:new 0 0 18 18;" xml:space="preserve">
<style type="text/css">
	.st0{filter:url(#Adobe_OpacityMaskFilter);}
	.st1{fill-rule:evenodd;clip-rule:evenodd;fill:#FFFFFF;}
	.st2{mask:url(#mask-2_1_);fill-rule:evenodd;clip-rule:evenodd;fill:#2C1851;}
	.st3{filter:url(#Adobe_OpacityMaskFilter_1_);}
	.st4{mask:url(#mask-4_1_);fill-rule:evenodd;clip-rule:evenodd;fill:#2C1851;}
	.st5{fill:#B4B4B4;}
	.st6{fill:#A2A2A2;}
</style>
<path class="st6" d="M9,18c-5,0-9-4-9-9c0-5,4-9,9-9s9,4,9,9C18,13.9,13.9,18,9,18z M9,1C4.6,1,1,4.6,1,9c0,4.4,3.6,8,8,8s8-3.6,8-8
	C17,4.6,13.4,1,9,1z M14.9,8.3h-4.6V3.8h-2v4.6H3.8v2h4.6v4.6h2v-4.6h4.6V8.3z"/>
</svg>
