<?xml version="1.0" encoding="UTF-8"?>
<svg width="21px" height="13px" viewBox="0 0 21 13" version="1.1" xmlns="http://www.w3.org/2000/svg" xmlns:xlink="http://www.w3.org/1999/xlink">
    <!-- Generator: Sketch 59.1 (86144) - https://sketch.com -->
    <title>Icon / Purple Eye</title>
    <desc>Created with Sketch.</desc>
    <g id="Icon-/-Purple-Eye" stroke="none" stroke-width="1" fill="none" fill-rule="evenodd" fill-opacity="0.51769135">
        <path d="M8.113,3.96 C7.612,3.96 7.206,4.366 7.206,4.868 C7.206,5.369 7.612,5.775 8.113,5.775 C8.615,5.775 9.022,5.369 9.022,4.868 C9.022,4.366 8.615,3.96 8.113,3.96 L8.113,3.96 Z M18.992,6.892 C17.307,4.893 15.041,3.557 12.535,3.031 C13.827,3.836 14.694,5.258 14.694,6.892 C14.694,8.525 13.827,9.947 12.536,10.752 C15.042,10.226 17.307,8.89 18.992,6.892 L18.992,6.892 Z M5.579,6.892 C5.579,5.258 6.445,3.836 7.737,3.031 C5.231,3.557 2.966,4.893 1.281,6.892 C2.966,8.89 5.231,10.226 7.737,10.752 C6.445,9.947 5.579,8.525 5.579,6.892 L5.579,6.892 Z M20.273,6.892 L20.029,7.201 C17.625,10.255 14.02,12.006 10.137,12.006 C6.254,12.006 2.648,10.255 0.244,7.201 L0,6.892 L0.244,6.582 C2.649,3.528 6.255,1.777 10.137,1.777 C14.019,1.777 17.624,3.528 20.029,6.582 L20.273,6.892 Z M0.036,5.305 C2.389,2.074 6.039,0 10.137,0 C14.234,0 17.884,2.074 20.236,5.305 C17.884,2.494 14.234,0.69 10.137,0.69 C6.039,0.69 2.389,2.494 0.036,5.305 L0.036,5.305 Z" id="Fill-1-Copy" fill="#44036A"></path>
    </g>
</svg>