<?xml version="1.0" encoding="UTF-8"?>
<svg width="36px" height="49px" viewBox="0 0 36 49" version="1.1" xmlns="http://www.w3.org/2000/svg" xmlns:xlink="http://www.w3.org/1999/xlink">
    <!-- Generator: Sketch 59.1 (86144) - https://sketch.com -->
    <title>Icon / Purple Ribbon</title>
    <desc>Created with Sketch.</desc>
    <defs>
        <polygon id="path-1" points="0 0 35.1043622 0 35.1043622 49 0 49"></polygon>
    </defs>
    <g id="Icon-/-Purple-Ribbon" stroke="none" stroke-width="1" fill="none" fill-rule="evenodd">
        <g id="Group-3">
            <mask id="mask-2" fill="white">
                <use xlink:href="#path-1"></use>
            </mask>
            <g id="Clip-2"></g>
            <path d="M21.9211844,24.4961889 L18.8918956,23.9386778 L17.6658067,26.7654333 L14.9806067,25.2551444 L12.9040956,27.5309222 L10.8548067,25.2301 L10.3016511,25.5328111 C10.1688067,34.4421 11.95894,44.7636778 14.8216289,49.0005444 C17.0810733,41.6331222 21.0598733,37.5857222 21.0598733,37.5857222 C21.8395178,37.5585 27.4102733,41.7812111 35.1043622,41.6124333 C27.7391178,35.8173667 21.9211844,24.4961889 21.9211844,24.4961889 L21.9211844,24.4961889 Z M18.2440067,22.7256556 L17.15294,25.2420778 L14.7628289,23.8973 L12.9138956,25.9237222 L11.0889178,23.8755222 L8.68247333,25.1909 L7.62189556,22.6614111 L4.91818444,23.1241889 L4.73742889,20.3878111 L2.02936222,19.9468111 L2.74694,17.2997222 L0.328517778,16.0039444 L1.86602889,13.7336111 L-0.000326666667,11.7235222 L2.19160667,10.0738556 L1.07876222,7.56723333 L3.68774,6.71898889 L3.44927333,3.98696667 L6.19218444,4.03161111 L6.85422889,1.36927778 L9.43380667,2.30245556 L10.9234067,-0.000544444444 L13.0608956,1.7199 L15.2179844,0.0255888889 L16.6814511,2.3471 L19.2708289,1.4455 L19.9012956,4.11436667 L22.6431178,4.10238889 L22.3719844,6.83223333 L24.9700733,7.71205556 L23.8278289,10.2056111 L25.9990733,11.8814111 L24.1087622,13.8686333 L25.6190511,16.1585667 L23.1842956,17.4238556 L23.8692067,20.0796556 L21.1567844,20.4869 L20.9422733,23.2211 L18.2440067,22.7256556 Z" id="Fill-1" fill="#412463" mask="url(#mask-2)"></path>
        </g>
    </g>
</svg>