<?xml version="1.0" encoding="UTF-8"?>
<svg width="50px" height="103px" viewBox="0 0 50 103" version="1.1" xmlns="http://www.w3.org/2000/svg" xmlns:xlink="http://www.w3.org/1999/xlink">
    <!-- Generator: Sketch 59.1 (86144) - https://sketch.com -->
    <title>Icon / Rember Password</title>
    <desc>Created with Sketch.</desc>
    <defs>
        <polygon id="path-1" points="0 0.002 43.3252366 0.002 43.3252366 101 0 101"></polygon>
        <polygon id="path-3" points="0.335991816 0.731924161 30.343 0.731924161 30.343 21.4301 0.335991816 21.4301"></polygon>
    </defs>
    <g id="Icon-/-Rember-Password" stroke="none" stroke-width="1" fill="none" fill-rule="evenodd">
        <g id="Group-7" transform="translate(0.000000, 0.500000)">
            <g id="Group-3" transform="translate(0.000000, 0.998000)">
                <mask id="mask-2" fill="white">
                    <use xlink:href="#path-1"></use>
                </mask>
                <g id="Clip-2"></g>
                <path d="M35.5883,98 C33.4073,88.006 34.3493,77.753 38.3223,68.307 C39.2083,66.236 39.8423,64.065 40.2103,61.849 C40.4563,59.866 40.3833,57.847 39.9933,55.867 L39.8383,54.737 C39.6823,53.379 39.6143,52.012 39.6333,50.663 C39.6333,49.604 39.6333,48.597 39.5263,47.593 C39.2963,45.25 38.9253,42.787 38.5993,40.614 L38.4363,39.176 C37.8833,34.842 37.5463,30.424 37.4333,26.053 C37.3033,23.064 37.1553,19.667 36.8163,16.361 C36.7073,15.338 36.6333,14.307 36.5603,13.281 L36.5143,12.646 C36.5133,12.254 36.4793,11.903 36.4443,11.55 C36.4263,11.359 36.4073,11.168 36.3943,10.976 C36.3543,10.407 36.3433,9.738 36.3333,9.068 C36.4343,7.5 36.2153,5.998 35.6843,4.564 C35.2533,3.855 34.3533,2.933 33.3593,2.933 C33.2253,2.933 33.0903,2.95 32.9583,2.984 C31.7253,3.246 30.8303,4.29 30.7623,5.528 L30.6833,8.832 C30.6033,12.617 30.5203,16.371 30.4333,20.092 C30.3533,22.856 30.4323,25.562 30.5133,27.883 C30.5943,30.219 30.7043,32.57 30.8423,34.87 L30.8433,35.54 C31.1073,37.068 30.8243,38.746 30.0413,40.179 L29.2343,41.579 L27.9183,40.671 C26.8713,39.896 25.9363,38.998 25.1243,37.995 C23.7873,36.473 22.7293,35.268 20.7883,35.25 C18.9263,35.25 17.5913,36.043 16.9463,39.912 L16.6293,41.816 L14.8753,41.015 C14.1883,40.671 13.4383,40.494 12.6883,40.494 C12.2483,40.494 11.8103,40.554 11.3873,40.671 C9.1713,41.449 8.8493,44.479 9.2553,46.835 L10,49.456 L7.6383,48.557 C7.4413,48.532 7.2523,48.521 7.0643,48.521 C6.0763,48.521 5.1013,48.853 4.3183,49.456 C3.5763,50.055 3.0963,50.953 3.0113,51.914 C2.9503,52.845 2.9793,53.798 3.0993,54.736 C3.2103,55.674 3.2553,56.623 3.2333,57.562 C3.2333,58.103 3.1893,58.655 3.1453,59.208 C3.1263,59.446 3.1073,59.684 3.0923,59.922 C3.0173,61.056 2.9333,62.34 2.9133,63.598 C2.7353,68.167 3.1183,72.742 4.0523,77.207 C4.8743,80.673 5.8543,84.714 7.0413,88.646 C7.2573,89.351 7.5213,90.04 7.7993,90.771 L7.9493,91.166 C8.1343,91.65 8.3203,92.14 8.4863,92.629 C9.1693,94.336 9.5753,96.146 9.6893,98 L35.5883,98 Z M6.0613,101 L6.6663,99.08 C7.0953,97.701 6.1413,94.878 5.7343,93.673 C5.5863,93.229 5.4253,92.806 5.2653,92.384 L5.1143,91.985 C4.8393,91.265 4.5263,90.445 4.2653,89.586 C3.2473,86.259 2.2903,82.561 1.2553,77.949 C0.2653,73.242 -0.1417,68.423 0.0433,63.62 C0.0433,62.533 0.1163,61.428 0.1883,60.359 L0.2243,59.808 C0.2233,59.375 0.2583,58.915 0.2933,58.453 C0.3173,58.143 0.3413,57.833 0.3533,57.521 C0.3703,56.733 0.3313,55.925 0.2363,55.129 C0.0953,54.004 0.0643,52.857 0.1443,51.725 C0.3113,49.968 1.1873,48.335 2.5483,47.231 C3.6243,46.374 4.8933,45.841 6.2453,45.675 C6.0833,41.798 7.6593,38.913 10.5173,37.908 C11.2503,37.673 11.9973,37.557 12.7533,37.557 C13.3303,37.557 13.9023,37.625 14.4623,37.76 C15.4403,34.101 17.5253,32.32 20.8233,32.32 C24.1413,32.32 25.9493,34.375 27.4033,36.027 C27.6223,36.28 27.8273,36.511 28.0233,36.725 C28.0193,36.414 27.9943,36.103 27.9483,35.794 L27.9423,35.05 C27.8053,32.688 27.6933,30.298 27.6123,27.978 L27.6083,27.835 C27.5293,25.597 27.4333,22.811 27.4333,20.02 C27.5323,16.274 27.6233,12.542 27.7023,8.809 L27.8133,5.483 C27.9253,2.941 29.7283,0.76 32.1973,0.174 C32.5833,0.062 33.0023,0.002 33.4183,0.002 C35.7163,0.002 37.4643,1.743 38.2633,3.234 C39.1673,4.942 39.2023,7.092 39.2323,8.988 C39.2333,9.643 39.2333,10.222 39.2913,10.734 C39.3313,11.104 39.3543,11.49 39.3783,11.876 L39.4133,12.435 C39.4923,13.642 39.5823,14.856 39.7013,16.061 C40.0183,19.123 40.1633,22.235 40.3013,25.246 L40.3333,25.927 C40.4493,30.208 40.7843,34.524 41.3303,38.766 L41.5393,40.187 C41.8903,42.542 42.2513,44.956 42.4813,47.363 C42.5933,48.498 42.6033,49.644 42.6033,50.72 C42.5853,51.948 42.6443,53.178 42.7803,54.384 L42.9283,55.43 C43.3683,57.685 43.4433,60.009 43.1493,62.313 C42.7553,64.773 42.0713,67.167 41.1143,69.443 C37.1863,78.778 36.4203,89.319 38.9583,99.125 L39.3623,101 L6.0613,101 Z" id="Fill-1" fill="#000000" mask="url(#mask-2)"></path>
            </g>
            <g id="Group-6" transform="translate(19.000000, 8.998000)">
                <mask id="mask-4" fill="white">
                    <use xlink:href="#path-3"></use>
                </mask>
                <g id="Clip-5"></g>
                <path d="M4.1533,3.1401 C3.8913,3.1381 3.6293,3.1641 3.3733,3.2201 C3.1913,3.2461 3.0193,3.3191 2.8733,3.4301 C2.7163,3.6881 2.7163,4.0121 2.8733,4.2701 C3.1773,4.7561 3.6143,5.1441 4.1333,5.3901 C6.2043,6.5451 8.6483,6.8361 10.9333,6.2001 C10.2433,5.8401 9.5833,5.4401 8.9333,5.0401 C8.5133,4.7801 8.1033,4.5201 7.6833,4.2801 C6.6253,3.6011 5.4083,3.2081 4.1533,3.1401 L4.1533,3.1401 Z M19.0933,7.5501 L19.5333,7.9801 C21.3233,9.7501 23.0933,11.3501 25.1433,11.4501 C25.5833,11.5201 26.0313,11.3881 26.3633,11.0901 C26.4983,10.7961 26.5603,10.4731 26.5433,10.1501 C26.6053,9.4871 26.4353,8.8221 26.0633,8.2701 C25.4633,7.5601 24.1733,7.4901 23.0033,7.4801 C21.6433,7.5001 20.3533,7.5001 19.0933,7.5501 L19.0933,7.5501 Z M28.5933,21.4301 C26.6733,19.1701 18.5933,11.8201 15.2533,8.9201 C15.0703,8.8831 14.8913,8.8221 14.7233,8.7401 C14.5003,8.6321 14.2973,8.4871 14.1233,8.3101 L13.4233,8.5301 C9.5693,10.0831 5.8273,11.9011 2.2233,13.9701 L0.9233,11.9701 C2.0033,11.2601 4.4933,9.9701 6.9233,8.7701 C5.5163,8.5771 4.1593,8.1191 2.9233,7.4201 C1.9923,6.9531 1.2223,6.2181 0.7133,5.3101 C0.0643,4.1211 0.2663,2.6481 1.2133,1.6801 C1.6663,1.2711 2.2233,0.9941 2.8233,0.8801 C4.5933,0.4801 6.5333,0.8801 8.8233,2.2001 C9.2733,2.4601 9.7133,2.7301 10.1533,3.0001 C11.1393,3.6731 12.2043,4.2241 13.3233,4.6401 L13.7633,4.7701 L14.1933,4.8801 L14.3733,4.8801 C14.9653,5.0071 15.5463,5.1781 16.1133,5.3901 C18.3973,5.1011 20.7013,4.9911 23.0033,5.0601 C24.2233,5.0601 26.5033,5.0601 27.8433,6.6801 C28.5853,7.6591 28.9413,8.8761 28.8433,10.1001 C28.9253,10.9371 28.7363,11.7791 28.3033,12.5001 C27.5183,13.4901 26.2783,14.0051 25.0233,13.8601 C24.6873,13.8451 24.3533,13.8051 24.0233,13.7401 C26.7233,16.2401 29.3033,18.7401 30.3433,19.9401 L28.5933,21.4301 Z" id="Fill-4" fill="#410166" mask="url(#mask-4)"></path>
            </g>
        </g>
    </g>
</svg>