<?xml version="1.0" encoding="UTF-8"?>
<svg width="15px" height="15px" viewBox="0 0 15 15" version="1.1" xmlns="http://www.w3.org/2000/svg" xmlns:xlink="http://www.w3.org/1999/xlink">
    <!-- Generator: Sketch 59.1 (86144) - https://sketch.com -->
    <title>Icon / Search Glass</title>
    <desc>Created with Sketch.</desc>
    <g id="Icon-/-Search-Glass" stroke="none" stroke-width="1" fill="none" fill-rule="evenodd">
        <g id="Lupa" transform="translate(0.000000, -1.000000)">
            <path d="M8.9929,2.4064 C6.9349,0.3494 3.5999,0.3494 1.5429,2.4064 C-0.5141,4.4634 -0.5141,7.7994 1.5429,9.8564 C3.4099,11.7244 6.3249,11.8814 8.3869,10.3564 L11.7919,15.4834 C12.0949,15.9364 12.6809,16.1084 13.3249,15.9314 C14.1289,15.7094 14.8459,14.9934 15.0669,14.1874 C15.2449,13.5444 15.0739,12.9574 14.6189,12.6564 L9.4929,9.2504 C11.0159,7.1884 10.8599,4.2744 8.9929,2.4064" id="Fill-1" fill="#979797"></path>
            <path d="M7.8284,3.5705 C6.4134,2.1555 4.1204,2.1555 2.7064,3.5705 C1.2924,4.9845 1.2924,7.2785 2.7064,8.6925 C4.1204,10.1065 6.4134,10.1065 7.8284,8.6925 C9.2424,7.2785 9.2424,4.9845 7.8284,3.5705" id="Fill-4" fill="#FEFEFE"></path>
        </g>
    </g>
</svg>