<?xml version="1.0" encoding="UTF-8"?>
<svg width="21px" height="13px" viewBox="0 0 21 13" version="1.1" xmlns="http://www.w3.org/2000/svg" xmlns:xlink="http://www.w3.org/1999/xlink">
    <!-- Generator: Sketch 59.1 (86144) - https://sketch.com -->
    <title>Icon / View Password Open</title>
    <desc>Created with Sketch.</desc>
    <g id="Icon-/-View-Password-Open" stroke="none" stroke-width="1" fill="none" fill-rule="evenodd">
        <path d="M8.085,4.91398492 C7.541,4.918 7.106,5.351 7.1,5.897 C7.092,6.467 7.52,6.917 8.078,6.926 C8.631,6.935 9.081,6.486 9.08200678,5.923 C9.084,5.356 8.643,4.911 8.085,4.91398492 L8.085,4.91398492 Z M18.992,6.892 C17.307,4.893 15.041,3.557 12.535,3.031 C13.827,3.836 14.694,5.258 14.694,6.892 C14.694,8.525 13.827,9.947 12.536,10.752 C15.042,10.226 17.307,8.89 18.992,6.892 L18.992,6.892 Z M5.579,6.892 C5.579,5.258 6.445,3.836 7.737,3.031 C5.231,3.557 2.966,4.893 1.281,6.892 C2.966,8.89 5.231,10.226 7.737,10.752 C6.445,9.947 5.579,8.525 5.579,6.892 L5.579,6.892 Z M20.273,6.892 L20.029,7.201 C17.625,10.255 14.02,12.006 10.137,12.006 C6.254,12.006 2.648,10.255 0.244,7.201 L0,6.892 L0.244,6.582 C2.649,3.528 6.255,1.777 10.137,1.777 C14.019,1.777 17.624,3.528 20.029,6.582 L20.273,6.892 Z M0.036,5.305 C2.389,2.074 6.039,0 10.137,0 C14.234,0 17.884,2.074 20.236,5.305 C17.884,2.494 14.234,0.69 10.137,0.69 C6.039,0.69 2.389,2.494 0.036,5.305 L0.036,5.305 Z" id="Fill-1" fill="#410166"></path>
    </g>
</svg>