<?xml version="1.0" encoding="UTF-8"?>
<svg width="23px" height="14px" viewBox="0 0 23 14" version="1.1" xmlns="http://www.w3.org/2000/svg" xmlns:xlink="http://www.w3.org/1999/xlink">
    <!-- Generator: Sketch 59.1 (86144) - https://sketch.com -->
    <title>Icon / Elevator Pitch</title>
    <desc>Created with Sketch.</desc>
    <g id="Symbols" stroke="none" stroke-width="1" fill="none" fill-rule="evenodd">
        <g id="Card-/-Edit-Mode" transform="translate(-22.000000, -208.000000)" fill="#7A7A7A">
            <g id="Icon-/-Elevator-Pitch" transform="translate(22.000000, 208.000000)">
                <path d="M12.1703062,11.7296406 C12.4434312,12.2004219 12.4161187,12.7207969 11.8935875,13.0233906 C11.3710563,13.3259844 10.8974,13.0981406 10.6249937,12.6273594 C10.5214938,12.4491094 9.2025875,9.14501562 8.86118125,8.48951562 C8.7699,8.66417187 8.46299375,9.06882812 8.1560875,9.47276562 C8.2639,8.99192187 8.32715,7.30142187 8.16830625,6.59273437 C8.703775,7.08292187 10.2023688,7.86923437 10.67315,8.01442187 C10.170025,8.07982812 9.6669,8.14523437 9.46924375,8.13732812 C9.86815,8.75904687 12.0668063,11.5513906 12.1703062,11.7296406" id="Fill-1"></path>
                <path d="M12.2260813,4.48744375 C12.2260813,4.94385 11.855925,5.3132875 11.4002375,5.3132875 C10.9438312,5.3132875 10.573675,4.94385 10.573675,4.48744375 C10.573675,4.0310375 10.9438312,3.6616 11.4002375,3.6616 C11.855925,3.6616 12.2260813,4.0310375 12.2260813,4.48744375" id="Fill-3"></path>
                <path d="M8.34490313,5.084725 C8.57346563,5.4800375 8.43762187,5.98531875 8.04302812,6.2131625 C7.64771563,6.441725 7.14243438,6.30588125 6.91387188,5.91056875 C6.68530938,5.515975 6.82115313,5.009975 7.21646563,4.78213125 C7.61105937,4.5542875 8.11705938,4.6894125 8.34490313,5.084725" id="Fill-5"></path>
                <path d="M5.282525,7.54213125 C5.6778375,7.769975 5.8129625,8.275975 5.58511875,8.67056875 C5.357275,9.06588125 4.851275,9.201725 4.45668125,8.9731625 C4.06065,8.74531875 3.925525,8.2400375 4.1540875,7.844725 C4.38193125,7.4494125 4.8872125,7.3142875 5.282525,7.54213125" id="Fill-7"></path>
                <path d="M3.85904063,11.16535 C4.31544688,11.16535 4.68488438,11.5355063 4.68488438,11.9911938 C4.68488438,12.4476 4.31544688,12.8177563 3.85904063,12.8177563 C3.40263438,12.8177563 3.03319688,12.4476 3.03319688,11.9911938 C3.03319688,11.5355063 3.40263438,11.16535 3.85904063,11.16535" id="Fill-9"></path>
                <path d="M18.9408594,11.16535 C19.3972656,11.16535 19.7667031,11.5355063 19.7667031,11.9911938 C19.7667031,12.4476 19.3972656,12.8177563 18.9408594,12.8177563 C18.4844531,12.8177563 18.1142969,12.4476 18.1142969,11.9911938 C18.1142969,11.5355063 18.4844531,11.16535 18.9408594,11.16535" id="Fill-11"></path>
                <path d="M17.5174469,7.54213125 C17.9127594,7.3142875 18.4180406,7.4494125 18.6458844,7.844725 C18.8744469,8.2400375 18.7386031,8.74531875 18.3432906,8.9731625 C17.9486969,9.201725 17.4426969,9.06588125 17.2148531,8.67056875 C16.9870094,8.275975 17.1221344,7.769975 17.5174469,7.54213125" id="Fill-13"></path>
                <path d="M14.4546375,5.084725 C14.6824813,4.6894125 15.1884813,4.5542875 15.583075,4.78213125 C15.9791063,5.009975 16.1142313,5.515975 15.8856688,5.91056875 C15.657825,6.30588125 15.1525438,6.441725 14.7572313,6.2131625 C14.3619188,5.98531875 14.2267938,5.4800375 14.4546375,5.084725" id="Fill-15"></path>
                <g id="Group-19" stroke-width="1" transform="translate(0.000000, 0.697978)">
                    <path d="M1.85336875,11.3300156 L20.9462438,11.3300156 C20.7917125,6.19310938 16.5740875,2.05957813 11.3998062,2.05957813 C6.225525,2.05957813 2.00861875,6.19310938 1.85336875,11.3300156 L1.85336875,11.3300156 Z M-0.0002875,12.9371406 L-0.0002875,11.4205781 C-0.0002875,5.13510937 5.1143375,0.021203125 11.3998062,0.021203125 C17.6859937,0.021203125 22.7999,5.13510937 22.7999,11.4205781 L22.7999,12.9371406 L-0.0002875,12.9371406 Z" id="Fill-17"></path>
                </g>
            </g>
        </g>
    </g>
</svg>