<?xml version="1.0" encoding="UTF-8"?>
<svg width="23px" height="23px" viewBox="0 0 23 23" version="1.1" xmlns="http://www.w3.org/2000/svg" xmlns:xlink="http://www.w3.org/1999/xlink">
    <!-- Generator: Sketch 59.1 (86144) - https://sketch.com -->
    <title>Icon / FLipbook</title>
    <desc>Created with Sketch.</desc>
    <defs>
        <polygon id="path-1" points="0 0.07 22.447 0.07 22.447 22.9999 0 22.9999"></polygon>
    </defs>
    <g id="Symbols" stroke="none" stroke-width="1" fill="none" fill-rule="evenodd">
        <g id="Card-/-Edit-Mode" transform="translate(-224.000000, -203.000000)">
            <g id="Icon-/-FLipbook" transform="translate(224.000000, 202.000000)">
                <g id="Group-14">
                    <g id="Group-3" transform="translate(0.000000, 0.930200)">
                        <mask id="mask-2" fill="white">
                            <use xlink:href="#path-1"></use>
                        </mask>
                        <g id="Clip-2"></g>
                        <path d="M0,8.5229 L0.096,7.5559 L0.358,7.5469 C0.439,7.5439 8.511,7.1809 10.877,0.5609 L11.053,0.0699 L21.818,12.8219 L21.646,13.0159 C21.646,13.0169 21.186,13.5359 20.73,14.0609 L21.738,15.1389 L21.413,15.4669 L22.447,16.5019 C22.447,16.5019 21.635,17.2269 21.531,17.3149 C18.038,20.0349 13.891,21.8769 8.84,22.9549 L8.63,22.9999 L0,8.5229 Z" id="Fill-1" fill="#7A7A7A" mask="url(#mask-2)"></path>
                    </g>
                    <path d="M20.1143,15.2866 C14.6063,21.1636 8.8253,22.9746 8.8253,22.9746 L8.8253,23.0876 C12.0083,22.1906 16.6473,19.6896 19.0593,17.7086 C20.2573,16.7236 20.8633,16.0676 20.8633,16.0676 L20.1143,15.2866 Z" id="Fill-4" fill="#FEFEFE"></path>
                    <path d="M8.7139,22.6221 C8.7139,22.6221 11.7339,21.8121 15.2479,19.1021 C16.9909,17.7581 18.9639,16.0761 20.7129,13.7831 L11.3079,2.5531 C11.3079,2.5531 9.3679,8.2901 0.8319,9.2821 L8.7139,22.6221 Z" id="Fill-6" fill="#FEFEFE"></path>
                    <path d="M21.457,17.3496 L20.818,16.6836 C15.389,21.7246 8.826,23.2056 8.826,23.2056 L8.826,23.3126 C12.314,22.5276 15.253,21.3066 17.414,20.1126 C19.984,18.6926 21.457,17.3496 21.457,17.3496" id="Fill-8" fill="#FEFEFE"></path>
                    <path d="M10.4941,9.7573 C12.2001,12.2943 13.9411,14.8093 15.7071,17.3053 C14.8871,17.9903 14.6221,18.1953 13.9301,18.6743 C12.1431,16.1133 10.4201,13.5223 8.5821,10.9943 C7.6911,11.4943 6.7651,11.8933 5.4441,12.5033 C5.3621,12.5413 5.2731,12.5723 5.1611,12.6173 C5.1221,12.5383 5.0791,12.4753 5.0581,12.4043 C4.8421,11.6983 5.2261,11.0533 5.9071,10.6433 C6.4151,10.3373 6.6471,9.9523 6.7801,9.4773 C6.8451,9.2443 6.9381,9.0283 7.1191,8.8653 C7.1351,8.8523 7.1401,8.8463 7.1551,8.8333 C7.2071,8.7913 7.3861,8.6973 7.3861,8.6973 C7.3861,8.6973 8.8801,7.6603 8.8801,7.6573 C9.2091,7.3573 9.5541,7.3103 9.9031,7.3483 C10.4391,7.4073 10.9211,7.3473 11.3581,7.0403 C11.9441,6.6293 12.5311,6.7193 13.0431,7.2443 C13.0941,7.2973 13.1351,7.3613 13.1891,7.4303 C13.1321,7.4943 13.0891,7.5483 13.0421,7.5943 C12.3571,8.2663 11.2101,9.2063 10.4941,9.7573" id="Fill-10" fill="#7A7A7A"></path>
                    <polygon id="Fill-12" fill="#FEFEFE" points="8.876 8.2461 7.78 8.9771 13.98 17.9531 15.021 17.1661"></polygon>
                </g>
            </g>
        </g>
    </g>
</svg>