<?xml version="1.0" encoding="UTF-8"?>
<svg width="15px" height="18px" viewBox="0 0 15 18" version="1.1" xmlns="http://www.w3.org/2000/svg" xmlns:xlink="http://www.w3.org/1999/xlink">
    <!-- Generator: Sketch 59.1 (86144) - https://sketch.com -->
    <title>Icon / Sketched X</title>
    <desc>Created with Sketch.</desc>
    <g id="Icon-/-Sketched-X" stroke="none" stroke-width="1" fill="none" fill-rule="evenodd">
        <polygon id="Fill-1" fill="#B2B2B2" points="14.426 1.42108547e-14 14.249 0.106 14.107 0.035 13.647 0.035 13.115 0.284 11.732 1.524 9.819 3.473 7.798 5.884 7.054 3.19 6.557 1.985 5.884 0.602 5.458 0.106 5.246 0.284 4.856 0.284 4.324 0.461 3.828 0.957 3.615 1.346 3.615 2.551 3.615 3.864 4.36 6.947 5.175 9.286 3.048 12.086 1.453 14.391 0.922 15.064 0.177 16.482 1.50990331e-14 17.12 0.106 17.687 0.212 17.864 0.673 17.757 1.099 17.403 1.241 17.474 1.453 17.12 1.631 17.12 2.091 16.376 2.233 16.34 3.261 15.17 3.651 14.603 5.388 12.441 5.458 12.263 6.167 11.519 8.329 14.851 10.35 17.296 10.634 17.191 10.847 17.616 11.165 17.793 11.272 17.687 11.626 17.757 12.264 17.97 12.016 17.581 12.158 17.581 12.299 17.793 12.441 17.793 12.229 17.403 11.839 16.765 11.875 16.659 11.732 16.021 11.626 15.986 11.52 15.631 11.094 14.993 9.748 12.051 8.649 9.073 8.826 8.613 8.968 8.542 9.11 8.223 9.428 7.94 11.413 5.635 12.725 4.289 13.894 2.906 14 2.906 14.781 1.807 14.816 1.63 14.746 0.602 14.497 1.42108547e-14"></polygon>
    </g>
</svg>