<?xml version="1.0" encoding="UTF-8"?>
<svg width="61px" height="74px" viewBox="0 0 61 74" version="1.1" xmlns="http://www.w3.org/2000/svg" xmlns:xlink="http://www.w3.org/1999/xlink">
    <!-- Generator: Sketch 59.1 (86144) - https://sketch.com -->
    <title>Icon / TradeWorks Icon</title>
    <desc>Created with Sketch.</desc>
    <defs>
        <polygon id="path-1" points="0.000148780488 0.154355645 60.9879488 0.154355645 60.9879488 74 0.000148780488 74"></polygon>
        <polygon id="path-3" points="0 74 61 74 61 0 0 0"></polygon>
    </defs>
    <g id="Icon-/-TradeWorks-Icon" stroke="none" stroke-width="1" fill="none" fill-rule="evenodd">
        <g id="Group-7">
            <g id="Group-3">
                <mask id="mask-2" fill="white">
                    <use xlink:href="#path-1"></use>
                </mask>
                <g id="Clip-2"></g>
                <path d="M60.9879488,17.620146 C60.9879488,11.071146 55.8246707,8.05654113 51.2124756,7.31057339 C46.6002805,6.56460565 42.7319878,2.90936371 41.5417439,1.93960565 C40.3515,0.969847581 38.9380854,0.154355645 35.7818561,0.154355645 L25.2062415,0.154355645 C22.0497146,0.154355645 20.6363,0.969847581 19.4460561,1.93960565 C18.2558122,2.90936371 14.3875195,6.56460565 9.77532439,7.31057339 C5.16312927,8.05654113 0.000148780488,10.8679444 0.000148780488,17.4169444 L23.0167878,17.4169444 L23.0167878,74.0000895 L37.4484951,74.0000895 L37.4484951,17.4169444 L60.9879488,17.620146 Z" id="Fill-1" fill="#422063" mask="url(#mask-2)"></path>
            </g>
            <mask id="mask-4" fill="white">
                <use xlink:href="#path-3"></use>
            </mask>
            <g id="Clip-5"></g>
            <polygon id="Fill-4" fill="#FEFEFE" mask="url(#mask-4)" points="25 72 35 72 35 3 25 3"></polygon>
            <polygon id="Fill-6" fill="#422063" mask="url(#mask-4)" points="8.56845464 27.9644002 19.0053666 54.9960133 29.9093051 26 40.3459192 54.9960133 51.4318432 27.9644002 58 27.9644002 40.0861953 70.9741566 29.7794431 42.3186153 19.0309816 71 2 27.9644002"></polygon>
        </g>
    </g>
</svg>