<svg xmlns="http://www.w3.org/2000/svg" width="172" height="140" viewBox="0 0 172 140">
    <g fill="none" fill-rule="evenodd">
        <g fill="#BABBBE">
            <path d="M103.422 33.264v31.958c12.603 0 14.286-3.416 16.155-5.846 1.869-2.431 4.3-13.274.186-19.444-4.113-6.17-11.368-6.977-16.341-6.668M96.54 97.146l-5.353-3.866a10.368 10.368 0 0 0 .346-7.477l5.436-3.927a16.628 16.628 0 0 1 1.645 7.218c0 2.915-.752 5.655-2.074 8.052zM83.226 99.48a10.84 10.84 0 0 0 6.03-3.275l6.08 2.813c-2.912 3.944-7.51 6.61-12.76 6.99l.65-6.528zm-.847-4.073c-.067.011-.133.019-.2.029l-.104.013c-.061.006-.122.014-.182.019l-.138.011c-.053.004-.108.009-.161.01l-.049.679-.467 1.039-.36-.026-.03-.002-.359-.024-.314-1.092.048-.677a7.466 7.466 0 0 1-.517-.118l-.037-.01a6.339 6.339 0 0 1-.494-.157l-.315.607-.844.775-.32-.159-.028-.015-.321-.159.147-1.126.314-.604a6.952 6.952 0 0 1-.849-.664l-.533.437-1.088.394-.231-.271-.021-.024-.23-.27.584-.98.532-.437a6.282 6.282 0 0 1-.518-.935l-.664.2-1.159-.055-.104-.337-.01-.03-.105-.336.929-.678.664-.2a6.45 6.45 0 0 1-.103-1.06l-.692-.07-1.044-.494.037-.35.003-.03.038-.35 1.127-.27.69.072c.08-.35.19-.691.325-1.016h.002l-.608-.33-.764-.852.174-.307.017-.029.172-.307 1.144.182.608.33h.001c.17-.23.355-.45.555-.656v-.002l-.108.084-.448-.56-.363-1.078.283-.216.027-.021.28-.217.981.607.41.512c.124-.082.252-.162.381-.237.014-.01.03-.015.044-.024.128-.072.257-.14.389-.204h.002l-.219-.623.015-1.133.34-.115.032-.01.338-.115.726.886.215.613c.11-.025.218-.046.328-.064.111-.017.222-.033.335-.047v-.68l.391-1.067h.75l.393 1.067v.68c.364.043.72.115 1.065.21l.271-.625.787-.833.33.138.03.011.331.138-.066 1.133-.272.628h.003a6.7 6.7 0 0 1 .893.602l.501-.473 1.056-.465.25.251.022.025.25.252-.513 1.017-.499.474c.106.136.206.277.302.422l.015.025c.093.145.183.295.267.45l.647-.245 1.16-.024.128.329.012.03.128.328-.878.74-.646.243c.042.165.078.334.107.507.001.005.004.01.004.017.03.174.05.347.066.527l.694.023 1.077.42-.012.353v.03l-.013.353-1.105.344-.692-.024a.389.389 0 0 0-.007.038c-.015.083-.028.166-.046.247-.01.055-.024.107-.037.162a1 1 0 0 1-.024.105l-.054.208-.015.043-.071.233.628.288.823.8-.152.317-.014.028-.151.318-1.154-.102-.63-.288a6.54 6.54 0 0 1-.647.855l.465.506.438 1.05-.266.237-.024.02-.267.236-1.02-.537-.467-.506a7.182 7.182 0 0 1-.47.296c-.151.088-.306.17-.466.246l.226.641-.015 1.134-.339.115-.031.009-.34.116-.724-.885-.226-.643c-.074.015-.147.03-.223.042l-.07.014zM67.4 99.252l6.118-2.832a10.826 10.826 0 0 0 6.115 3.111l.647 6.5c-5.269-.296-9.906-2.89-12.88-6.78zm-3.45-10.158c0-2.715.655-5.277 1.81-7.55l5.396 3.899a10.348 10.348 0 0 0-.661 3.65c0 1.564.35 3.046.974 4.384l-5.338 3.857a16.621 16.621 0 0 1-2.18-8.24zm16.36-16.941l-.647 6.498a10.827 10.827 0 0 0-6.722 3.743l-6.029-2.79c2.944-4.267 7.82-7.15 13.397-7.451zm15.568 7.796l-5.991 2.773a10.806 10.806 0 0 0-6.69-4.02l-.65-6.528c5.604.398 10.466 3.397 13.331 7.775zm9.08 8.393h-.474c-.017-.494-.05-.984-.097-1.47l.47-.06 1.029-.52-.049-.348-.002-.031-.047-.348-1.133-.243-.466.061c-.083-.486-.178-.97-.292-1.445l.451-.117.955-.649-.096-.34-.006-.03-.093-.34-1.157-.094-.45.12a23.37 23.37 0 0 0-.484-1.396l.432-.176.857-.762-.137-.324-.012-.03-.137-.326-1.158.055-.432.175a22.24 22.24 0 0 0-.668-1.32l.408-.23.746-.866-.177-.305-.017-.026-.18-.306-1.14.203-.408.23a22.652 22.652 0 0 0-.838-1.225l.377-.28.626-.954-.218-.28-.02-.024-.218-.28-1.105.347-.374.282c-.32-.38-.652-.75-.995-1.106l.336-.329.496-1.026-.255-.249-.024-.023-.254-.248-1.047.484-.336.328a24.12 24.12 0 0 0-1.13-.973l.289-.366.353-1.08-.285-.214-.026-.02-.285-.214-.974.613-.289.367a22.713 22.713 0 0 0-1.25-.818l.237-.399.205-1.117-.31-.176-.03-.016-.31-.176-.885.732-.234.4a22.872 22.872 0 0 0-1.349-.655l.18-.423.055-1.132-.332-.136-.032-.01-.33-.136-.78.84-.177.424a23.11 23.11 0 0 0-1.427-.474l.122-.443-.096-1.13-.348-.092-.03-.008-.346-.09-.662.93-.12.444c-.488-.11-.979-.205-1.478-.284l.062-.457-.246-1.11-.356-.044-.032-.006-.356-.045-.53 1.01-.063.457a22.978 22.978 0 0 0-1.5-.094v-.465l-.393-1.067h-.75l-.391 1.067v.465a23.07 23.07 0 0 0-1.502.094l-.062-.458-.531-1.01-.354.046-.034.006-.355.044-.245 1.11.06.457c-.497.08-.99.174-1.476.284l-.122-.443-.659-.931-.348.09-.031.008-.347.092-.096 1.13.121.443c-.482.143-.957.301-1.425.474l-.179-.424-.78-.84-.331.135-.03.011-.332.136.056 1.132.178.423c-.458.204-.908.423-1.348.655l-.236-.4-.884-.732-.31.176-.028.016-.312.176.206 1.117.237.4c-.427.259-.844.531-1.251.817l-.287-.367-.975-.613-.286.213-.025.021-.284.214.353 1.08.287.366a24.12 24.12 0 0 0-1.13.973l-.336-.328-1.048-.484-.253.248-.024.023-.253.249.494 1.026.336.329c-.343.356-.675.726-.993 1.106l-.374-.282-1.106-.347-.218.28-.02.024-.218.28.627.954.374.28c-.292.4-.57.808-.836 1.225l-.409-.23-1.14-.203-.18.306-.016.026-.179.305.748.866.408.23c-.237.431-.461.873-.669 1.32l-.431-.175-1.157-.055-.138.326-.013.03-.138.324.86.762.43.176c-.175.46-.336.924-.482 1.395l-.452-.12-1.155.095-.092.34-.01.03-.092.34.952.649.451.117c-.113.476-.208.96-.29 1.445l-.467-.06-1.132.242-.047.348-.004.03-.047.349 1.03.52.468.06c-.049.486-.08.976-.096 1.47h-.475l-1.091.383v.735l1.091.383h.475c.016.494.047.985.096 1.47l-.468.06-1.03.521.047.347.004.032.047.348 1.132.24.468-.06c.08.488.176.97.29 1.446l-.452.12-.952.646.092.34.01.03.092.34 1.155.095.452-.121c.146.472.307.938.483 1.397l-.432.175-.859.762.138.326.013.03.138.323 1.157-.054.431-.175c.208.447.432.889.67 1.321l-.409.23-.748.867.18.303.015.028.18.304 1.14-.202.41-.232c.265.418.543.825.835 1.227l-.374.28-.627.954.219.28.019.023.218.28 1.106-.346.374-.283c.318.382.65.748.993 1.106l-.336.33-.494 1.025.253.25.024.022.253.248 1.048-.485.336-.326c.367.335.742.66 1.13.971l-.287.367-.353 1.08.284.215.025.019.286.215.975-.616.287-.365c.407.287.824.56 1.25.82l-.236.398-.206 1.116.312.177.027.015.311.176.884-.733.236-.398c.44.231.89.451 1.348.655l-.178.422-.056 1.132.332.135.03.013.332.134.78-.84.178-.423c.468.172.943.33 1.425.474l-.12.442.095 1.13.347.09.031.01.347.092.66-.934.122-.442c.486.11.98.206 1.477.284l-.061.458.245 1.11.355.043.034.005.354.046.53-1.008.063-.459c.497.048.997.08 1.502.095v.465l.391 1.067h.75l.393-1.067v-.465a22.976 22.976 0 0 0 1.5-.095l.062.46.531 1.007.356-.046.032-.005.356-.043.246-1.11-.062-.458c.5-.078.99-.174 1.478-.284l.12.442.662.934.345-.092.031-.01.348-.09.096-1.13-.122-.442a24.91 24.91 0 0 0 1.427-.474l.177.423.78.84.33-.134.032-.013.332-.135-.056-1.132-.179-.422a23.68 23.68 0 0 0 1.35-.655l.233.398.885.733.31-.176.03-.015.31-.177-.205-1.116-.236-.399c.425-.26.844-.532 1.25-.819l.288.365.974.616.285-.215.026-.019.285-.215-.353-1.08-.289-.367c.387-.31.765-.636 1.13-.97l.336.325 1.047.485.254-.248.024-.022.255-.25-.496-1.025-.336-.33c.343-.358.675-.724.995-1.106l.374.283 1.103.346.22-.28.02-.023.218-.28-.626-.953-.377-.281c.294-.402.572-.81.838-1.227l.408.232 1.14.202.18-.304.017-.028.177-.303-.746-.867-.408-.23c.238-.432.459-.874.668-1.321l.432.175 1.158.054.137-.324.012-.03.137-.325-.857-.762-.432-.175c.175-.459.337-.925.483-1.397l.451.121 1.157-.095.093-.34.006-.03.096-.34-.955-.646-.451-.12c.114-.476.209-.958.292-1.445l.466.06 1.133-.24.047-.349.002-.032.049-.347-1.03-.52-.47-.06c.048-.486.081-.977.098-1.47h.474l1.09-.384v-.735l-1.09-.383z"/>
        </g>
        <path fill="#C3DAE9" d="M14.726 69.63h51.326L51.47 101.28 39.316 76.369l-11.22 25.66z"/>
        <path fill="#412463" d="M35.754 16.807a.932.932 0 0 1-.93.932.932.932 0 0 1 0-1.865c.514 0 .93.419.93.933zm-5.804 0a.932.932 0 0 1-.93.932.932.932 0 0 1 0-1.865c.514 0 .93.419.93.933zm5.804-10.794a.931.931 0 1 1-1.862.003.931.931 0 0 1 1.862-.003zm-5.804 0a.931.931 0 1 1-1.862.003.931.931 0 0 1 1.862-.003zm-3.196 61.135h10.502V2.602H26.754v64.546zm37.56-50.13c-.963-4.92-4.213-8.015-9.484-8.847-3.932-.62-7.09-2.498-9.99-4.928C42.95 1.658 40.818.561 38.1.745c-.003.017-11.346 0-11.346 0s-1.48-.062-1.983 0l-.355.065c-1.836.311-3.392 1.243-4.812 2.433-2.9 2.43-6.057 4.308-9.99 4.928-5.271.832-8.52 3.926-9.483 8.846-.096.488-.085.994-.13 1.582.602.04 1.075.102 1.548.103 7.623.006 15.245.006 22.867.001v50.288h15.179V18.703h.006c7.764.005 15.53.005 23.294 0 .473-.002.946-.063 1.55-.104-.046-.588-.035-1.094-.132-1.582z"/>
        <path fill="#000" d="M127.253 88.062V70.177l17.906-.02-17.906 17.905zM112.65 93.18c3.037-.368 5.494-1.644 7.372-3.829a11.514 11.514 0 0 0 1.94-3.181v19.104l-9.312-12.094zm-6.024-3.802h-1.689V74.34h1.407c7.692 0 11.537 2.48 11.537 7.436 0 1.58-.317 2.901-.957 3.966-.637 1.066-1.536 1.844-2.698 2.342a14.79 14.79 0 0 1-3.518 1.018c-1.183.185-2.544.275-4.082.275zm-3.097-55.985h1.555c2.39 0 4.55.275 6.484.827a16.23 16.23 0 0 1 5.302 2.616c1.604 1.193 2.852 2.854 3.75 4.983.895 2.13 1.343 4.662 1.343 7.597v.01c0 2.898-.448 5.413-1.344 7.539-.897 2.13-2.138 3.801-3.724 5.013a15.705 15.705 0 0 1-5.304 2.645c-1.949.55-4.118.825-6.507.825h-1.555V33.392zm18.434 43.732c-.18-.438-.385-.87-.62-1.295-.993-1.8-2.354-3.195-4.08-4.185-1.05-.59-2.277-1.03-3.685-1.324a27.544 27.544 0 0 0-3.023-.476c4.018-.677 7.427-2.362 10.229-5.058.418-.401.807-.826 1.179-1.268V77.124zM76.854 55.038l7.714-16.8 7.54 16.8H76.854zm-26.414-6.72h-1.688V33.28h1.407c7.69 0 11.537 2.479 11.537 7.436 0 1.579-.318 2.901-.957 3.966-.638 1.065-1.539 1.844-2.701 2.34a14.668 14.668 0 0 1-3.517 1.02c-1.182.184-2.543.275-4.081.275zm100.37 21.83h.034l4.592-4.575-28.111-.126V49.75h14.083v-4.738h-14.083v-11.62h21.634v-4.736h-26.996v6.603c-.385-.45-.791-.88-1.227-1.29-3.77-3.543-8.534-5.313-14.284-5.313h-7.354v29.347l-14.53-31.11-17.89 39.058-10.215-13.832c3.038-.368 5.495-1.643 7.371-3.829 1.876-2.184 2.815-4.781 2.815-7.792 0-2.02-.497-3.93-1.491-5.73-.996-1.798-2.356-3.195-4.08-4.185-1.05-.588-2.278-1.028-3.687-1.323-1.405-.293-2.607-.467-3.602-.523a75.492 75.492 0 0 0-3.91-.082h-6.417v41.061h5.29V52.614h2.196l13.445 18.272-13.169 28.57-11.986-30.623L27.25 99.457l-12.863-29.74H9.635l18.582 42.233 11.021-29.512 8.887 23.799-15.342 33.402h5.362L74.63 59.774h19.673l5.256 9.99v.42h.09v41.06h5.288v-17.57h2.196l14.336 17.828h.494v.079h5.29V94.23l2.138-1.982 15.985 19.332h7.147l-19.416-22.858L150.81 70.15z"/>
        <path fill="#C3DAE9" d="M127.253 70.177v17.885l17.906-17.906z"/>
        <path fill="#000" d="M170.84 98.283c0 3.676-1.304 6.712-3.911 9.108-2.608 2.398-5.824 3.596-9.651 3.596-3.417 0-6.812-1.318-9.065-3.65-2.22-2.299-1.302-1.375-3.653-4.103 0 0 2.02-1.598 3.546-2.741 1.07 1.177 2.204 2.41 2.919 3.062 1.832 1.67 4.376 2.674 6.702 2.674 2.251 0 4.116-.783 5.6-2.351 1.484-1.569 2.223-3.434 2.223-5.595 0-1.982-.647-3.54-1.942-4.676-1.294-1.136-3.087-2.152-5.373-3.055l-2.928-1.19c-2.889-1.189-5.15-2.558-6.782-4.106-1.631-1.551-2.447-3.623-2.447-6.218 0-3.172 1.237-5.721 3.713-7.65 2.477-1.928 5.404-2.893 8.78-2.893 4.876 0 8.1 1.999 10.502 6.108l-3.577 2.315c-1.546-2.377-3.017-3.492-7.037-3.665-1.799-.077-3.433.541-4.897 1.62-1.463 1.083-2.194 2.47-2.194 4.165 0 2.451 1.97 4.397 5.91 5.837l3.037 1.135c3.377 1.263 5.976 2.831 7.796 4.704 1.818 1.873 2.73 4.398 2.73 7.57"/>
        <text fill="#410166" font-family="Avenir-Medium, Avenir" font-size="13.016" font-weight="400" letter-spacing="-.325">
            <tspan x="50.565" y="128.203">JOBS TO THE TRAD</tspan> <tspan x="166.359" y="128.203">E</tspan>
        </text>
    </g>
</svg>
