<?xml version="1.0" encoding="UTF-8"?>
<svg width="19px" height="15px" viewBox="0 0 19 15" version="1.1" xmlns="http://www.w3.org/2000/svg" xmlns:xlink="http://www.w3.org/1999/xlink">
    <!-- Generator: Sketch 59.1 (86144) - https://sketch.com -->
    <title>Fill 3</title>
    <desc>Created with Sketch.</desc>
    <g id="Symbols" stroke="none" stroke-width="1" fill="none" fill-rule="evenodd">
        <g id="Card-/-Edit-Mode" transform="translate(-225.000000, -179.000000)" fill="#7A7A7A">
            <path d="M243.234286,179.275714 C242.491429,179.711429 241.667143,180.025714 240.791429,180.195714 C240.09,179.46 239.091429,179 237.982857,179 C235.86,179 234.137143,180.694286 234.137143,182.787143 C234.137143,183.082857 234.171429,183.371429 234.235714,183.65 C231.038571,183.491429 228.204286,181.984286 226.305714,179.692857 C225.975714,180.251429 225.785714,180.902857 225.785714,181.597143 C225.785714,182.91 226.467143,184.068571 227.497143,184.748571 C226.867143,184.727143 226.274286,184.558571 225.755714,184.274286 L225.755714,184.321429 C225.755714,186.155714 227.081429,187.687143 228.841429,188.035714 C228.517143,188.121429 228.178571,188.168571 227.827143,188.168571 C227.58,188.168571 227.338571,188.144286 227.102857,188.101429 C227.594286,189.604286 229.014286,190.7 230.697143,190.731429 C229.38,191.745714 227.722857,192.351429 225.918571,192.351429 C225.607143,192.351429 225.301429,192.334286 225,192.298571 C226.704286,193.372857 228.727143,194 230.898571,194 C237.974286,194 241.842857,188.23 241.842857,183.225714 C241.842857,183.061429 241.84,182.897143 241.834286,182.735714 C242.584286,182.201429 243.237143,181.534286 243.751429,180.775714 C243.062857,181.077143 242.321429,181.278571 241.542857,181.371429 C242.337143,180.902857 242.947143,180.16 243.234286,179.275714" id="Fill-3"></path>
        </g>
    </g>
</svg>