<?xml version="1.0" encoding="UTF-8"?>
<svg width="20px" height="20px" viewBox="0 0 20 20" version="1.1" xmlns="http://www.w3.org/2000/svg" xmlns:xlink="http://www.w3.org/1999/xlink">
    <!-- Generator: Sketch 59.1 (86144) - https://sketch.com -->
    <title>Icon / Twitter</title>
    <desc>Created with Sketch.</desc>
    <g id="Icon-/-Twitter" stroke="none" stroke-width="1" fill="none" fill-rule="evenodd">
        <g id="Page-1" fill="#818181">
            <path d="M15,0 L5,0 C2.237,0 0,2.238 0,5 L0,15 C0,17.761 2.237,20 5,20 L15,20 C17.761,20 20,17.761 20,15 L20,5 C20,2.238 17.761,0 15,0 M15,1 C17.206,1 19,2.794 19,5 L19,15 C19,17.206 17.206,19 15,19 L5,19 C2.794,19 1,17.206 1,15 L1,5 C1,2.794 2.794,1 5,1 L15,1" id="Fill-1"></path>
            <path d="M15.9053,5.1841 C15.4103,5.4741 14.8603,5.6841 14.2763,5.7971 C13.8083,5.3071 13.1423,5.0001 12.4043,5.0001 C10.9883,5.0001 9.8403,6.1301 9.8403,7.5251 C9.8403,7.7231 9.8633,7.9141 9.9053,8.1001 C7.7753,7.9951 5.8843,6.9891 4.6203,5.4621 C4.3993,5.8341 4.2723,6.2681 4.2723,6.7311 C4.2723,7.6071 4.7263,8.3801 5.4143,8.8321 C4.9933,8.8191 4.5983,8.7061 4.2523,8.5171 L4.2523,8.5481 C4.2523,9.7711 5.1363,10.7921 6.3093,11.0241 C6.0943,11.0821 5.8673,11.1121 5.6333,11.1121 C5.4683,11.1121 5.3083,11.0971 5.1513,11.0671 C5.4783,12.0701 6.4243,12.8001 7.5473,12.8201 C6.6683,13.4981 5.5633,13.9011 4.3613,13.9011 C4.1543,13.9011 3.9503,13.8901 3.7493,13.8661 C4.8843,14.5821 6.2333,15.0001 7.6813,15.0001 C12.3983,15.0001 14.9773,11.1531 14.9773,7.8171 C14.9773,7.7081 14.9753,7.5991 14.9703,7.4911 C15.4713,7.1351 15.9073,6.6901 16.2503,6.1841 C15.7913,6.3851 15.2973,6.5201 14.7773,6.5811 C15.3073,6.2691 15.7133,5.7741 15.9053,5.1841" id="Fill-3"></path>
        </g>
    </g>
</svg>