<?xml version="1.0" encoding="UTF-8"?>
<svg width="20px" height="20px" viewBox="0 0 20 20" version="1.1" xmlns="http://www.w3.org/2000/svg" xmlns:xlink="http://www.w3.org/1999/xlink">
    <!-- Generator: Sketch 59.1 (86144) - https://sketch.com -->
    <title>Icon / Twitter Copy 1</title>
    <desc>Created with Sketch.</desc>
    <g id="Icon-/-Twitter-Copy-1" stroke="none" stroke-width="1" fill="none" fill-rule="evenodd">
        <path d="M15.5555556,0 C18.0066667,0 20,1.99333333 20,4.44444444 L20,15.5555556 C20,18.0066667 18.0066667,20 15.5555556,20 L4.44444444,20 C1.99333333,20 0,18.0066667 0,15.5555556 L0,4.44444444 C0,1.99333333 1.99333333,0 4.44444444,0 L15.5555556,0" id="Path" fill="#2DAAE1"></path>
        <path d="M16.8501044,4.2209 C16.2759108,4.5689 15.6379178,4.8209 14.9604853,4.9565 C14.4176113,4.3685 13.6450598,4.0001 12.7889892,4.0001 C11.1464473,4.0001 9.81478204,5.3561 9.81478204,7.0301 C9.81478204,7.2677 9.84146175,7.4969 9.89018121,7.7201 C7.41940847,7.5941 5.22587267,6.3869 3.75964885,4.5545 C3.50329168,5.0009 3.35597331,5.5217 3.35597331,6.0773 C3.35597331,7.1285 3.8826075,8.0561 4.68067869,8.5985 C4.19232408,8.5829 3.73412913,8.4473 3.33277356,8.2205 L3.33277356,8.2577 C3.33277356,9.7253 4.35820225,10.9505 5.71886723,11.2289 C5.46946999,11.2985 5.20615289,11.3345 4.93471589,11.3345 C4.743318,11.3345 4.55772005,11.3165 4.37560206,11.2805 C4.75491787,12.4841 5.85226576,13.3601 7.15493139,13.3841 C6.13530264,14.1977 4.85351678,14.6813 3.45921217,14.6813 C3.21909482,14.6813 2.98245743,14.6681 2.7493,14.6393 C4.06588547,15.4985 5.63070821,16.0001 7.31036967,16.0001 C12.7820293,16.0001 15.7736363,11.3837 15.7736363,7.3805 C15.7736363,7.2497 15.7713163,7.1189 15.7655164,6.9893 C16.34667,6.5621 16.8524244,6.0281 17.2503,5.4209 C16.7178659,5.6621 16.1448322,5.8241 15.5416389,5.8973 C16.1564321,5.5229 16.6273869,4.9289 16.8501044,4.2209" id="Fill-3" fill="#FFFFFF"></path>
    </g>
</svg>