<?xml version="1.0" encoding="UTF-8"?>
<svg width="59px" height="80px" viewBox="0 0 59 80" version="1.1" xmlns="http://www.w3.org/2000/svg" xmlns:xlink="http://www.w3.org/1999/xlink">
    <!-- Generator: Sketch 59.1 (86144) - https://sketch.com -->
    <title>Group 3</title>
    <desc>Created with Sketch.</desc>
    <defs>
        <polygon id="path-1" points="0 0 58.5102128 0 58.5102128 79.787234 0 79.787234"></polygon>
    </defs>
    <g id="L-Individual-Profile" stroke="none" stroke-width="1" fill="none" fill-rule="evenodd" opacity="0.2">
        <g id="L00H---TW-Home-Page" transform="translate(-1347.000000, -302.000000)">
            <g id="Group-3" transform="translate(1347.000000, 302.000000)">
                <mask id="mask-2" fill="white">
                    <use xlink:href="#path-1"></use>
                </mask>
                <g id="Clip-2"></g>
                <path d="M35.9042553,26.5957447 C37.3731915,26.5957447 38.5638298,27.786383 38.5638298,29.2553191 C38.5638298,30.7242553 37.3731915,31.9148936 35.9042553,31.9148936 C34.4353191,31.9148936 33.2446809,30.7242553 33.2446809,29.2553191 C33.2446809,27.786383 34.4353191,26.5957447 35.9042553,26.5957447 L35.9042553,26.5957447 Z M22.606383,26.5957447 C24.0753191,26.5957447 25.2659574,27.786383 25.2659574,29.2553191 C25.2659574,30.7242553 24.0753191,31.9148936 22.606383,31.9148936 C21.1374468,31.9148936 19.9468085,30.7242553 19.9468085,29.2553191 C19.9468085,27.786383 21.1374468,26.5957447 22.606383,26.5957447 L22.606383,26.5957447 Z M34.0778723,39.6 L32.4114894,37.5276596 C30.5323404,38.9029787 27.9782979,38.9029787 26.0982979,37.5276596 L24.433617,39.6 C27.2795745,41.7753191 31.2310638,41.7753191 34.0778723,39.6 L34.0778723,39.6 Z M44.6625532,59.8408511 L41.6131915,62.8902128 C41.0940426,63.4093617 41.0940426,64.2502128 41.6131915,64.7693617 L44.6625532,67.8195745 L39.8931915,72.5880851 L39.8931915,55.0714894 L44.6625532,59.8408511 Z M37.233617,55.8510638 C34.9902128,57.6842553 32.1510638,58.6314894 29.2557447,58.5106383 C26.3604255,58.6280851 23.5221277,57.6817021 21.2770213,55.8510638 L21.2770213,52.106383 C22.9468085,50.8510638 23.9314894,48.8851064 23.9357447,46.7965957 L23.9357447,46.1676596 C25.5417021,47.1659574 27.3689362,47.7506383 29.2557447,47.8723404 C31.1408511,47.7387234 32.967234,47.1480851 34.5748936,46.1523404 L34.5748936,46.7965957 C34.5791489,48.8859574 35.5646809,50.852766 37.233617,52.1097872 L37.233617,55.8510638 Z M17.287234,32.1804255 L17.287234,23.9361702 L41.2234043,23.9361702 L41.2234043,32.1804255 C41.2234043,39.1812766 33.1953191,45.212766 29.2557447,45.212766 C27.6804255,45.212766 24.6931915,44.0051064 21.8565957,41.3565957 C20.1502128,39.7514894 17.287234,36.4212766 17.287234,32.1804255 L17.287234,32.1804255 Z M11.9680851,21.2765957 C11.233617,21.2765957 10.6387234,20.6808511 10.6387234,19.947234 C10.6387234,19.212766 11.233617,18.6170213 11.9680851,18.6170213 L46.5425532,18.6170213 C47.2770213,18.6170213 47.872766,19.212766 47.872766,19.947234 C47.872766,20.6808511 47.2770213,21.2765957 46.5425532,21.2765957 L11.9680851,21.2765957 Z M23.9357447,5.00765957 L23.9357447,13.2978723 L26.5953191,13.2978723 L26.5953191,2.65957447 L31.9153191,2.65957447 L31.9153191,13.2978723 L34.5748936,13.2978723 L34.5748936,4.99319149 C39.2804255,6.84340426 42.7017021,10.986383 43.6285106,15.9574468 L14.8846809,15.9574468 C15.8131915,10.9914894 19.233617,6.85446809 23.9357447,5.00765957 L23.9357447,5.00765957 Z M18.6174468,72.5880851 L13.8480851,67.8195745 L16.8974468,64.7693617 C17.4165957,64.2502128 17.4165957,63.4093617 16.8974468,62.8902128 L13.8480851,59.8408511 L18.6174468,55.0714894 L18.6174468,72.5880851 Z M50.7731915,54.667234 L50.5314894,54.5770213 L50.5314894,54.3506383 C50.1365957,54.2434043 49.7910638,54.0740426 49.5042553,53.8451064 C49.2004255,53.8144681 48.8957447,53.7412766 48.5944681,53.6051064 C48.3331915,53.5565957 48.0906383,53.4834043 47.872766,53.3812766 L47.872766,53.5719149 L39.8693617,50.5497872 C38.2906383,49.9761702 37.2370213,48.4765957 37.233617,46.7965957 L37.233617,44.3642553 C40.1059574,42.1931915 42.2080851,39.1821277 43.2795745,35.7668085 C43.286383,35.7421277 43.2804255,35.7217021 43.2897872,35.6961702 C43.3859574,35.4212766 43.4574468,35.1378723 43.5374468,34.8578723 C43.5612766,34.7625532 43.5944681,34.6697872 43.6174468,34.5744681 L43.62,34.5744681 C43.7578723,34.0442553 43.8710638,33.5097872 43.9340426,32.9659574 C43.9731915,32.6187234 43.9051064,31.9148936 43.8829787,31.9148936 L43.8829787,23.9361702 L46.5425532,23.9361702 C48.7459574,23.9361702 50.5314894,22.1497872 50.5314894,19.947234 C50.5314894,17.7438298 48.7459574,15.9574468 46.5425532,15.9574468 L46.3144681,15.9574468 C45.3017021,9.52595745 40.7655319,4.20765957 34.5748936,2.19319149 L34.5748936,1.33021277 C34.5748936,0.595744681 33.9791489,0 33.2446809,0 L25.2659574,0 C24.5314894,0 23.9357447,0.595744681 23.9357447,1.33021277 L23.9357447,2.19829787 C17.7434043,4.2093617 13.2029787,9.52595745 12.1859574,15.9574468 L11.9680851,15.9574468 C9.76468085,15.9574468 7.97829787,17.7438298 7.97829787,19.947234 C7.97829787,22.1497872 9.76468085,23.9361702 11.9680851,23.9361702 L14.6276596,23.9361702 L14.6276596,26.5957447 L14.6276596,31.9148936 C14.6276596,32.8740426 14.872766,34.5744681 14.872766,34.5744681 C15.673617,37.9378723 17.473617,40.9804255 20.0370213,43.3004255 C20.4361702,43.6748936 20.8548936,44.0289362 21.2770213,44.3642553 L21.2770213,46.7948936 C21.2710638,48.4834043 20.207234,49.986383 18.6174468,50.5540426 L10.6387234,53.5702128 L10.6387234,53.3523404 C9.99957447,53.7829787 9.50340426,54.0102128 8.72638298,54.1208511 C8.47531915,54.1574468 8.22510638,54.16 7.97829787,54.1455319 L7.97829787,54.5770213 L7.73829787,54.667234 C3.09234043,56.4408511 0.0174468085,60.8902128 -0.000425531915,65.8629787 L-0.000425531915,79.787234 L2.65914894,79.787234 L2.65914894,65.8629787 C2.67276596,61.9957447 5.06510638,58.5344681 8.67787234,57.1557447 L15.2582979,54.6697872 L11.0285106,58.9004255 C10.5085106,59.4195745 10.5085106,60.2612766 11.0285106,60.7804255 L14.0770213,63.8297872 L11.0285106,66.8791489 C10.5085106,67.3982979 10.5085106,68.24 11.0285106,68.7591489 L18.6174468,76.3480851 L18.6174468,79.787234 L21.2770213,79.787234 L21.2770213,59.1574468 C23.7102128,60.5251064 26.4642553,61.2204255 29.2557447,61.1702128 C32.0446809,61.2221277 34.7970213,60.533617 37.233617,59.1753191 L37.233617,79.787234 L39.8931915,79.787234 L39.8931915,76.3480851 L47.4821277,68.7591489 C48.0021277,68.24 48.0021277,67.3982979 47.4821277,66.8791489 L44.432766,63.8297872 L47.4821277,60.7804255 C48.0021277,60.2612766 48.0021277,59.4195745 47.4821277,58.9004255 L43.2531915,54.6697872 L49.8319149,57.1557447 C53.4455319,58.5344681 55.8378723,61.9957447 55.8506383,65.8629787 L55.8506383,79.787234 L58.5102128,79.787234 L58.5102128,65.8629787 C58.4931915,60.8902128 55.4182979,56.4408511 50.7731915,54.667234 L50.7731915,54.667234 Z" id="Fill-1" fill="#000000" mask="url(#mask-2)"></path>
            </g>
        </g>
    </g>
</svg>