<?xml version="1.0" encoding="UTF-8"?>
<svg width="50px" height="50px" viewBox="0 0 50 50" version="1.1" xmlns="http://www.w3.org/2000/svg" xmlns:xlink="http://www.w3.org/1999/xlink">
    <!-- Generator: Sketch 59.1 (86144) - https://sketch.com -->
    <title>Icon / RW Icon hat Copy</title>
    <desc>Created with Sketch.</desc>
    <defs>
        <polygon id="path-1" points="6.96864111e-05 0.114285714 49.5805705 0.114285714 49.5805705 49.6427672 6.96864111e-05 49.6427672"></polygon>
    </defs>
    <g id="L-Individual-Profile" stroke="none" stroke-width="1" fill="none" fill-rule="evenodd">
        <g id="L00H---TW-Home-Page" transform="translate(-89.000000, -3.000000)">
            <g id="Icon-/-RW-Icon-hat" transform="translate(89.000000, 3.000000)">
                <g id="Group-10">
                    <g id="Group-3" transform="translate(0.000000, 0.242857)">
                        <mask id="mask-2" fill="white">
                            <use xlink:href="#path-1"></use>
                        </mask>
                        <g id="Clip-2"></g>
                        <path d="M12.221324,42.5185 C12.1502439,42.3188571 12.0875261,42.1192143 12.0561672,41.9124286 C10.8694077,34.2052857 9.70843206,26.4935 8.51017422,18.7906429 C8.34919861,17.7638571 8.05651568,16.7817143 7.54501742,15.8402857 C5.31470383,11.7495714 3.17114983,7.60707143 0.997979094,3.48385714 C0.633867596,2.7935 0.27010453,2.10457143 6.96864111e-05,1.59421429 C0.127944251,0.489928571 0.79728223,0.308142857 1.44989547,0.114214286 C3.22097561,0.886357143 4.94083624,1.67314286 6.69205575,2.39421429 C9.78334495,3.66778571 12.9049477,4.87421429 15.9892683,6.15885714 C18.1613937,7.06385714 20.2620906,8.11564286 22.4568641,8.96671429 C23.1150523,9.22171429 23.5641812,9.6385 24.0244599,10.056 C26.0119164,11.8645714 27.9464111,13.731 29.9108711,15.5635 C33.7498955,19.1435 37.5962369,22.7174286 41.4425784,26.2952857 C45.8220209,24.8285 48.8579094,24.496 49.4690592,25.6542143 C50.657561,27.9081429 42.2101742,34.9499286 30.6014634,41.3820714 C18.9913589,47.8127857 8.61644599,51.1988571 7.42689895,48.9449286 C6.8241115,47.8013571 8.70599303,45.4220714 12.221324,42.5185" id="Fill-1" fill="#542871" mask="url(#mask-2)"></path>
                    </g>
                    <path d="M26.9294774,31.9396786 C26.4218118,31.0378929 25.5249477,30.7843214 24.9549129,30.12575 C24.9636237,29.2993214 24.9737282,28.4661071 24.984878,27.4096786 C24.1305226,27.99575 23.4611847,28.4561071 22.7747735,28.9278929 C21.9301742,28.8611071 21.2137979,28.2493214 20.2273868,28.2668214 C20.4918467,29.1100357 20.7291289,29.8636071 20.9779094,30.66325 C20.4862718,31.36825 19.9942857,32.0721786 19.4444599,32.8603929 C20.3921951,33.1736071 21.26223,32.91575 22.1096167,33.11075 C22.5970732,33.73575 22.8967247,34.5371786 23.5974216,35.0793214 C24.1803484,34.3593214 24.110662,33.4346786 24.5458537,32.6986071 C25.2793031,32.46575 26.0284321,32.2268214 26.9294774,31.9396786" id="Fill-4" fill="#FFFFFF"></path>
                    <path d="M25.3858537,13.0306071 C25.1043206,12.8016786 24.8231359,12.57025 24.5388153,12.34275 C24.4266202,12.2556071 24.3043206,12.1798929 24.1862021,12.0984643 C24.0057143,12.3373929 23.8252265,12.5763214 23.6388153,12.82525 C23.0123345,12.9184643 22.3583275,12.8745357 21.6576307,13.0788214 C21.9973519,13.7473929 22.5485714,14.1566786 22.9736585,14.7088214 C22.8388153,15.3545357 22.6994425,16.02025 22.5614634,16.6845357 C23.0308014,16.8941786 23.2565854,16.4734643 23.5879443,16.3991786 C23.930453,16.3234643 24.253101,16.16025 24.5827178,16.0363214 C25.1388153,16.37025 25.6844599,16.6948929 26.294216,17.0591786 C26.4590244,16.2709643 26.1548432,15.5831071 26.2144251,14.8881071 C26.3551916,14.7381071 26.4931707,14.5866786 26.6325436,14.43775 C26.5116376,14.2748929 26.4050174,14.0984643 26.2701742,13.9513214 C25.9827178,13.6366786 25.6816725,13.3363214 25.3858537,13.0306071" id="Fill-6" fill="#FFFFFF"></path>
                    <path d="M6.74933798,14.0678571 C6.9158885,14.2807143 7.08069686,14.4917857 7.24829268,14.7042857 C7.50439024,14.4728571 7.7615331,14.2410714 8.06571429,13.9675 C8.59149826,14.0517857 9.16013937,14.145 9.79114983,14.2457143 C9.71170732,13.5767857 9.28522648,13.1442857 9.11310105,12.5046429 C9.35073171,12.0671429 9.62216028,11.5678571 9.92320557,11.0110714 C9.28662021,10.7939286 8.75491289,11.0767857 8.13958188,11.0810714 C7.77303136,10.7021429 7.36919861,10.2810714 6.93261324,9.83107143 C6.62006969,10.1996429 6.64724739,10.6225 6.60160279,10.9964286 C6.55038328,11.4175 6.39533101,11.7064286 6.02320557,11.875 C6.04445993,12.5335714 6.40264808,13.0728571 6.63017422,13.6596429 C6.6810453,13.7910714 6.71101045,13.9307143 6.74933798,14.0678571" id="Fill-8" fill="#FFFFFF"></path>
                </g>
            </g>
        </g>
    </g>
</svg>